<svg version="1.2" xmlns="http://www.w3.org/2000/svg" viewBox="0 0 450 158" width="450" height="158">
	<title>MPD_logo-svg</title>
	<style>
		.s0 { fill: #000000 } 
		.s1 { fill: #1f95ff } 
	</style>
	<g id="Layer">
		<g id="Layer">
			<path id="Layer" class="s0" d="m190.9 3.4h7l12.1 29.6h0.4l12.1-29.6h7v38.1h-5.5v-27.6h-0.4l-11.2 27.5h-4.4l-11.2-27.5h-0.4v27.6h-5.5z" />
			<path id="Layer" fill-rule="evenodd" class="s0" d="m245.8 42.1c-1.8 0-3.4-0.3-4.9-1c-1.5-0.7-2.6-1.7-3.5-3c-0.9-1.3-1.3-2.9-1.3-4.7c0-1.6 0.3-2.9 0.9-4c0.6-1 1.5-1.9 2.5-2.5c1.1-0.6 2.2-1.1 3.5-1.4c1.3-0.3 2.6-0.5 4-0.7c1.7-0.2 3.1-0.4 4.2-0.5c1.1-0.1 1.8-0.3 2.3-0.6c0.5-0.3 0.7-0.8 0.7-1.5v-0.1c0-1.6-0.5-2.9-1.4-3.8c-0.9-0.9-2.3-1.3-4.1-1.3c-1.9 0-3.3 0.4-4.4 1.2c-1.1 0.8-1.8 1.7-2.2 2.7l-5.2-1.2q0.9-2.5 2.7-4.2c1.2-1.1 2.6-1.9 4.1-2.3c1.6-0.5 3.2-0.7 4.9-0.7c1.1 0 2.4 0.1 3.6 0.4q1.9 0.4 3.6 1.5c1.1 0.7 2 1.7 2.8 3c0.7 1.3 1.1 3 1.1 5.1v19h-5.4v-3.9h-0.2c-0.4 0.7-0.9 1.4-1.6 2.1c-0.7 0.7-1.6 1.3-2.8 1.7c-1 0.5-2.3 0.7-3.9 0.7zm1.2-4.5c1.5 0 2.9-0.3 4-0.9c1.1-0.6 1.9-1.4 2.5-2.4c0.6-1 0.9-2 0.9-3.2v-3.7c-0.2 0.2-0.6 0.4-1.1 0.5c-0.6 0.2-1.2 0.3-1.9 0.4q-1.1 0.2-2.1 0.3c-0.7 0.1-1.3 0.2-1.7 0.2c-1.1 0.1-2.1 0.4-3 0.7c-0.9 0.3-1.6 0.8-2.1 1.4c-0.5 0.6-0.8 1.4-0.8 2.4c0 1.4 0.5 2.4 1.5 3.1c0.9 0.9 2.2 1.2 3.8 1.2z" />
			<path id="Layer" fill-rule="evenodd" class="s0" d="m267.3 12.9h5.4v4.6h0.5c0.3-0.6 0.8-1.3 1.4-2.1c0.6-0.8 1.5-1.5 2.5-2.1c1.1-0.6 2.5-0.9 4.3-0.9c2.3 0 4.4 0.6 6.2 1.8c1.8 1.2 3.2 2.8 4.3 5c1 2.2 1.6 4.8 1.6 7.9c0 3.1-0.5 5.7-1.5 7.9q-1.5 3.3-4.2 5.1c-1.8 1.2-3.9 1.8-6.2 1.8c-1.7 0-3.2-0.3-4.3-0.9c-1.1-0.6-2-1.3-2.6-2c-0.6-0.8-1.1-1.5-1.4-2.1h-0.3v15.2h-5.7zm5.5 14.3c0 2 0.3 3.8 0.9 5.3c0.6 1.5 1.4 2.7 2.5 3.5c1.1 0.8 2.5 1.3 4.1 1.3c1.7 0 3-0.4 4.2-1.3c1.1-0.9 2-2.1 2.5-3.6c0.6-1.5 0.9-3.2 0.9-5.2c0-1.9-0.3-3.6-0.8-5.1c-0.6-1.5-1.4-2.7-2.5-3.6c-1.1-0.9-2.5-1.3-4.2-1.3c-1.6 0-3 0.4-4.1 1.2c-1.1 0.8-1.9 2-2.5 3.5c-0.8 1.6-1 3.3-1 5.3z" />
			<path id="Layer" fill-rule="evenodd" class="s0" d="m299.6 12.9h5.4v4.6h0.5c0.3-0.6 0.8-1.3 1.4-2.1c0.6-0.8 1.5-1.5 2.5-2.1c1.1-0.6 2.5-0.9 4.3-0.9c2.3 0 4.4 0.6 6.2 1.8c1.8 1.2 3.2 2.8 4.3 5c1 2.2 1.6 4.8 1.6 7.9c0 3.1-0.5 5.7-1.5 7.9q-1.5 3.3-4.2 5.1c-1.8 1.2-3.9 1.8-6.2 1.8c-1.7 0-3.2-0.3-4.3-0.9c-1.1-0.6-2-1.3-2.6-2c-0.6-0.8-1.1-1.5-1.4-2.1h-0.3v15.2h-5.7zm5.5 14.3c0 2 0.3 3.8 0.9 5.3c0.6 1.5 1.4 2.7 2.5 3.5c1.1 0.8 2.5 1.3 4.1 1.3c1.7 0 3-0.4 4.2-1.3c1.1-0.9 2-2.1 2.5-3.6c0.6-1.5 0.9-3.2 0.9-5.2c0-1.9-0.3-3.6-0.8-5.1c-0.6-1.5-1.4-2.7-2.5-3.6c-1.1-0.9-2.5-1.3-4.2-1.3c-1.6 0-3 0.4-4.1 1.2c-1.1 0.8-1.9 2-2.5 3.5c-0.7 1.6-1 3.3-1 5.3z" />
			<path id="Layer" class="s0" d="m334.8 8.5c-1 0-1.8-0.3-2.5-1c-0.7-0.7-1-1.4-1-2.3c0-0.9 0.3-1.7 1-2.4c0.7-0.7 1.5-1 2.5-1c1 0 1.8 0.3 2.5 1c0.7 0.7 1 1.4 1 2.4c0 0.9-0.3 1.7-1 2.3c-0.7 0.6-1.5 1-2.5 1zm-2.8 33v-28.6h5.6v28.6z" />
			<path id="Layer" class="s0" d="m350.6 24.5v17h-5.6v-28.6h5.3v4.7h0.4c0.7-1.5 1.7-2.7 3.1-3.6c1.4-0.9 3.2-1.4 5.3-1.4c1.9 0 3.7 0.4 5.1 1.2c1.5 0.8 2.6 2 3.4 3.6c0.8 1.6 1.2 3.6 1.2 5.9v18.2h-5.6v-17.5c0-2.1-0.5-3.7-1.6-4.9c-1.1-1.2-2.6-1.8-4.4-1.8c-1.3 0-2.4 0.3-3.4 0.8q-1.5 0.9-2.4 2.4c-0.5 1.2-0.8 2.5-0.8 4z" />
			<path id="Layer" fill-rule="evenodd" class="s0" d="m388.3 52.7c-2.3 0-4.2-0.3-5.9-0.9c-1.6-0.6-3-1.4-4-2.4c-1-1-1.8-2-2.3-3.2l4.8-2c0.3 0.5 0.8 1.1 1.3 1.7c0.6 0.6 1.3 1.1 2.3 1.6c1 0.4 2.2 0.7 3.8 0.7c2.1 0 3.9-0.5 5.2-1.5q2.1-1.5 2.1-4.8v-5.6h-0.4c-0.3 0.6-0.8 1.3-1.4 2c-0.6 0.7-1.5 1.4-2.6 1.9c-1.1 0.5-2.5 0.8-4.3 0.8c-2.3 0-4.3-0.5-6.1-1.6c-1.8-1.1-3.2-2.6-4.3-4.7c-1-2.1-1.6-4.6-1.6-7.7c0-3.1 0.5-5.6 1.6-7.8c1-2.2 2.5-3.8 4.3-5c1.8-1.2 3.9-1.7 6.2-1.7c1.8 0 3.2 0.3 4.3 0.9c1.1 0.6 1.9 1.3 2.6 2.1c0.6 0.8 1.1 1.5 1.4 2.1h0.4v-4.6h5.5v29.2c0 2.4-0.6 4.4-1.7 6c-1.1 1.6-2.7 2.7-4.6 3.5c-2 0.6-4.2 1-6.6 1zm0-16.3c1.6 0 3-0.4 4.1-1.1c1.1-0.8 2-1.8 2.5-3.2q0.9-2.1 0.9-5.1q0-2.9-0.9-5.1c-0.6-1.5-1.4-2.6-2.5-3.4c-1.1-0.8-2.5-1.2-4.1-1.2c-1.7 0-3.1 0.4-4.2 1.3c-1.1 0.9-2 2-2.5 3.5c-0.6 1.5-0.8 3.1-0.8 4.9c0 1.9 0.3 3.5 0.9 4.9c0.6 1.4 1.4 2.5 2.5 3.3c1 0.8 2.4 1.2 4.1 1.2z" />
			<path id="Layer" class="s0" d="m190.9 98.5v-38.1h13.6c3 0 5.4 0.5 7.4 1.6c1.9 1.1 3.4 2.6 4.4 4.4q1.5 2.8 1.5 6.3c0 2.3-0.5 4.5-1.5 6.3c-1 1.9-2.4 3.3-4.4 4.4c-2 1.1-4.4 1.6-7.4 1.6h-9.3v-4.9h8.8c1.9 0 3.4-0.3 4.6-1c1.2-0.7 2-1.5 2.6-2.7c0.5-1.1 0.8-2.4 0.8-3.9c0-1.4-0.3-2.7-0.8-3.8c-0.5-1.1-1.4-2-2.6-2.6c-1.2-0.6-2.7-0.9-4.6-0.9h-7.2v33.2h-5.9z" />
			<path id="Layer" class="s0" d="m223.9 98.5v-28.6h5.4v4.5h0.3c0.5-1.5 1.4-2.7 2.8-3.6c1.3-0.9 2.8-1.3 4.5-1.3c0.3 0 0.8 0 1.2 0c0.5 0 0.9 0.1 1.1 0.1v5.3c-0.2-0.1-0.6-0.1-1.2-0.2c-0.6-0.1-1.1-0.1-1.7-0.1c-1.3 0-2.5 0.3-3.5 0.8c-1 0.6-1.8 1.3-2.4 2.3q-0.9 1.5-0.9 3.3v17.5z" />
			<path id="Layer" class="s0" d="m255.3 99.1c-2.8 0-5.2-0.6-7.3-1.8c-2-1.2-3.6-2.9-4.7-5.1c-1.1-2.2-1.6-4.8-1.6-7.7c0-2.9 0.5-5.5 1.6-7.7c1.1-2.2 2.6-4 4.6-5.2c2-1.3 4.3-1.9 7-1.9c1.6 0 3.2 0.3 4.7 0.8c1.5 0.5 2.9 1.4 4.1 2.5c1.2 1.1 2.2 2.6 2.8 4.4c0.7 1.8 1 4 1 6.6v2h-22.7v-4.2h17.3q0-2.3-0.9-3.9c-0.6-1.1-1.4-2-2.5-2.7c-1.1-0.7-2.3-1-3.8-1c-1.6 0-2.9 0.4-4.1 1.1q-1.8 1.2-2.7 3c-0.6 1.2-0.9 2.5-0.9 4v3.3c0 1.9 0.3 3.5 1 4.9c0.7 1.3 1.6 2.4 2.8 3.1c1.2 0.7 2.6 1.1 4.3 1.1c1.1 0 2-0.2 2.9-0.5c0.9-0.3 1.6-0.8 2.3-1.4c0.6-0.6 1.1-1.4 1.5-2.3l5.3 1c-0.4 1.5-1.2 2.9-2.3 4.1c-1.1 1.2-2.4 2.1-4.1 2.7c-1.6 0.5-3.5 0.8-5.6 0.8z" />
			<path id="Layer" class="s0" d="m297.4 69.9l-10.4 28.6h-6l-10.4-28.6h6l7.2 22h0.3l7.2-22z" />
			<path id="Layer" class="s0" d="m313.9 99.1c-2.8 0-5.2-0.6-7.3-1.8c-2-1.2-3.6-2.9-4.7-5.1c-1.1-2.2-1.6-4.8-1.6-7.7c0-2.9 0.5-5.5 1.6-7.7c1.1-2.2 2.6-4 4.6-5.2c2-1.3 4.3-1.9 7-1.9c1.6 0 3.2 0.3 4.7 0.8c1.5 0.5 2.9 1.4 4.1 2.5c1.2 1.1 2.2 2.6 2.8 4.4c0.7 1.8 1 4 1 6.6v2h-22.7v-4.2h17.3q0-2.3-0.9-3.9c-0.6-1.1-1.4-2-2.5-2.7c-1.1-0.7-2.3-1-3.8-1c-1.6 0-2.9 0.4-4.1 1.1c-1.2 0.7-2.1 1.8-2.7 3c-0.6 1.2-0.9 2.5-0.9 4v3.3c0 1.9 0.3 3.5 1 4.9c0.7 1.3 1.6 2.4 2.8 3.1c1.2 0.7 2.6 1.1 4.3 1.1c1.1 0 2-0.2 2.9-0.5c0.9-0.3 1.6-0.8 2.3-1.4c0.6-0.6 1.1-1.4 1.5-2.3l5.3 1c-0.4 1.5-1.2 2.9-2.3 4.1c-1.1 1.2-2.4 2.1-4.1 2.7c-1.6 0.5-3.5 0.8-5.6 0.8z" />
			<path id="Layer" class="s0" d="m338 81.6v17h-5.6v-28.6h5.3v4.7h0.4c0.7-1.5 1.7-2.7 3.1-3.6c1.4-0.9 3.2-1.4 5.3-1.4c1.9 0 3.7 0.4 5.1 1.2c1.5 0.8 2.6 2 3.4 3.6c0.8 1.6 1.2 3.6 1.2 5.9v18.2h-5.6v-17.6c0-2.1-0.5-3.7-1.6-4.9c-1.1-1.2-2.6-1.8-4.4-1.8c-1.3 0-2.4 0.3-3.4 0.8q-1.5 0.9-2.4 2.4c-0.6 1.2-0.8 2.5-0.8 4.1z" />
			<path id="Layer" class="s0" d="m377 69.9v4.5h-15.6v-4.5zm-11.4-6.8h5.6v27c0 1.1 0.2 1.9 0.5 2.4c0.3 0.5 0.7 0.9 1.3 1.1c0.5 0.2 1.1 0.3 1.7 0.3c0.4 0 0.8 0 1.2-0.1c0.3-0.1 0.6-0.1 0.8-0.1l1 4.6c-0.3 0.1-0.8 0.3-1.4 0.4c-0.6 0.1-1.3 0.2-2.2 0.2c-1.5 0-2.8-0.2-4.1-0.8c-1.3-0.5-2.3-1.4-3.1-2.5c-0.8-1.1-1.2-2.6-1.2-4.3v-28.2z" />
			<path id="Layer" class="s0" d="m386 65.5c-1 0-1.8-0.3-2.5-1c-0.7-0.7-1-1.4-1-2.3c0-0.9 0.3-1.7 1-2.4c0.7-0.7 1.5-1 2.5-1c1 0 1.8 0.3 2.5 1c0.7 0.7 1 1.4 1 2.4c0 0.9-0.3 1.7-1 2.3c-0.7 0.7-1.6 1-2.5 1zm-2.8 33v-28.6h5.6v28.6z" />
			<path id="Layer" class="s0" d="m420.7 69.9l-10.4 28.6h-6l-10.3-28.6h6l7.2 22h0.3l7.2-22z" />
			<path id="Layer" class="s0" d="m437.2 99.1c-2.8 0-5.2-0.6-7.3-1.8c-2-1.2-3.6-2.9-4.7-5.1c-1.1-2.2-1.6-4.8-1.6-7.7c0-2.9 0.5-5.5 1.6-7.7c1.1-2.2 2.6-4 4.6-5.2c2-1.3 4.3-1.9 7-1.9c1.6 0 3.2 0.3 4.7 0.8c1.5 0.5 2.9 1.4 4.1 2.5c1.2 1.1 2.2 2.6 2.8 4.4c0.7 1.8 1 4 1 6.6v2h-22.7v-4.2h17.3q0-2.3-0.9-3.9c-0.6-1.1-1.4-2-2.5-2.7c-1.1-0.7-2.3-1-3.8-1c-1.6 0-2.9 0.4-4.1 1.1q-1.8 1.2-2.7 3c-0.6 1.2-0.9 2.5-0.9 4v3.3c0 1.9 0.3 3.5 1 4.9c0.7 1.3 1.6 2.4 2.8 3.1c1.2 0.7 2.6 1.1 4.3 1.1c1.1 0 2-0.2 2.9-0.5c0.9-0.3 1.6-0.8 2.3-1.4c0.6-0.6 1.1-1.4 1.5-2.3l5.3 1c-0.4 1.5-1.2 2.9-2.3 4.1c-1.1 1.2-2.4 2.1-4.1 2.7c-1.7 0.5-3.5 0.8-5.6 0.8z" />
			<path id="Layer" fill-rule="evenodd" class="s0" d="m203.2 155.6h-12.3v-38.1h12.7c3.7 0 6.9 0.8 9.6 2.3c2.7 1.5 4.7 3.7 6.2 6.5q2.1 4.2 2.1 10.2c0 4-0.7 7.4-2.2 10.2c-1.4 2.9-3.5 5-6.3 6.6c-2.8 1.6-5.9 2.3-9.8 2.3zm-6.6-5h6.3c2.9 0 5.3-0.5 7.2-1.6c1.9-1.1 3.4-2.7 4.3-4.8c1-2.1 1.4-4.6 1.4-7.7c0-3-0.5-5.5-1.4-7.6c-0.9-2.1-2.4-3.7-4.2-4.7c-1.9-1.1-4.2-1.6-7-1.6h-6.6z" />
			<path id="Layer" class="s0" d="m240.6 156.2c-2.8 0-5.2-0.6-7.3-1.8c-2-1.2-3.6-2.9-4.7-5.1c-1.1-2.2-1.6-4.8-1.6-7.7c0-2.9 0.5-5.5 1.6-7.7c1.1-2.2 2.6-4 4.6-5.2c2-1.3 4.3-1.9 7-1.9c1.6 0 3.2 0.3 4.7 0.8c1.5 0.5 2.9 1.4 4.1 2.5c1.2 1.1 2.2 2.6 2.8 4.4c0.7 1.8 1 4 1 6.6v2h-22.7v-4.2h17.3q0-2.3-0.9-3.9c-0.6-1.1-1.4-2-2.5-2.7c-1.1-0.7-2.3-1-3.8-1c-1.6 0-2.9 0.4-4.1 1.1q-1.8 1.2-2.7 3c-0.6 1.2-0.9 2.5-0.9 4v3.3c0 1.9 0.3 3.5 1 4.9c0.7 1.3 1.6 2.4 2.8 3.1c1.2 0.7 2.6 1.1 4.3 1.1c1.1 0 2-0.2 2.9-0.5c0.9-0.3 1.6-0.8 2.3-1.4c0.6-0.6 1.1-1.4 1.5-2.3l5.3 1c-0.4 1.5-1.2 2.9-2.3 4.1c-1.1 1.2-2.4 2.1-4.1 2.7c-1.7 0.4-3.5 0.8-5.6 0.8z" />
			<path id="Layer" class="s0" d="m272.4 127v4.5h-15.6v-4.5zm-11.5-6.8h5.6v27c0 1.1 0.2 1.9 0.5 2.4c0.3 0.5 0.7 0.9 1.3 1.1c0.5 0.2 1.1 0.3 1.7 0.3c0.4 0 0.8 0 1.2-0.1c0.3-0.1 0.6-0.1 0.8-0.1l1 4.6c-0.3 0.1-0.8 0.3-1.4 0.4c-0.6 0.1-1.3 0.2-2.2 0.2c-1.5 0-2.8-0.2-4.1-0.8c-1.3-0.5-2.3-1.4-3.1-2.5c-0.8-1.1-1.2-2.6-1.2-4.3v-28.2z" />
			<path id="Layer" class="s0" d="m290.5 156.2c-2.8 0-5.2-0.6-7.3-1.8c-2-1.2-3.6-2.9-4.7-5.1c-1.1-2.2-1.6-4.8-1.6-7.7c0-2.9 0.5-5.5 1.6-7.7c1.1-2.2 2.6-4 4.6-5.2c2-1.3 4.3-1.9 7-1.9c1.6 0 3.2 0.3 4.7 0.8c1.5 0.5 2.9 1.4 4.1 2.5c1.2 1.1 2.2 2.6 2.8 4.4c0.7 1.8 1 4 1 6.6v2h-22.7v-4.2h17.3q0-2.3-0.9-3.9c-0.6-1.1-1.4-2-2.5-2.7c-1.1-0.7-2.3-1-3.8-1c-1.6 0-2.9 0.4-4.1 1.1q-1.8 1.2-2.7 3c-0.6 1.2-0.9 2.5-0.9 4v3.3c0 1.9 0.3 3.5 1 4.9c0.7 1.3 1.6 2.4 2.8 3.1c1.2 0.7 2.6 1.1 4.3 1.1c1.1 0 2-0.2 2.9-0.5c0.9-0.3 1.6-0.8 2.3-1.4c0.6-0.6 1.1-1.4 1.5-2.3l5.3 1c-0.4 1.5-1.2 2.9-2.3 4.1c-1.1 1.2-2.4 2.1-4.1 2.7c-1.6 0.4-3.5 0.8-5.6 0.8z" />
			<path id="Layer" class="s0" d="m314.6 138.6v17h-5.6v-28.6h5.3v4.7h0.4c0.7-1.5 1.7-2.7 3.1-3.6c1.4-0.9 3.2-1.4 5.3-1.4c1.9 0 3.7 0.4 5.1 1.2c1.5 0.8 2.6 2 3.4 3.6c0.8 1.6 1.2 3.6 1.2 5.9v18.2h-5.6v-17.5c0-2.1-0.5-3.7-1.6-4.9c-1.1-1.2-2.6-1.8-4.4-1.8c-1.3 0-2.4 0.3-3.4 0.8q-1.5 0.9-2.4 2.4c-0.6 1.2-0.8 2.5-0.8 4z" />
			<path id="Layer" class="s0" d="m353.6 127v4.5h-15.6v-4.5zm-11.4-6.8h5.6v27c0 1.1 0.2 1.9 0.5 2.4c0.3 0.5 0.7 0.9 1.3 1.1c0.5 0.2 1.1 0.3 1.7 0.3c0.4 0 0.8 0 1.2-0.1c0.3-0.1 0.6-0.1 0.8-0.1l1 4.6c-0.3 0.1-0.8 0.3-1.4 0.4c-0.6 0.1-1.3 0.2-2.2 0.2c-1.5 0-2.8-0.2-4.1-0.8c-1.3-0.5-2.3-1.4-3.1-2.5c-0.8-1.1-1.2-2.6-1.2-4.3v-28.2z" />
			<path id="Layer" class="s0" d="m362.6 122.6c-1 0-1.8-0.3-2.5-1c-0.7-0.7-1-1.4-1-2.3c0-0.9 0.3-1.7 1-2.4c0.7-0.7 1.5-1 2.5-1c1 0 1.8 0.3 2.5 1c0.7 0.7 1 1.4 1 2.4c0 0.9-0.3 1.7-1 2.3c-0.7 0.7-1.6 1-2.5 1zm-2.8 33v-28.6h5.6v28.6z" />
			<path id="Layer" fill-rule="evenodd" class="s0" d="m384.8 156.2c-2.7 0-5-0.6-7-1.8c-2-1.2-3.5-2.9-4.7-5.2c-1.1-2.2-1.7-4.8-1.7-7.7c0-3 0.6-5.6 1.7-7.8c1.1-2.2 2.7-3.9 4.7-5.2c2-1.2 4.3-1.8 7-1.8c2.7 0 5 0.6 7 1.8c2 1.2 3.5 3 4.7 5.2c1.1 2.2 1.7 4.8 1.7 7.8c0 3-0.6 5.5-1.7 7.7c-1.1 2.2-2.7 3.9-4.7 5.2c-1.9 1.2-4.3 1.8-7 1.8zm0.1-4.7c1.7 0 3.2-0.5 4.3-1.4c1.1-0.9 2-2.1 2.5-3.7c0.6-1.5 0.8-3.2 0.8-5c0-1.8-0.3-3.5-0.8-5c-0.6-1.5-1.4-2.8-2.5-3.7c-1.1-0.9-2.6-1.4-4.3-1.4c-1.7 0-3.2 0.5-4.3 1.4c-1.1 0.9-2 2.2-2.5 3.7c-0.6 1.5-0.8 3.2-0.8 5c0 1.8 0.3 3.5 0.8 5c0.6 1.5 1.4 2.7 2.5 3.7c1.1 0.9 2.5 1.4 4.3 1.4z" />
			<path id="Layer" class="s0" d="m409.9 138.6v17h-5.6v-28.6h5.3v4.7h0.4c0.7-1.5 1.7-2.7 3.1-3.6c1.4-0.9 3.2-1.4 5.3-1.4c1.9 0 3.7 0.4 5.1 1.2c1.5 0.8 2.6 2 3.4 3.6c0.8 1.6 1.2 3.6 1.2 5.9v18.2h-5.6v-17.5c0-2.1-0.5-3.7-1.6-4.9c-1.1-1.2-2.6-1.8-4.4-1.8c-1.3 0-2.4 0.3-3.4 0.8q-1.5 0.9-2.4 2.4c-0.5 1.2-0.8 2.5-0.8 4z" />
		</g>
		<g id="Layer">
			<g id="Layer">
				<path id="Layer" class="s1" d="m0.5 114.7h6.4v28.5h-6.4z" />
			</g>
			<g id="Layer">
				<path id="Layer" class="s1" d="m23.6 114.7h6.4v28.5h-6.4z" />
			</g>
			<g id="Layer">
				<path id="Layer" class="s1" d="m46.6 114.7h6.4v28.5h-6.4z" />
			</g>
			<g id="Layer">
				<path id="Layer" class="s1" d="m69.6 114.7h6.4v28.5h-6.4z" />
			</g>
			<g id="Layer">
				<path id="Layer" class="s1" d="m92.6 114.7h6.4v28.5h-6.4z" />
			</g>
			<g id="Layer">
				<path id="Layer" class="s0" d="m0.5 50.9h121.5v6.4h-121.5z" />
			</g>
			<g id="Layer">
				<path id="Layer" class="s0" d="m0.5 100.8h121.5v6.4h-121.5z" />
			</g>
			<g id="Layer">
				<path id="Layer" class="s0" d="m0.5 150.7h121.5v6.4h-121.5z" />
			</g>
			<g id="Layer">
				<path id="Layer" class="s0" d="m0.5 0.9h121.5v6.4h-121.5z" />
			</g>
			<g id="Layer">
				<path id="Layer" class="s1" d="m115.7 114.7h6.4v28.5h-6.4z" />
			</g>
			<g id="Layer">
				<path id="Layer" class="s1" d="m0.5 64.8h6.4v28.5h-6.4z" />
			</g>
			<g id="Layer">
				<path id="Layer" class="s1" d="m23.6 64.8h6.4v28.5h-6.4z" />
			</g>
			<g id="Layer">
				<path id="Layer" class="s1" d="m46.6 64.8h6.4v28.5h-6.4z" />
			</g>
			<g id="Layer">
				<path id="Layer" class="s1" d="m69.6 64.8h6.4v28.5h-6.4z" />
			</g>
			<g id="Layer">
				<path id="Layer" class="s1" d="m92.6 64.8h6.4v28.5h-6.4z" />
			</g>
			<g id="Layer">
				<path id="Layer" class="s1" d="m115.7 64.8h6.4v28.5h-6.4z" />
			</g>
			<g id="Layer">
				<path id="Layer" class="s1" d="m0.5 14.8h6.4v28.5h-6.4z" />
			</g>
			<g id="Layer">
				<path id="Layer" class="s1" d="m23.6 14.8h6.4v28.5h-6.4z" />
			</g>
			<g id="Layer">
				<path id="Layer" class="s1" d="m46.6 14.8h6.4v28.5h-6.4z" />
			</g>
			<g id="Layer">
				<path id="Layer" class="s1" d="m69.6 14.8h6.4v28.5h-6.4z" />
			</g>
			<g id="Layer">
				<path id="Layer" class="s1" d="m92.6 14.8h6.4v28.5h-6.4z" />
			</g>
			<g id="Layer">
				<path id="Layer" class="s1" d="m115.7 14.8h6.4v28.5h-6.4z" />
			</g>
		</g>
	</g>
</svg>