<svg version="1.1" xmlns="http://www.w3.org/2000/svg" xmlns:xlink="http://www.w3.org/1999/xlink" width="1200" height="1399.99219" viewBox="0,0,1200,1399.99219"><g fill="none" fill-rule="nonzero" stroke="none" stroke-width="1" stroke-linecap="butt" stroke-linejoin="miter" stroke-miterlimit="10" stroke-dasharray="" stroke-dashoffset="0" font-family="none" font-weight="none" font-size="none" text-anchor="none" style="mix-blend-mode: normal"><g><path d="M466.25834,932.25834c0,-2.06646 1.6752,-3.74166 3.74166,-3.74166c2.06646,0 3.74166,1.6752 3.74166,3.74166c0,2.06646 -1.6752,3.74166 -3.74166,3.74166c-2.06646,0 -3.74166,-1.6752 -3.74166,-3.74166z" fill="#1f95ff"/><text x="470" y="960" fill="#000000" font-family="Inter" font-weight="800" font-size="16" text-anchor="middle">Andhra Pradesh</text><text x="470" y="992" fill="#1f95ff" font-family="Inter" font-weight="500" font-size="20" text-anchor="middle">14</text></g><g><path d="M883.2918,449.2918c0,-3.70484 3.00337,-6.7082 6.7082,-6.7082c3.70484,0 6.7082,3.00337 6.7082,6.7082c0,3.70484 -3.00337,6.7082 -6.7082,6.7082c-3.70484,0 -6.7082,-3.00337 -6.7082,-6.7082z" fill="#1f95ff"/><text x="890" y="480" fill="#000000" font-family="Inter" font-weight="800" font-size="16" text-anchor="middle">Assam</text><text x="890" y="512" fill="#1f95ff" font-family="Inter" font-weight="500" font-size="20" text-anchor="middle">45</text></g><g><path d="M745,451c0,-2.76142 2.23858,-5 5,-5c2.76142,0 5,2.23858 5,5c0,2.76142 -2.23858,5 -5,5c-2.76142,0 -5,-2.23858 -5,-5z" fill="#1f95ff"/><text x="750" y="480" fill="#000000" font-family="Inter" font-weight="800" font-size="16" text-anchor="middle">Bihar</text><text x="750" y="512" fill="#1f95ff" font-family="Inter" font-weight="500" font-size="20" text-anchor="middle">25</text></g><g><path d="M188.58579,934.58579c0,-0.78105 0.63316,-1.41421 1.41421,-1.41421c0.78105,0 1.41421,0.63316 1.41421,1.41421c0,0.78105 -0.63316,1.41421 -1.41421,1.41421c-0.78105,0 -1.41421,-0.63316 -1.41421,-1.41421z" fill="#1f95ff"/><text x="190" y="960" fill="#000000" font-family="Inter" font-weight="800" font-size="16" text-anchor="middle">Goa</text><text x="190" y="992" fill="#1f95ff" font-family="Inter" font-weight="500" font-size="20" text-anchor="middle">2</text></g><g><path d="M170.20101,596.20101c0,-10.93468 8.86431,-19.79899 19.79899,-19.79899c10.93468,0 19.79899,8.86431 19.79899,19.79899c0,10.93468 -8.86431,19.79899 -19.79899,19.79899c-10.93468,0 -19.79899,-8.86431 -19.79899,-19.79899z" fill="#1f95ff"/><text x="190" y="640" fill="#000000" font-family="Inter" font-weight="800" font-size="16" text-anchor="middle">Gujarat</text><text x="190" y="672" fill="#1f95ff" font-family="Inter" font-weight="500" font-size="20" text-anchor="middle">392</text></g><g><path d="M447.7065,113.7065c0,-12.31236 9.98114,-22.2935 22.2935,-22.2935c12.31236,0 22.2935,9.98114 22.2935,22.2935c0,12.31236 -9.98114,22.2935 -22.2935,22.2935c-12.31236,0 -22.2935,-9.98114 -22.2935,-22.2935z" fill="#1f95ff"/><text x="470" y="160" fill="#000000" font-family="Inter" font-weight="800" font-size="16" text-anchor="middle">Jammu &amp; Kashmir</text><text x="470" y="192" fill="#1f95ff" font-family="Inter" font-weight="500" font-size="20" text-anchor="middle">497</text></g><g><path d="M320.05013,926.05013c0,-5.49516 4.45471,-9.94987 9.94987,-9.94987c5.49516,0 9.94987,4.45471 9.94987,9.94987c0,5.49516 -4.45471,9.94987 -9.94987,9.94987c-5.49516,0 -9.94987,-4.45471 -9.94987,-9.94987z" fill="#1f95ff"/><text x="330" y="960" fill="#000000" font-family="Inter" font-weight="800" font-size="16" text-anchor="middle">Karnataka</text><text x="330" y="992" fill="#1f95ff" font-family="Inter" font-weight="500" font-size="20" text-anchor="middle">99</text></g><g><path d="M327.55051,1093.55051c0,-1.35282 1.09667,-2.44949 2.44949,-2.44949c1.35282,0 2.44949,1.09667 2.44949,2.44949c0,1.35282 -1.09667,2.44949 -2.44949,2.44949c-1.35282,0 -2.44949,-1.09667 -2.44949,-2.44949z" fill="#1f95ff"/><text x="330" y="1120" fill="#000000" font-family="Inter" font-weight="800" font-size="16" text-anchor="middle">Kerala</text><text x="330" y="1152" fill="#1f95ff" font-family="Inter" font-weight="500" font-size="20" text-anchor="middle">6</text></g><g><path d="M324.52277,610.52277c0,-3.02499 2.45224,-5.47723 5.47723,-5.47723c3.02499,0 5.47723,2.45224 5.47723,5.47723c0,3.02499 -2.45224,5.47723 -5.47723,5.47723c-3.02499,0 -5.47723,-2.45224 -5.47723,-5.47723z" fill="#1f95ff"/><text x="330" y="640" fill="#000000" font-family="Inter" font-weight="800" font-size="16" text-anchor="middle">Madhya Pradesh</text><text x="330" y="672" fill="#1f95ff" font-family="Inter" font-weight="500" font-size="20" text-anchor="middle">30</text></g><g><path d="M315.23518,761.23518c0,-8.15439 6.61044,-14.76482 14.76482,-14.76482c8.15439,0 14.76482,6.61044 14.76482,14.76482c0,8.15439 -6.61044,14.76482 -14.76482,14.76482c-8.15439,0 -14.76482,-6.61044 -14.76482,-14.76482z" fill="#1f95ff"/><text x="330" y="800" fill="#000000" font-family="Inter" font-weight="800" font-size="16" text-anchor="middle">Maharashtra</text><text x="330" y="832" fill="#1f95ff" font-family="Inter" font-weight="500" font-size="20" text-anchor="middle">218</text></g><g><path d="M1022.85857,608.85857c0,-3.9441 3.19733,-7.14143 7.14143,-7.14143c3.9441,0 7.14143,3.19733 7.14143,7.14143c0,3.9441 -3.19733,7.14143 -7.14143,7.14143c-3.9441,0 -7.14143,-3.19733 -7.14143,-7.14143z" fill="#1f95ff"/><text x="1030" y="640" fill="#000000" font-family="Inter" font-weight="800" font-size="16" text-anchor="middle">Manipur</text><text x="1030" y="672" fill="#1f95ff" font-family="Inter" font-weight="500" font-size="20" text-anchor="middle">51</text></g><g><path d="M887.76393,613.76393c0,-1.23495 1.00112,-2.23607 2.23607,-2.23607c1.23495,0 2.23607,1.00112 2.23607,2.23607c0,1.23495 -1.00112,2.23607 -2.23607,2.23607c-1.23495,0 -2.23607,-1.00112 -2.23607,-2.23607z" fill="#1f95ff"/><text x="890" y="640" fill="#000000" font-family="Inter" font-weight="800" font-size="16" text-anchor="middle">Meghalaya</text><text x="890" y="672" fill="#1f95ff" font-family="Inter" font-weight="500" font-size="20" text-anchor="middle">5</text></g><g><path d="M602.85857,768.85857c0,-3.9441 3.19733,-7.14143 7.14143,-7.14143c3.9441,0 7.14143,3.19733 7.14143,7.14143c0,3.9441 -3.19733,7.14143 -7.14143,7.14143c-3.9441,0 -7.14143,-3.19733 -7.14143,-7.14143z" fill="#1f95ff"/><text x="610" y="800" fill="#000000" font-family="Inter" font-weight="800" font-size="16" text-anchor="middle">Orissa</text><text x="610" y="832" fill="#1f95ff" font-family="Inter" font-weight="500" font-size="20" text-anchor="middle">51</text></g><g><path d="M186,292c0,-2.20914 1.79086,-4 4,-4c2.20914,0 4,1.79086 4,4c0,2.20914 -1.79086,4 -4,4c-2.20914,0 -4,-1.79086 -4,-4z" fill="#1f95ff"/><text x="190" y="320" fill="#000000" font-family="Inter" font-weight="800" font-size="16" text-anchor="middle">Punjab</text><text x="190" y="352" fill="#1f95ff" font-family="Inter" font-weight="500" font-size="20" text-anchor="middle">16</text></g><g><path d="M185,451c0,-2.76142 2.23858,-5 5,-5c2.76142,0 5,2.23858 5,5c0,2.76142 -2.23858,5 -5,5c-2.76142,0 -5,-2.23858 -5,-5z" fill="#1f95ff"/><text x="190" y="480" fill="#000000" font-family="Inter" font-weight="800" font-size="16" text-anchor="middle">Rajasthan</text><text x="190" y="512" fill="#1f95ff" font-family="Inter" font-weight="500" font-size="20" text-anchor="middle">25</text></g><g><path d="M432.53001,1058.53001c0,-20.6941 16.77589,-37.46999 37.46999,-37.46999c20.6941,0 37.46999,16.77589 37.46999,37.46999c0,20.6941 -16.77589,37.46999 -37.46999,37.46999c-20.6941,0 -37.46999,-16.77589 -37.46999,-37.46999z" fill="#1f95ff"/><text x="470" y="1120" fill="#000000" font-family="Inter" font-weight="800" font-size="16" text-anchor="middle">Tamil Nadu</text><text x="470" y="1152" fill="#1f95ff" font-family="Inter" font-weight="500" font-size="20" text-anchor="middle">1404</text></g><g><path d="M584.56381,430.56381c0,-14.04802 11.38817,-25.43619 25.43619,-25.43619c14.04802,0 25.43619,11.38817 25.43619,25.43619c0,14.04802 -11.38817,25.43619 -25.43619,25.43619c-14.04802,0 -25.43619,-11.38817 -25.43619,-25.43619z" fill="#1f95ff"/><text x="610" y="480" fill="#000000" font-family="Inter" font-weight="800" font-size="16" text-anchor="middle">Uttar Pradesh</text><text x="610" y="512" fill="#1f95ff" font-family="Inter" font-weight="500" font-size="20" text-anchor="middle">647</text></g><g><path d="M748,614c0,-1.10457 0.89543,-2 2,-2c1.10457,0 2,0.89543 2,2c0,1.10457 -0.89543,2 -2,2c-1.10457,0 -2,-0.89543 -2,-2z" fill="#1f95ff"/><text x="750" y="640" fill="#000000" font-family="Inter" font-weight="800" font-size="16" text-anchor="middle">West Bengal</text><text x="750" y="672" fill="#1f95ff" font-family="Inter" font-weight="500" font-size="20" text-anchor="middle">4</text></g><g><path d="M463,449c0,-3.86599 3.13401,-7 7,-7c3.86599,0 7,3.13401 7,7c0,3.86599 -3.13401,7 -7,7c-3.86599,0 -7,-3.13401 -7,-7z" fill="#1f95ff"/><text x="470" y="480" fill="#000000" font-family="Inter" font-weight="800" font-size="16" text-anchor="middle">Delhi</text><text x="470" y="512" fill="#1f95ff" font-family="Inter" font-weight="500" font-size="20" text-anchor="middle">49</text></g></g></svg>