<svg version="1.1" xmlns="http://www.w3.org/2000/svg" xmlns:xlink="http://www.w3.org/1999/xlink" width="1200" height="1399.99219" viewBox="0,0,1200,1399.99219"><g fill="none" fill-rule="nonzero" stroke="none" stroke-width="1" stroke-linecap="butt" stroke-linejoin="miter" stroke-miterlimit="10" stroke-dasharray="" stroke-dashoffset="0" font-family="none" font-weight="none" font-size="none" text-anchor="none" style="mix-blend-mode: normal"><g><path d="M467.76393,933.76393c0,-1.23495 1.00112,-2.23607 2.23607,-2.23607c1.23495,0 2.23607,1.00112 2.23607,2.23607c0,1.23495 -1.00112,2.23607 -2.23607,2.23607c-1.23495,0 -2.23607,-1.00112 -2.23607,-2.23607z" fill="#1f95ff"/><text x="470" y="960" fill="#000000" font-family="Inter" font-weight="800" font-size="16" text-anchor="middle">Andhra Pradesh</text><text x="470" y="992" fill="#1f95ff" font-family="Inter" font-weight="500" font-size="20" text-anchor="middle">5</text></g><g><path d="M886,452c0,-2.20914 1.79086,-4 4,-4c2.20914,0 4,1.79086 4,4c0,2.20914 -1.79086,4 -4,4c-2.20914,0 -4,-1.79086 -4,-4z" fill="#1f95ff"/><text x="890" y="480" fill="#000000" font-family="Inter" font-weight="800" font-size="16" text-anchor="middle">Assam</text><text x="890" y="512" fill="#1f95ff" font-family="Inter" font-weight="500" font-size="20" text-anchor="middle">16</text></g><g><path d="M746.5359,452.5359c0,-1.91317 1.55093,-3.4641 3.4641,-3.4641c1.91317,0 3.4641,1.55093 3.4641,3.4641c0,1.91317 -1.55093,3.4641 -3.4641,3.4641c-1.91317,0 -3.4641,-1.55093 -3.4641,-3.4641z" fill="#1f95ff"/><text x="750" y="480" fill="#000000" font-family="Inter" font-weight="800" font-size="16" text-anchor="middle">Bihar</text><text x="750" y="512" fill="#1f95ff" font-family="Inter" font-weight="500" font-size="20" text-anchor="middle">12</text></g><g><path d="M468,614c0,-1.10457 0.89543,-2 2,-2c1.10457,0 2,0.89543 2,2c0,1.10457 -0.89543,2 -2,2c-1.10457,0 -2,-0.89543 -2,-2z" fill="#1f95ff"/><text x="470" y="640" fill="#000000" font-family="Inter" font-weight="800" font-size="16" text-anchor="middle">Chhattisgarh</text><text x="470" y="672" fill="#1f95ff" font-family="Inter" font-weight="500" font-size="20" text-anchor="middle">4</text></g><g><path d="M168.7868,594.7868c0,-11.71573 9.49747,-21.2132 21.2132,-21.2132c11.71573,0 21.2132,9.49747 21.2132,21.2132c0,11.71573 -9.49747,21.2132 -21.2132,21.2132c-11.71573,0 -21.2132,-9.49747 -21.2132,-21.2132z" fill="#1f95ff"/><text x="190" y="640" fill="#000000" font-family="Inter" font-weight="800" font-size="16" text-anchor="middle">Gujarat</text><text x="190" y="672" fill="#1f95ff" font-family="Inter" font-weight="500" font-size="20" text-anchor="middle">450</text></g><g><path d="M449.60392,115.60392c0,-11.26444 9.13164,-20.39608 20.39608,-20.39608c11.26444,0 20.39608,9.13164 20.39608,20.39608c0,11.26444 -9.13164,20.39608 -20.39608,20.39608c-11.26444,0 -20.39608,-9.13164 -20.39608,-20.39608z" fill="#1f95ff"/><text x="470" y="160" fill="#000000" font-family="Inter" font-weight="800" font-size="16" text-anchor="middle">Jammu &amp; Kashmir</text><text x="470" y="192" fill="#1f95ff" font-family="Inter" font-weight="500" font-size="20" text-anchor="middle">416</text></g><g><path d="M607,613c0,-1.65685 1.34315,-3 3,-3c1.65685,0 3,1.34315 3,3c0,1.65685 -1.34315,3 -3,3c-1.65685,0 -3,-1.34315 -3,-3z" fill="#1f95ff"/><text x="610" y="640" fill="#000000" font-family="Inter" font-weight="800" font-size="16" text-anchor="middle">Jharkhand</text><text x="610" y="672" fill="#1f95ff" font-family="Inter" font-weight="500" font-size="20" text-anchor="middle">9</text></g><g><path d="M318.95464,924.95464c0,-6.10018 4.94518,-11.04536 11.04536,-11.04536c6.10018,0 11.04536,4.94518 11.04536,11.04536c0,6.10018 -4.94518,11.04536 -11.04536,11.04536c-6.10018,0 -11.04536,-4.94518 -11.04536,-11.04536z" fill="#1f95ff"/><text x="330" y="960" fill="#000000" font-family="Inter" font-weight="800" font-size="16" text-anchor="middle">Karnataka</text><text x="330" y="992" fill="#1f95ff" font-family="Inter" font-weight="500" font-size="20" text-anchor="middle">122</text></g><g><path d="M325.6411,1091.6411c0,-2.40735 1.95155,-4.3589 4.3589,-4.3589c2.40735,0 4.3589,1.95155 4.3589,4.3589c0,2.40735 -1.95155,4.3589 -4.3589,4.3589c-2.40735,0 -4.3589,-1.95155 -4.3589,-4.3589z" fill="#1f95ff"/><text x="330" y="1120" fill="#000000" font-family="Inter" font-weight="800" font-size="16" text-anchor="middle">Kerala</text><text x="330" y="1152" fill="#1f95ff" font-family="Inter" font-weight="500" font-size="20" text-anchor="middle">19</text></g><g><path d="M326,612c0,-2.20914 1.79086,-4 4,-4c2.20914,0 4,1.79086 4,4c0,2.20914 -1.79086,4 -4,4c-2.20914,0 -4,-1.79086 -4,-4z" fill="#1f95ff"/><text x="330" y="640" fill="#000000" font-family="Inter" font-weight="800" font-size="16" text-anchor="middle">Madhya Pradesh</text><text x="330" y="672" fill="#1f95ff" font-family="Inter" font-weight="500" font-size="20" text-anchor="middle">16</text></g><g><path d="M310.89503,756.89503c0,-10.55139 8.55359,-19.10497 19.10497,-19.10497c10.55139,0 19.10497,8.55359 19.10497,19.10497c0,10.55139 -8.55359,19.10497 -19.10497,19.10497c-10.55139,0 -19.10497,-8.55359 -19.10497,-19.10497z" fill="#1f95ff"/><text x="330" y="800" fill="#000000" font-family="Inter" font-weight="800" font-size="16" text-anchor="middle">Maharashtra</text><text x="330" y="832" fill="#1f95ff" font-family="Inter" font-weight="500" font-size="20" text-anchor="middle">365</text></g><g><path d="M1020.20204,606.20204c0,-5.41126 4.3867,-9.79796 9.79796,-9.79796c5.41126,0 9.79796,4.3867 9.79796,9.79796c0,5.41126 -4.3867,9.79796 -9.79796,9.79796c-5.41126,0 -9.79796,-4.3867 -9.79796,-9.79796z" fill="#1f95ff"/><text x="1030" y="640" fill="#000000" font-family="Inter" font-weight="800" font-size="16" text-anchor="middle">Manipur</text><text x="1030" y="672" fill="#1f95ff" font-family="Inter" font-weight="500" font-size="20" text-anchor="middle">96</text></g><g><path d="M887.35425,613.35425c0,-1.46121 1.18454,-2.64575 2.64575,-2.64575c1.46121,0 2.64575,1.18454 2.64575,2.64575c0,1.46121 -1.18454,2.64575 -2.64575,2.64575c-1.46121,0 -2.64575,-1.18454 -2.64575,-2.64575z" fill="#1f95ff"/><text x="890" y="640" fill="#000000" font-family="Inter" font-weight="800" font-size="16" text-anchor="middle">Meghalaya</text><text x="890" y="672" fill="#1f95ff" font-family="Inter" font-weight="500" font-size="20" text-anchor="middle">7</text></g><g><path d="M1022.7889,448.7889c0,-3.98258 3.22852,-7.2111 7.2111,-7.2111c3.98258,0 7.2111,3.22852 7.2111,7.2111c0,3.98258 -3.22852,7.2111 -7.2111,7.2111c-3.98258,0 -7.2111,-3.22852 -7.2111,-7.2111z" fill="#1f95ff"/><text x="1030" y="480" fill="#000000" font-family="Inter" font-weight="800" font-size="16" text-anchor="middle">Nagaland</text><text x="1030" y="512" fill="#1f95ff" font-family="Inter" font-weight="500" font-size="20" text-anchor="middle">52</text></g><g><path d="M603.2918,769.2918c0,-3.70484 3.00337,-6.7082 6.7082,-6.7082c3.70484,0 6.7082,3.00337 6.7082,6.7082c0,3.70484 -3.00337,6.7082 -6.7082,6.7082c-3.70484,0 -6.7082,-3.00337 -6.7082,-6.7082z" fill="#1f95ff"/><text x="610" y="800" fill="#000000" font-family="Inter" font-weight="800" font-size="16" text-anchor="middle">Orissa</text><text x="610" y="832" fill="#1f95ff" font-family="Inter" font-weight="500" font-size="20" text-anchor="middle">45</text></g><g><path d="M186.5359,292.5359c0,-1.91317 1.55093,-3.4641 3.4641,-3.4641c1.91317,0 3.4641,1.55093 3.4641,3.4641c0,1.91317 -1.55093,3.4641 -3.4641,3.4641c-1.91317,0 -3.4641,-1.55093 -3.4641,-3.4641z" fill="#1f95ff"/><text x="190" y="320" fill="#000000" font-family="Inter" font-weight="800" font-size="16" text-anchor="middle">Punjab</text><text x="190" y="352" fill="#1f95ff" font-family="Inter" font-weight="500" font-size="20" text-anchor="middle">12</text></g><g><path d="M183.14435,449.14435c0,-3.78627 3.06938,-6.85565 6.85565,-6.85565c3.78627,0 6.85565,3.06938 6.85565,6.85565c0,3.78627 -3.06938,6.85565 -6.85565,6.85565c-3.78627,0 -6.85565,-3.06938 -6.85565,-6.85565z" fill="#1f95ff"/><text x="190" y="480" fill="#000000" font-family="Inter" font-weight="800" font-size="16" text-anchor="middle">Rajasthan</text><text x="190" y="512" fill="#1f95ff" font-family="Inter" font-weight="500" font-size="20" text-anchor="middle">47</text></g><g><path d="M434.8859,1060.8859c0,-19.39298 15.72112,-35.1141 35.1141,-35.1141c19.39298,0 35.1141,15.72112 35.1141,35.1141c0,19.39298 -15.72112,35.1141 -35.1141,35.1141c-19.39298,0 -35.1141,-15.72112 -35.1141,-35.1141z" fill="#1f95ff"/><text x="470" y="1120" fill="#000000" font-family="Inter" font-weight="800" font-size="16" text-anchor="middle">Tamil Nadu</text><text x="470" y="1152" fill="#1f95ff" font-family="Inter" font-weight="500" font-size="20" text-anchor="middle">1233</text></g><g><path d="M888.58579,774.58579c0,-0.78105 0.63316,-1.41421 1.41421,-1.41421c0.78105,0 1.41421,0.63316 1.41421,1.41421c0,0.78105 -0.63316,1.41421 -1.41421,1.41421c-0.78105,0 -1.41421,-0.63316 -1.41421,-1.41421z" fill="#1f95ff"/><text x="890" y="800" fill="#000000" font-family="Inter" font-weight="800" font-size="16" text-anchor="middle">Tripura</text><text x="890" y="832" fill="#1f95ff" font-family="Inter" font-weight="500" font-size="20" text-anchor="middle">2</text></g><g><path d="M587.41682,433.41682c0,-12.47235 10.11083,-22.58318 22.58318,-22.58318c12.47235,0 22.58318,10.11083 22.58318,22.58318c0,12.47235 -10.11083,22.58318 -22.58318,22.58318c-12.47235,0 -22.58318,-10.11083 -22.58318,-22.58318z" fill="#1f95ff"/><text x="610" y="480" fill="#000000" font-family="Inter" font-weight="800" font-size="16" text-anchor="middle">Uttar Pradesh</text><text x="610" y="512" fill="#1f95ff" font-family="Inter" font-weight="500" font-size="20" text-anchor="middle">510</text></g><g><path d="M745.30958,611.30958c0,-2.59045 2.09997,-4.69042 4.69042,-4.69042c2.59045,0 4.69042,2.09997 4.69042,4.69042c0,2.59045 -2.09997,4.69042 -4.69042,4.69042c-2.59045,0 -4.69042,-2.09997 -4.69042,-4.69042z" fill="#1f95ff"/><text x="750" y="640" fill="#000000" font-family="Inter" font-weight="800" font-size="16" text-anchor="middle">West Bengal</text><text x="750" y="672" fill="#1f95ff" font-family="Inter" font-weight="500" font-size="20" text-anchor="middle">22</text></g><g><path d="M462.92893,448.92893c0,-3.90524 3.16582,-7.07107 7.07107,-7.07107c3.90524,0 7.07107,3.16582 7.07107,7.07107c0,3.90524 -3.16582,7.07107 -7.07107,7.07107c-3.90524,0 -7.07107,-3.16582 -7.07107,-7.07107z" fill="#1f95ff"/><text x="470" y="480" fill="#000000" font-family="Inter" font-weight="800" font-size="16" text-anchor="middle">Delhi</text><text x="470" y="512" fill="#1f95ff" font-family="Inter" font-weight="500" font-size="20" text-anchor="middle">50</text></g></g></svg>