<svg version="1.1" xmlns="http://www.w3.org/2000/svg" xmlns:xlink="http://www.w3.org/1999/xlink" width="1200" height="1399.99219" viewBox="0,0,1200,1399.99219"><g fill="none" fill-rule="nonzero" stroke="none" stroke-width="1" stroke-linecap="butt" stroke-linejoin="miter" stroke-miterlimit="10" stroke-dasharray="" stroke-dashoffset="0" font-family="none" font-weight="none" font-size="none" text-anchor="none" style="mix-blend-mode: normal"><g><path d="M468.58579,934.58579c0,-0.78105 0.63316,-1.41421 1.41421,-1.41421c0.78105,0 1.41421,0.63316 1.41421,1.41421c0,0.78105 -0.63316,1.41421 -1.41421,1.41421c-0.78105,0 -1.41421,-0.63316 -1.41421,-1.41421z" fill="#1f95ff"/><text x="470" y="960" fill="#000000" font-family="Inter" font-weight="800" font-size="16" text-anchor="middle">Andhra Pradesh</text><text x="470" y="992" fill="#1f95ff" font-family="Inter" font-weight="500" font-size="20" text-anchor="middle">2</text></g><g><path d="M885.75736,451.75736c0,-2.34315 1.89949,-4.24264 4.24264,-4.24264c2.34315,0 4.24264,1.89949 4.24264,4.24264c0,2.34315 -1.89949,4.24264 -4.24264,4.24264c-2.34315,0 -4.24264,-1.89949 -4.24264,-4.24264z" fill="#1f95ff"/><text x="890" y="480" fill="#000000" font-family="Inter" font-weight="800" font-size="16" text-anchor="middle">Assam</text><text x="890" y="512" fill="#1f95ff" font-family="Inter" font-weight="500" font-size="20" text-anchor="middle">18</text></g><g><path d="M744.25544,450.25544c0,-3.17263 2.57193,-5.74456 5.74456,-5.74456c3.17263,0 5.74456,2.57193 5.74456,5.74456c0,3.17263 -2.57193,5.74456 -5.74456,5.74456c-3.17263,0 -5.74456,-2.57193 -5.74456,-5.74456z" fill="#1f95ff"/><text x="750" y="480" fill="#000000" font-family="Inter" font-weight="800" font-size="16" text-anchor="middle">Bihar</text><text x="750" y="512" fill="#1f95ff" font-family="Inter" font-weight="500" font-size="20" text-anchor="middle">33</text></g><g><path d="M469,615c0,-0.55228 0.44772,-1 1,-1c0.55228,0 1,0.44772 1,1c0,0.55228 -0.44772,1 -1,1c-0.55228,0 -1,-0.44772 -1,-1z" fill="#1f95ff"/><text x="470" y="640" fill="#000000" font-family="Inter" font-weight="800" font-size="16" text-anchor="middle">Chhattisgarh</text><text x="470" y="672" fill="#1f95ff" font-family="Inter" font-weight="500" font-size="20" text-anchor="middle">1</text></g><g><path d="M165.66895,591.66895c0,-13.43767 10.89338,-24.33105 24.33105,-24.33105c13.43767,0 24.33105,10.89338 24.33105,24.33105c0,13.43767 -10.89338,24.33105 -24.33105,24.33105c-13.43767,0 -24.33105,-10.89338 -24.33105,-24.33105z" fill="#1f95ff"/><text x="190" y="640" fill="#000000" font-family="Inter" font-weight="800" font-size="16" text-anchor="middle">Gujarat</text><text x="190" y="672" fill="#1f95ff" font-family="Inter" font-weight="500" font-size="20" text-anchor="middle">592</text></g><g><path d="M448.92869,114.92869c0,-11.63736 9.43395,-21.07131 21.07131,-21.07131c11.63736,0 21.07131,9.43395 21.07131,21.07131c0,11.63736 -9.43395,21.07131 -21.07131,21.07131c-11.63736,0 -21.07131,-9.43395 -21.07131,-21.07131z" fill="#1f95ff"/><text x="470" y="160" fill="#000000" font-family="Inter" font-weight="800" font-size="16" text-anchor="middle">Jammu &amp; Kashmir</text><text x="470" y="192" fill="#1f95ff" font-family="Inter" font-weight="500" font-size="20" text-anchor="middle">444</text></g><g><path d="M605.75736,611.75736c0,-2.34315 1.89949,-4.24264 4.24264,-4.24264c2.34315,0 4.24264,1.89949 4.24264,4.24264c0,2.34315 -1.89949,4.24264 -4.24264,4.24264c-2.34315,0 -4.24264,-1.89949 -4.24264,-4.24264z" fill="#1f95ff"/><text x="610" y="640" fill="#000000" font-family="Inter" font-weight="800" font-size="16" text-anchor="middle">Jharkhand</text><text x="610" y="672" fill="#1f95ff" font-family="Inter" font-weight="500" font-size="20" text-anchor="middle">18</text></g><g><path d="M318.86447,924.86447c0,-6.14998 4.98555,-11.13553 11.13553,-11.13553c6.14998,0 11.13553,4.98555 11.13553,11.13553c0,6.14998 -4.98555,11.13553 -11.13553,11.13553c-6.14998,0 -11.13553,-4.98555 -11.13553,-11.13553z" fill="#1f95ff"/><text x="330" y="960" fill="#000000" font-family="Inter" font-weight="800" font-size="16" text-anchor="middle">Karnataka</text><text x="330" y="992" fill="#1f95ff" font-family="Inter" font-weight="500" font-size="20" text-anchor="middle">124</text></g><g><path d="M326.5359,1092.5359c0,-1.91317 1.55093,-3.4641 3.4641,-3.4641c1.91317,0 3.4641,1.55093 3.4641,3.4641c0,1.91317 -1.55093,3.4641 -3.4641,3.4641c-1.91317,0 -3.4641,-1.55093 -3.4641,-3.4641z" fill="#1f95ff"/><text x="330" y="1120" fill="#000000" font-family="Inter" font-weight="800" font-size="16" text-anchor="middle">Kerala</text><text x="330" y="1152" fill="#1f95ff" font-family="Inter" font-weight="500" font-size="20" text-anchor="middle">12</text></g><g><path d="M326,612c0,-2.20914 1.79086,-4 4,-4c2.20914,0 4,1.79086 4,4c0,2.20914 -1.79086,4 -4,4c-2.20914,0 -4,-1.79086 -4,-4z" fill="#1f95ff"/><text x="330" y="640" fill="#000000" font-family="Inter" font-weight="800" font-size="16" text-anchor="middle">Madhya Pradesh</text><text x="330" y="672" fill="#1f95ff" font-family="Inter" font-weight="500" font-size="20" text-anchor="middle">16</text></g><g><path d="M312.47858,758.47858c0,-9.67681 7.8446,-17.52142 17.52142,-17.52142c9.67681,0 17.52142,7.8446 17.52142,17.52142c0,9.67681 -7.8446,17.52142 -17.52142,17.52142c-9.67681,0 -17.52142,-7.8446 -17.52142,-17.52142z" fill="#1f95ff"/><text x="330" y="800" fill="#000000" font-family="Inter" font-weight="800" font-size="16" text-anchor="middle">Maharashtra</text><text x="330" y="832" fill="#1f95ff" font-family="Inter" font-weight="500" font-size="20" text-anchor="middle">307</text></g><g><path d="M1019.09129,605.09129c0,-6.02472 4.884,-10.90871 10.90871,-10.90871c6.02472,0 10.90871,4.884 10.90871,10.90871c0,6.02472 -4.884,10.90871 -10.90871,10.90871c-6.02472,0 -10.90871,-4.884 -10.90871,-10.90871z" fill="#1f95ff"/><text x="1030" y="640" fill="#000000" font-family="Inter" font-weight="800" font-size="16" text-anchor="middle">Manipur</text><text x="1030" y="672" fill="#1f95ff" font-family="Inter" font-weight="500" font-size="20" text-anchor="middle">119</text></g><g><path d="M887.55051,613.55051c0,-1.35282 1.09667,-2.44949 2.44949,-2.44949c1.35282,0 2.44949,1.09667 2.44949,2.44949c0,1.35282 -1.09667,2.44949 -2.44949,2.44949c-1.35282,0 -2.44949,-1.09667 -2.44949,-2.44949z" fill="#1f95ff"/><text x="890" y="640" fill="#000000" font-family="Inter" font-weight="800" font-size="16" text-anchor="middle">Meghalaya</text><text x="890" y="672" fill="#1f95ff" font-family="Inter" font-weight="500" font-size="20" text-anchor="middle">6</text></g><g><path d="M1022.45017,448.45017c0,-4.16966 3.38018,-7.54983 7.54983,-7.54983c4.16966,0 7.54983,3.38018 7.54983,7.54983c0,4.16966 -3.38018,7.54983 -7.54983,7.54983c-4.16966,0 -7.54983,-3.38018 -7.54983,-7.54983z" fill="#1f95ff"/><text x="1030" y="480" fill="#000000" font-family="Inter" font-weight="800" font-size="16" text-anchor="middle">Nagaland</text><text x="1030" y="512" fill="#1f95ff" font-family="Inter" font-weight="500" font-size="20" text-anchor="middle">57</text></g><g><path d="M186.5359,292.5359c0,-1.91317 1.55093,-3.4641 3.4641,-3.4641c1.91317,0 3.4641,1.55093 3.4641,3.4641c0,1.91317 -1.55093,3.4641 -3.4641,3.4641c-1.91317,0 -3.4641,-1.55093 -3.4641,-3.4641z" fill="#1f95ff"/><text x="190" y="320" fill="#000000" font-family="Inter" font-weight="800" font-size="16" text-anchor="middle">Punjab</text><text x="190" y="352" fill="#1f95ff" font-family="Inter" font-weight="500" font-size="20" text-anchor="middle">12</text></g><g><path d="M183.83559,449.83559c0,-3.40451 2.7599,-6.16441 6.16441,-6.16441c3.40451,0 6.16441,2.7599 6.16441,6.16441c0,3.40451 -2.7599,6.16441 -6.16441,6.16441c-3.40451,0 -6.16441,-2.7599 -6.16441,-6.16441z" fill="#1f95ff"/><text x="190" y="480" fill="#000000" font-family="Inter" font-weight="800" font-size="16" text-anchor="middle">Rajasthan</text><text x="190" y="512" fill="#1f95ff" font-family="Inter" font-weight="500" font-size="20" text-anchor="middle">38</text></g><g><path d="M426.41101,1052.41101c0,-24.07353 19.51546,-43.58899 43.58899,-43.58899c24.07353,0 43.58899,19.51546 43.58899,43.58899c0,24.07353 -19.51546,43.58899 -43.58899,43.58899c-24.07353,0 -43.58899,-19.51546 -43.58899,-43.58899z" fill="#1f95ff"/><text x="470" y="1120" fill="#000000" font-family="Inter" font-weight="800" font-size="16" text-anchor="middle">Tamil Nadu</text><text x="470" y="1152" fill="#1f95ff" font-family="Inter" font-weight="500" font-size="20" text-anchor="middle">1900</text></g><g><path d="M888.58579,774.58579c0,-0.78105 0.63316,-1.41421 1.41421,-1.41421c0.78105,0 1.41421,0.63316 1.41421,1.41421c0,0.78105 -0.63316,1.41421 -1.41421,1.41421c-0.78105,0 -1.41421,-0.63316 -1.41421,-1.41421z" fill="#1f95ff"/><text x="890" y="800" fill="#000000" font-family="Inter" font-weight="800" font-size="16" text-anchor="middle">Tripura</text><text x="890" y="832" fill="#1f95ff" font-family="Inter" font-weight="500" font-size="20" text-anchor="middle">2</text></g><g><path d="M577.16709,423.16709c0,-18.13312 14.69979,-32.83291 32.83291,-32.83291c18.13312,0 32.83291,14.69979 32.83291,32.83291c0,18.13312 -14.69979,32.83291 -32.83291,32.83291c-18.13312,0 -32.83291,-14.69979 -32.83291,-32.83291z" fill="#1f95ff"/><text x="610" y="480" fill="#000000" font-family="Inter" font-weight="800" font-size="16" text-anchor="middle">Uttar Pradesh</text><text x="610" y="512" fill="#1f95ff" font-family="Inter" font-weight="500" font-size="20" text-anchor="middle">1078</text></g><g><path d="M749,615c0,-0.55228 0.44772,-1 1,-1c0.55228,0 1,0.44772 1,1c0,0.55228 -0.44772,1 -1,1c-0.55228,0 -1,-0.44772 -1,-1z" fill="#1f95ff"/><text x="750" y="640" fill="#000000" font-family="Inter" font-weight="800" font-size="16" text-anchor="middle">West Bengal</text><text x="750" y="672" fill="#1f95ff" font-family="Inter" font-weight="500" font-size="20" text-anchor="middle">1</text></g><g><path d="M462.7889,448.7889c0,-3.98258 3.22852,-7.2111 7.2111,-7.2111c3.98258,0 7.2111,3.22852 7.2111,7.2111c0,3.98258 -3.22852,7.2111 -7.2111,7.2111c-3.98258,0 -7.2111,-3.22852 -7.2111,-7.2111z" fill="#1f95ff"/><text x="470" y="480" fill="#000000" font-family="Inter" font-weight="800" font-size="16" text-anchor="middle">Delhi</text><text x="470" y="512" fill="#1f95ff" font-family="Inter" font-weight="500" font-size="20" text-anchor="middle">52</text></g></g></svg>