<svg version="1.1" xmlns="http://www.w3.org/2000/svg" xmlns:xlink="http://www.w3.org/1999/xlink" width="1200" height="1399.99219" viewBox="0,0,1200,1399.99219"><g fill="none" fill-rule="nonzero" stroke="none" stroke-width="1" stroke-linecap="butt" stroke-linejoin="miter" stroke-miterlimit="10" stroke-dasharray="" stroke-dashoffset="0" font-family="none" font-weight="none" font-size="none" text-anchor="none" style="mix-blend-mode: normal"><g><path d="M465.75736,931.75736c0,-2.34315 1.89949,-4.24264 4.24264,-4.24264c2.34315,0 4.24264,1.89949 4.24264,4.24264c0,2.34315 -1.89949,4.24264 -4.24264,4.24264c-2.34315,0 -4.24264,-1.89949 -4.24264,-4.24264z" fill="#1f95ff"/><text x="470" y="960" fill="#000000" font-family="Inter" font-weight="800" font-size="16" text-anchor="middle">Andhra Pradesh</text><text x="470" y="992" fill="#1f95ff" font-family="Inter" font-weight="500" font-size="20" text-anchor="middle">18</text></g><g><path d="M884.43224,450.43224c0,-3.07499 2.49277,-5.56776 5.56776,-5.56776c3.07499,0 5.56776,2.49277 5.56776,5.56776c0,3.07499 -2.49277,5.56776 -5.56776,5.56776c-3.07499,0 -5.56776,-2.49277 -5.56776,-5.56776z" fill="#1f95ff"/><text x="890" y="480" fill="#000000" font-family="Inter" font-weight="800" font-size="16" text-anchor="middle">Assam</text><text x="890" y="512" fill="#1f95ff" font-family="Inter" font-weight="500" font-size="20" text-anchor="middle">31</text></g><g><path d="M745.30958,451.30958c0,-2.59045 2.09997,-4.69042 4.69042,-4.69042c2.59045,0 4.69042,2.09997 4.69042,4.69042c0,2.59045 -2.09997,4.69042 -4.69042,4.69042c-2.59045,0 -4.69042,-2.09997 -4.69042,-4.69042z" fill="#1f95ff"/><text x="750" y="480" fill="#000000" font-family="Inter" font-weight="800" font-size="16" text-anchor="middle">Bihar</text><text x="750" y="512" fill="#1f95ff" font-family="Inter" font-weight="500" font-size="20" text-anchor="middle">22</text></g><g><path d="M468.26795,614.26795c0,-0.95659 0.77547,-1.73205 1.73205,-1.73205c0.95659,0 1.73205,0.77547 1.73205,1.73205c0,0.95659 -0.77547,1.73205 -1.73205,1.73205c-0.95659,0 -1.73205,-0.77547 -1.73205,-1.73205z" fill="#1f95ff"/><text x="470" y="640" fill="#000000" font-family="Inter" font-weight="800" font-size="16" text-anchor="middle">Chhattisgarh</text><text x="470" y="672" fill="#1f95ff" font-family="Inter" font-weight="500" font-size="20" text-anchor="middle">3</text></g><g><path d="M189,935c0,-0.55228 0.44772,-1 1,-1c0.55228,0 1,0.44772 1,1c0,0.55228 -0.44772,1 -1,1c-0.55228,0 -1,-0.44772 -1,-1z" fill="#1f95ff"/><text x="190" y="960" fill="#000000" font-family="Inter" font-weight="800" font-size="16" text-anchor="middle">Goa</text><text x="190" y="992" fill="#1f95ff" font-family="Inter" font-weight="500" font-size="20" text-anchor="middle">1</text></g><g><path d="M170.58351,596.58351c0,-10.72343 8.69306,-19.41649 19.41649,-19.41649c10.72343,0 19.41649,8.69306 19.41649,19.41649c0,10.72343 -8.69306,19.41649 -19.41649,19.41649c-10.72343,0 -19.41649,-8.69306 -19.41649,-19.41649z" fill="#1f95ff"/><text x="190" y="640" fill="#000000" font-family="Inter" font-weight="800" font-size="16" text-anchor="middle">Gujarat</text><text x="190" y="672" fill="#1f95ff" font-family="Inter" font-weight="500" font-size="20" text-anchor="middle">377</text></g><g><path d="M450.07514,116.07514c0,-11.0042 8.92066,-19.92486 19.92486,-19.92486c11.0042,0 19.92486,8.92066 19.92486,19.92486c0,11.0042 -8.92066,19.92486 -19.92486,19.92486c-11.0042,0 -19.92486,-8.92066 -19.92486,-19.92486z" fill="#1f95ff"/><text x="470" y="160" fill="#000000" font-family="Inter" font-weight="800" font-size="16" text-anchor="middle">Jammu &amp; Kashmir</text><text x="470" y="192" fill="#1f95ff" font-family="Inter" font-weight="500" font-size="20" text-anchor="middle">397</text></g><g><path d="M606.39445,612.39445c0,-1.99129 1.61426,-3.60555 3.60555,-3.60555c1.99129,0 3.60555,1.61426 3.60555,3.60555c0,1.99129 -1.61426,3.60555 -3.60555,3.60555c-1.99129,0 -3.60555,-1.61426 -3.60555,-3.60555z" fill="#1f95ff"/><text x="610" y="640" fill="#000000" font-family="Inter" font-weight="800" font-size="16" text-anchor="middle">Jharkhand</text><text x="610" y="672" fill="#1f95ff" font-family="Inter" font-weight="500" font-size="20" text-anchor="middle">13</text></g><g><path d="M318.46744,924.46744c0,-6.36926 5.1633,-11.53256 11.53256,-11.53256c6.36926,0 11.53256,5.1633 11.53256,11.53256c0,6.36926 -5.1633,11.53256 -11.53256,11.53256c-6.36926,0 -11.53256,-5.1633 -11.53256,-11.53256z" fill="#1f95ff"/><text x="330" y="960" fill="#000000" font-family="Inter" font-weight="800" font-size="16" text-anchor="middle">Karnataka</text><text x="330" y="992" fill="#1f95ff" font-family="Inter" font-weight="500" font-size="20" text-anchor="middle">133</text></g><g><path d="M327.17157,1093.17157c0,-1.5621 1.26633,-2.82843 2.82843,-2.82843c1.5621,0 2.82843,1.26633 2.82843,2.82843c0,1.5621 -1.26633,2.82843 -2.82843,2.82843c-1.5621,0 -2.82843,-1.26633 -2.82843,-2.82843z" fill="#1f95ff"/><text x="330" y="1120" fill="#000000" font-family="Inter" font-weight="800" font-size="16" text-anchor="middle">Kerala</text><text x="330" y="1152" fill="#1f95ff" font-family="Inter" font-weight="500" font-size="20" text-anchor="middle">8</text></g><g><path d="M326.39445,612.39445c0,-1.99129 1.61426,-3.60555 3.60555,-3.60555c1.99129,0 3.60555,1.61426 3.60555,3.60555c0,1.99129 -1.61426,3.60555 -3.60555,3.60555c-1.99129,0 -3.60555,-1.61426 -3.60555,-3.60555z" fill="#1f95ff"/><text x="330" y="640" fill="#000000" font-family="Inter" font-weight="800" font-size="16" text-anchor="middle">Madhya Pradesh</text><text x="330" y="672" fill="#1f95ff" font-family="Inter" font-weight="500" font-size="20" text-anchor="middle">13</text></g><g><path d="M316.25227,762.25227c0,-7.59266 6.15507,-13.74773 13.74773,-13.74773c7.59266,0 13.74773,6.15507 13.74773,13.74773c0,7.59266 -6.15507,13.74773 -13.74773,13.74773c-7.59266,0 -13.74773,-6.15507 -13.74773,-13.74773z" fill="#1f95ff"/><text x="330" y="800" fill="#000000" font-family="Inter" font-weight="800" font-size="16" text-anchor="middle">Maharashtra</text><text x="330" y="832" fill="#1f95ff" font-family="Inter" font-weight="500" font-size="20" text-anchor="middle">189</text></g><g><path d="M1018.25266,604.25266c0,-6.48788 5.25946,-11.74734 11.74734,-11.74734c6.48788,0 11.74734,5.25946 11.74734,11.74734c0,6.48788 -5.25946,11.74734 -11.74734,11.74734c-6.48788,0 -11.74734,-5.25946 -11.74734,-11.74734z" fill="#1f95ff"/><text x="1030" y="640" fill="#000000" font-family="Inter" font-weight="800" font-size="16" text-anchor="middle">Manipur</text><text x="1030" y="672" fill="#1f95ff" font-family="Inter" font-weight="500" font-size="20" text-anchor="middle">138</text></g><g><path d="M887.17157,613.17157c0,-1.5621 1.26633,-2.82843 2.82843,-2.82843c1.5621,0 2.82843,1.26633 2.82843,2.82843c0,1.5621 -1.26633,2.82843 -2.82843,2.82843c-1.5621,0 -2.82843,-1.26633 -2.82843,-2.82843z" fill="#1f95ff"/><text x="890" y="640" fill="#000000" font-family="Inter" font-weight="800" font-size="16" text-anchor="middle">Meghalaya</text><text x="890" y="672" fill="#1f95ff" font-family="Inter" font-weight="500" font-size="20" text-anchor="middle">8</text></g><g><path d="M1021.51472,447.51472c0,-4.68629 3.79899,-8.48528 8.48528,-8.48528c4.68629,0 8.48528,3.79899 8.48528,8.48528c0,4.68629 -3.79899,8.48528 -8.48528,8.48528c-4.68629,0 -8.48528,-3.79899 -8.48528,-8.48528z" fill="#1f95ff"/><text x="1030" y="480" fill="#000000" font-family="Inter" font-weight="800" font-size="16" text-anchor="middle">Nagaland</text><text x="1030" y="512" fill="#1f95ff" font-family="Inter" font-weight="500" font-size="20" text-anchor="middle">72</text></g><g><path d="M188.58579,294.58579c0,-0.78105 0.63316,-1.41421 1.41421,-1.41421c0.78105,0 1.41421,0.63316 1.41421,1.41421c0,0.78105 -0.63316,1.41421 -1.41421,1.41421c-0.78105,0 -1.41421,-0.63316 -1.41421,-1.41421z" fill="#1f95ff"/><text x="190" y="320" fill="#000000" font-family="Inter" font-weight="800" font-size="16" text-anchor="middle">Punjab</text><text x="190" y="352" fill="#1f95ff" font-family="Inter" font-weight="500" font-size="20" text-anchor="middle">2</text></g><g><path d="M184.34315,450.34315c0,-3.12419 2.53266,-5.65685 5.65685,-5.65685c3.12419,0 5.65685,2.53266 5.65685,5.65685c0,3.12419 -2.53266,5.65685 -5.65685,5.65685c-3.12419,0 -5.65685,-2.53266 -5.65685,-5.65685z" fill="#1f95ff"/><text x="190" y="480" fill="#000000" font-family="Inter" font-weight="800" font-size="16" text-anchor="middle">Rajasthan</text><text x="190" y="512" fill="#1f95ff" font-family="Inter" font-weight="500" font-size="20" text-anchor="middle">32</text></g><g><path d="M437.07584,1063.07584c0,-18.18351 14.74065,-32.92416 32.92416,-32.92416c18.18351,0 32.92416,14.74065 32.92416,32.92416c0,18.18351 -14.74065,32.92416 -32.92416,32.92416c-18.18351,0 -32.92416,-14.74065 -32.92416,-32.92416z" fill="#1f95ff"/><text x="470" y="1120" fill="#000000" font-family="Inter" font-weight="800" font-size="16" text-anchor="middle">Tamil Nadu</text><text x="470" y="1152" fill="#1f95ff" font-family="Inter" font-weight="500" font-size="20" text-anchor="middle">1084</text></g><g><path d="M888.58579,774.58579c0,-0.78105 0.63316,-1.41421 1.41421,-1.41421c0.78105,0 1.41421,0.63316 1.41421,1.41421c0,0.78105 -0.63316,1.41421 -1.41421,1.41421c-0.78105,0 -1.41421,-0.63316 -1.41421,-1.41421z" fill="#1f95ff"/><text x="890" y="800" fill="#000000" font-family="Inter" font-weight="800" font-size="16" text-anchor="middle">Tripura</text><text x="890" y="832" fill="#1f95ff" font-family="Inter" font-weight="500" font-size="20" text-anchor="middle">2</text></g><g><path d="M572.35694,418.35694c0,-20.78969 16.85337,-37.64306 37.64306,-37.64306c20.78969,0 37.64306,16.85337 37.64306,37.64306c0,20.78969 -16.85337,37.64306 -37.64306,37.64306c-20.78969,0 -37.64306,-16.85337 -37.64306,-37.64306z" fill="#1f95ff"/><text x="610" y="480" fill="#000000" font-family="Inter" font-weight="800" font-size="16" text-anchor="middle">Uttar Pradesh</text><text x="610" y="512" fill="#1f95ff" font-family="Inter" font-weight="500" font-size="20" text-anchor="middle">1417</text></g><g><path d="M607.76393,293.76393c0,-1.23495 1.00112,-2.23607 2.23607,-2.23607c1.23495,0 2.23607,1.00112 2.23607,2.23607c0,1.23495 -1.00112,2.23607 -2.23607,2.23607c-1.23495,0 -2.23607,-1.00112 -2.23607,-2.23607z" fill="#1f95ff"/><text x="610" y="320" fill="#000000" font-family="Inter" font-weight="800" font-size="16" text-anchor="middle">Uttaranchal</text><text x="610" y="352" fill="#1f95ff" font-family="Inter" font-weight="500" font-size="20" text-anchor="middle">5</text></g><g><path d="M748.26795,614.26795c0,-0.95659 0.77547,-1.73205 1.73205,-1.73205c0.95659,0 1.73205,0.77547 1.73205,1.73205c0,0.95659 -0.77547,1.73205 -1.73205,1.73205c-0.95659,0 -1.73205,-0.77547 -1.73205,-1.73205z" fill="#1f95ff"/><text x="750" y="640" fill="#000000" font-family="Inter" font-weight="800" font-size="16" text-anchor="middle">West Bengal</text><text x="750" y="672" fill="#1f95ff" font-family="Inter" font-weight="500" font-size="20" text-anchor="middle">3</text></g><g><path d="M463.67544,449.67544c0,-3.49296 2.8316,-6.32456 6.32456,-6.32456c3.49296,0 6.32456,2.8316 6.32456,6.32456c0,3.49296 -2.8316,6.32456 -6.32456,6.32456c-3.49296,0 -6.32456,-2.8316 -6.32456,-6.32456z" fill="#1f95ff"/><text x="470" y="480" fill="#000000" font-family="Inter" font-weight="800" font-size="16" text-anchor="middle">Delhi</text><text x="470" y="512" fill="#1f95ff" font-family="Inter" font-weight="500" font-size="20" text-anchor="middle">40</text></g></g></svg>