<svg version="1.1" xmlns="http://www.w3.org/2000/svg" xmlns:xlink="http://www.w3.org/1999/xlink" width="1200" height="1399.99219" viewBox="0,0,1200,1399.99219"><g fill="none" fill-rule="nonzero" stroke="none" stroke-width="1" stroke-linecap="butt" stroke-linejoin="miter" stroke-miterlimit="10" stroke-dasharray="" stroke-dashoffset="0" font-family="none" font-weight="none" font-size="none" text-anchor="none" style="mix-blend-mode: normal"><g><path d="M463.83559,929.83559c0,-3.40451 2.7599,-6.16441 6.16441,-6.16441c3.40451,0 6.16441,2.7599 6.16441,6.16441c0,3.40451 -2.7599,6.16441 -6.16441,6.16441c-3.40451,0 -6.16441,-2.7599 -6.16441,-6.16441z" fill="#1f95ff"/><text x="470" y="960" fill="#000000" font-family="Inter" font-weight="800" font-size="16" text-anchor="middle">Andhra Pradesh</text><text x="470" y="992" fill="#1f95ff" font-family="Inter" font-weight="500" font-size="20" text-anchor="middle">38</text></g><g><path d="M874.03128,440.03128c0,-8.81928 7.14944,-15.96872 15.96872,-15.96872c8.81928,0 15.96872,7.14944 15.96872,15.96872c0,8.81928 -7.14944,15.96872 -15.96872,15.96872c-8.81928,0 -15.96872,-7.14944 -15.96872,-15.96872z" fill="#1f95ff"/><text x="890" y="480" fill="#000000" font-family="Inter" font-weight="800" font-size="16" text-anchor="middle">Assam</text><text x="890" y="512" fill="#1f95ff" font-family="Inter" font-weight="500" font-size="20" text-anchor="middle">255</text></g><g><path d="M741.93774,447.93774c0,-4.45266 3.6096,-8.06226 8.06226,-8.06226c4.45266,0 8.06226,3.6096 8.06226,8.06226c0,4.45266 -3.6096,8.06226 -8.06226,8.06226c-4.45266,0 -8.06226,-3.6096 -8.06226,-8.06226z" fill="#1f95ff"/><text x="750" y="480" fill="#000000" font-family="Inter" font-weight="800" font-size="16" text-anchor="middle">Bihar</text><text x="750" y="512" fill="#1f95ff" font-family="Inter" font-weight="500" font-size="20" text-anchor="middle">65</text></g><g><path d="M167.93192,593.93192c0,-12.18786 9.88021,-22.06808 22.06808,-22.06808c12.18786,0 22.06808,9.88021 22.06808,22.06808c0,12.18786 -9.88021,22.06808 -22.06808,22.06808c-12.18786,0 -22.06808,-9.88021 -22.06808,-22.06808z" fill="#1f95ff"/><text x="190" y="640" fill="#000000" font-family="Inter" font-weight="800" font-size="16" text-anchor="middle">Gujarat</text><text x="190" y="672" fill="#1f95ff" font-family="Inter" font-weight="500" font-size="20" text-anchor="middle">487</text></g><g><path d="M448.76324,114.76324c0,-11.72874 9.50802,-21.23676 21.23676,-21.23676c11.72874,0 21.23676,9.50802 21.23676,21.23676c0,11.72874 -9.50802,21.23676 -21.23676,21.23676c-11.72874,0 -21.23676,-9.50802 -21.23676,-21.23676z" fill="#1f95ff"/><text x="470" y="160" fill="#000000" font-family="Inter" font-weight="800" font-size="16" text-anchor="middle">Jammu &amp; Kashmir</text><text x="470" y="192" fill="#1f95ff" font-family="Inter" font-weight="500" font-size="20" text-anchor="middle">451</text></g><g><path d="M606.83772,612.83772c0,-1.74648 1.4158,-3.16228 3.16228,-3.16228c1.74648,0 3.16228,1.4158 3.16228,3.16228c0,1.74648 -1.4158,3.16228 -3.16228,3.16228c-1.74648,0 -3.16228,-1.4158 -3.16228,-3.16228z" fill="#1f95ff"/><text x="610" y="640" fill="#000000" font-family="Inter" font-weight="800" font-size="16" text-anchor="middle">Jharkhand</text><text x="610" y="672" fill="#1f95ff" font-family="Inter" font-weight="500" font-size="20" text-anchor="middle">10</text></g><g><path d="M318.95464,924.95464c0,-6.10018 4.94518,-11.04536 11.04536,-11.04536c6.10018,0 11.04536,4.94518 11.04536,11.04536c0,6.10018 -4.94518,11.04536 -11.04536,11.04536c-6.10018,0 -11.04536,-4.94518 -11.04536,-11.04536z" fill="#1f95ff"/><text x="330" y="960" fill="#000000" font-family="Inter" font-weight="800" font-size="16" text-anchor="middle">Karnataka</text><text x="330" y="992" fill="#1f95ff" font-family="Inter" font-weight="500" font-size="20" text-anchor="middle">122</text></g><g><path d="M327.17157,1093.17157c0,-1.5621 1.26633,-2.82843 2.82843,-2.82843c1.5621,0 2.82843,1.26633 2.82843,2.82843c0,1.5621 -1.26633,2.82843 -2.82843,2.82843c-1.5621,0 -2.82843,-1.26633 -2.82843,-2.82843z" fill="#1f95ff"/><text x="330" y="1120" fill="#000000" font-family="Inter" font-weight="800" font-size="16" text-anchor="middle">Kerala</text><text x="330" y="1152" fill="#1f95ff" font-family="Inter" font-weight="500" font-size="20" text-anchor="middle">8</text></g><g><path d="M327.76393,613.76393c0,-1.23495 1.00112,-2.23607 2.23607,-2.23607c1.23495,0 2.23607,1.00112 2.23607,2.23607c0,1.23495 -1.00112,2.23607 -2.23607,2.23607c-1.23495,0 -2.23607,-1.00112 -2.23607,-2.23607z" fill="#1f95ff"/><text x="330" y="640" fill="#000000" font-family="Inter" font-weight="800" font-size="16" text-anchor="middle">Madhya Pradesh</text><text x="330" y="672" fill="#1f95ff" font-family="Inter" font-weight="500" font-size="20" text-anchor="middle">5</text></g><g><path d="M316.9616,762.9616c0,-7.20091 5.83749,-13.0384 13.0384,-13.0384c7.20091,0 13.0384,5.83749 13.0384,13.0384c0,7.20091 -5.83749,13.0384 -13.0384,13.0384c-7.20091,0 -13.0384,-5.83749 -13.0384,-13.0384z" fill="#1f95ff"/><text x="330" y="800" fill="#000000" font-family="Inter" font-weight="800" font-size="16" text-anchor="middle">Maharashtra</text><text x="330" y="832" fill="#1f95ff" font-family="Inter" font-weight="500" font-size="20" text-anchor="middle">170</text></g><g><path d="M1021.39767,607.39767c0,-4.75093 3.85139,-8.60233 8.60233,-8.60233c4.75093,0 8.60233,3.85139 8.60233,8.60233c0,4.75093 -3.85139,8.60233 -8.60233,8.60233c-4.75093,0 -8.60233,-3.85139 -8.60233,-8.60233z" fill="#1f95ff"/><text x="1030" y="640" fill="#000000" font-family="Inter" font-weight="800" font-size="16" text-anchor="middle">Manipur</text><text x="1030" y="672" fill="#1f95ff" font-family="Inter" font-weight="500" font-size="20" text-anchor="middle">74</text></g><g><path d="M885.30958,611.30958c0,-2.59045 2.09997,-4.69042 4.69042,-4.69042c2.59045,0 4.69042,2.09997 4.69042,4.69042c0,2.59045 -2.09997,4.69042 -4.69042,4.69042c-2.59045,0 -4.69042,-2.09997 -4.69042,-4.69042z" fill="#1f95ff"/><text x="890" y="640" fill="#000000" font-family="Inter" font-weight="800" font-size="16" text-anchor="middle">Meghalaya</text><text x="890" y="672" fill="#1f95ff" font-family="Inter" font-weight="500" font-size="20" text-anchor="middle">22</text></g><g><path d="M1023.83559,449.83559c0,-3.40451 2.7599,-6.16441 6.16441,-6.16441c3.40451,0 6.16441,2.7599 6.16441,6.16441c0,3.40451 -2.7599,6.16441 -6.16441,6.16441c-3.40451,0 -6.16441,-2.7599 -6.16441,-6.16441z" fill="#1f95ff"/><text x="1030" y="480" fill="#000000" font-family="Inter" font-weight="800" font-size="16" text-anchor="middle">Nagaland</text><text x="1030" y="512" fill="#1f95ff" font-family="Inter" font-weight="500" font-size="20" text-anchor="middle">38</text></g><g><path d="M607,773c0,-1.65685 1.34315,-3 3,-3c1.65685,0 3,1.34315 3,3c0,1.65685 -1.34315,3 -3,3c-1.65685,0 -3,-1.34315 -3,-3z" fill="#1f95ff"/><text x="610" y="800" fill="#000000" font-family="Inter" font-weight="800" font-size="16" text-anchor="middle">Orissa</text><text x="610" y="832" fill="#1f95ff" font-family="Inter" font-weight="500" font-size="20" text-anchor="middle">9</text></g><g><path d="M185.20417,291.20417c0,-2.64866 2.14717,-4.79583 4.79583,-4.79583c2.64866,0 4.79583,2.14717 4.79583,4.79583c0,2.64866 -2.14717,4.79583 -4.79583,4.79583c-2.64866,0 -4.79583,-2.14717 -4.79583,-4.79583z" fill="#1f95ff"/><text x="190" y="320" fill="#000000" font-family="Inter" font-weight="800" font-size="16" text-anchor="middle">Punjab</text><text x="190" y="352" fill="#1f95ff" font-family="Inter" font-weight="500" font-size="20" text-anchor="middle">23</text></g><g><path d="M184.61484,450.61484c0,-2.97414 2.41102,-5.38516 5.38516,-5.38516c2.97414,0 5.38516,2.41102 5.38516,5.38516c0,2.97414 -2.41102,5.38516 -5.38516,5.38516c-2.97414,0 -5.38516,-2.41102 -5.38516,-5.38516z" fill="#1f95ff"/><text x="190" y="480" fill="#000000" font-family="Inter" font-weight="800" font-size="16" text-anchor="middle">Rajasthan</text><text x="190" y="512" fill="#1f95ff" font-family="Inter" font-weight="500" font-size="20" text-anchor="middle">29</text></g><g><path d="M445.26137,1071.26137c0,-13.66277 11.07586,-24.73863 24.73863,-24.73863c13.66277,0 24.73863,11.07586 24.73863,24.73863c0,13.66277 -11.07586,24.73863 -24.73863,24.73863c-13.66277,0 -24.73863,-11.07586 -24.73863,-24.73863z" fill="#1f95ff"/><text x="470" y="1120" fill="#000000" font-family="Inter" font-weight="800" font-size="16" text-anchor="middle">Tamil Nadu</text><text x="470" y="1152" fill="#1f95ff" font-family="Inter" font-weight="500" font-size="20" text-anchor="middle">612</text></g><g><path d="M564.68996,410.68996c0,-25.02405 20.286,-45.31004 45.31004,-45.31004c25.02405,0 45.31004,20.286 45.31004,45.31004c0,25.02405 -20.286,45.31004 -45.31004,45.31004c-25.02405,0 -45.31004,-20.286 -45.31004,-45.31004z" fill="#1f95ff"/><text x="610" y="480" fill="#000000" font-family="Inter" font-weight="800" font-size="16" text-anchor="middle">Uttar Pradesh</text><text x="610" y="512" fill="#1f95ff" font-family="Inter" font-weight="500" font-size="20" text-anchor="middle">2053</text></g><g><path d="M607.76393,293.76393c0,-1.23495 1.00112,-2.23607 2.23607,-2.23607c1.23495,0 2.23607,1.00112 2.23607,2.23607c0,1.23495 -1.00112,2.23607 -2.23607,2.23607c-1.23495,0 -2.23607,-1.00112 -2.23607,-2.23607z" fill="#1f95ff"/><text x="610" y="320" fill="#000000" font-family="Inter" font-weight="800" font-size="16" text-anchor="middle">Uttaranchal</text><text x="610" y="352" fill="#1f95ff" font-family="Inter" font-weight="500" font-size="20" text-anchor="middle">5</text></g><g><path d="M466.12702,452.12702c0,-2.13899 1.73399,-3.87298 3.87298,-3.87298c2.13899,0 3.87298,1.73399 3.87298,3.87298c0,2.13899 -1.73399,3.87298 -3.87298,3.87298c-2.13899,0 -3.87298,-1.73399 -3.87298,-3.87298z" fill="#1f95ff"/><text x="470" y="480" fill="#000000" font-family="Inter" font-weight="800" font-size="16" text-anchor="middle">Delhi</text><text x="470" y="512" fill="#1f95ff" font-family="Inter" font-weight="500" font-size="20" text-anchor="middle">15</text></g></g></svg>