<svg version="1.1" xmlns="http://www.w3.org/2000/svg" xmlns:xlink="http://www.w3.org/1999/xlink" width="1200" height="1399.99219" viewBox="0,0,1200,1399.99219"><g fill="none" fill-rule="nonzero" stroke="none" stroke-width="1" stroke-linecap="butt" stroke-linejoin="miter" stroke-miterlimit="10" stroke-dasharray="" stroke-dashoffset="0" font-family="none" font-weight="none" font-size="none" text-anchor="none" style="mix-blend-mode: normal"><g><path d="M469,935c0,-0.55228 0.44772,-1 1,-1c0.55228,0 1,0.44772 1,1c0,0.55228 -0.44772,1 -1,1c-0.55228,0 -1,-0.44772 -1,-1z" fill="#1f95ff"/><text x="470" y="960" fill="#000000" font-family="Inter" font-weight="800" font-size="16" text-anchor="middle">Andhra Pradesh</text><text x="470" y="992" fill="#1f95ff" font-family="Inter" font-weight="500" font-size="20" text-anchor="middle">1</text></g><g><path d="M884.16905,450.16905c0,-3.22035 2.61061,-5.83095 5.83095,-5.83095c3.22035,0 5.83095,2.61061 5.83095,5.83095c0,3.22035 -2.61061,5.83095 -5.83095,5.83095c-3.22035,0 -5.83095,-2.61061 -5.83095,-5.83095z" fill="#1f95ff"/><text x="890" y="480" fill="#000000" font-family="Inter" font-weight="800" font-size="16" text-anchor="middle">Assam</text><text x="890" y="512" fill="#1f95ff" font-family="Inter" font-weight="500" font-size="20" text-anchor="middle">34</text></g><g><path d="M468.58579,614.58579c0,-0.78105 0.63316,-1.41421 1.41421,-1.41421c0.78105,0 1.41421,0.63316 1.41421,1.41421c0,0.78105 -0.63316,1.41421 -1.41421,1.41421c-0.78105,0 -1.41421,-0.63316 -1.41421,-1.41421z" fill="#1f95ff"/><text x="470" y="640" fill="#000000" font-family="Inter" font-weight="800" font-size="16" text-anchor="middle">Chhattisgarh</text><text x="470" y="672" fill="#1f95ff" font-family="Inter" font-weight="500" font-size="20" text-anchor="middle">2</text></g><g><path d="M172.11146,598.11146c0,-9.87957 8.00897,-17.88854 17.88854,-17.88854c9.87957,0 17.88854,8.00897 17.88854,17.88854c0,9.87957 -8.00897,17.88854 -17.88854,17.88854c-9.87957,0 -17.88854,-8.00897 -17.88854,-17.88854z" fill="#1f95ff"/><text x="190" y="640" fill="#000000" font-family="Inter" font-weight="800" font-size="16" text-anchor="middle">Gujarat</text><text x="190" y="672" fill="#1f95ff" font-family="Inter" font-weight="500" font-size="20" text-anchor="middle">320</text></g><g><path d="M450.58351,116.58351c0,-10.72343 8.69306,-19.41649 19.41649,-19.41649c10.72343,0 19.41649,8.69306 19.41649,19.41649c0,10.72343 -8.69306,19.41649 -19.41649,19.41649c-10.72343,0 -19.41649,-8.69306 -19.41649,-19.41649z" fill="#1f95ff"/><text x="470" y="160" fill="#000000" font-family="Inter" font-weight="800" font-size="16" text-anchor="middle">Jammu &amp; Kashmir</text><text x="470" y="192" fill="#1f95ff" font-family="Inter" font-weight="500" font-size="20" text-anchor="middle">377</text></g><g><path d="M317.43019,923.43019c0,-6.94211 5.62769,-12.56981 12.56981,-12.56981c6.94211,0 12.56981,5.62769 12.56981,12.56981c0,6.94211 -5.62769,12.56981 -12.56981,12.56981c-6.94211,0 -12.56981,-5.62769 -12.56981,-12.56981z" fill="#1f95ff"/><text x="330" y="960" fill="#000000" font-family="Inter" font-weight="800" font-size="16" text-anchor="middle">Karnataka</text><text x="330" y="992" fill="#1f95ff" font-family="Inter" font-weight="500" font-size="20" text-anchor="middle">158</text></g><g><path d="M326.39445,1092.39445c0,-1.99129 1.61426,-3.60555 3.60555,-3.60555c1.99129,0 3.60555,1.61426 3.60555,3.60555c0,1.99129 -1.61426,3.60555 -3.60555,3.60555c-1.99129,0 -3.60555,-1.61426 -3.60555,-3.60555z" fill="#1f95ff"/><text x="330" y="1120" fill="#000000" font-family="Inter" font-weight="800" font-size="16" text-anchor="middle">Kerala</text><text x="330" y="1152" fill="#1f95ff" font-family="Inter" font-weight="500" font-size="20" text-anchor="middle">13</text></g><g><path d="M325.41742,611.41742c0,-2.53089 2.05169,-4.58258 4.58258,-4.58258c2.53089,0 4.58258,2.05169 4.58258,4.58258c0,2.53089 -2.05169,4.58258 -4.58258,4.58258c-2.53089,0 -4.58258,-2.05169 -4.58258,-4.58258z" fill="#1f95ff"/><text x="330" y="640" fill="#000000" font-family="Inter" font-weight="800" font-size="16" text-anchor="middle">Madhya Pradesh</text><text x="330" y="672" fill="#1f95ff" font-family="Inter" font-weight="500" font-size="20" text-anchor="middle">21</text></g><g><path d="M314.67029,760.67029c0,-8.46636 6.86334,-15.32971 15.32971,-15.32971c8.46636,0 15.32971,6.86334 15.32971,15.32971c0,8.46636 -6.86334,15.32971 -15.32971,15.32971c-8.46636,0 -15.32971,-6.86334 -15.32971,-15.32971z" fill="#1f95ff"/><text x="330" y="800" fill="#000000" font-family="Inter" font-weight="800" font-size="16" text-anchor="middle">Maharashtra</text><text x="330" y="832" fill="#1f95ff" font-family="Inter" font-weight="500" font-size="20" text-anchor="middle">235</text></g><g><path d="M1019.85111,605.85111c0,-5.60508 4.54381,-10.14889 10.14889,-10.14889c5.60508,0 10.14889,4.54381 10.14889,10.14889c0,5.60508 -4.54381,10.14889 -10.14889,10.14889c-5.60508,0 -10.14889,-4.54381 -10.14889,-10.14889z" fill="#1f95ff"/><text x="1030" y="640" fill="#000000" font-family="Inter" font-weight="800" font-size="16" text-anchor="middle">Manipur</text><text x="1030" y="672" fill="#1f95ff" font-family="Inter" font-weight="500" font-size="20" text-anchor="middle">103</text></g><g><path d="M885.30958,611.30958c0,-2.59045 2.09997,-4.69042 4.69042,-4.69042c2.59045,0 4.69042,2.09997 4.69042,4.69042c0,2.59045 -2.09997,4.69042 -4.69042,4.69042c-2.59045,0 -4.69042,-2.09997 -4.69042,-4.69042z" fill="#1f95ff"/><text x="890" y="640" fill="#000000" font-family="Inter" font-weight="800" font-size="16" text-anchor="middle">Meghalaya</text><text x="890" y="672" fill="#1f95ff" font-family="Inter" font-weight="500" font-size="20" text-anchor="middle">22</text></g><g><path d="M1025.10102,451.10102c0,-2.70563 2.19335,-4.89898 4.89898,-4.89898c2.70563,0 4.89898,2.19335 4.89898,4.89898c0,2.70563 -2.19335,4.89898 -4.89898,4.89898c-2.70563,0 -4.89898,-2.19335 -4.89898,-4.89898z" fill="#1f95ff"/><text x="1030" y="480" fill="#000000" font-family="Inter" font-weight="800" font-size="16" text-anchor="middle">Nagaland</text><text x="1030" y="512" fill="#1f95ff" font-family="Inter" font-weight="500" font-size="20" text-anchor="middle">24</text></g><g><path d="M606.12702,772.12702c0,-2.13899 1.73399,-3.87298 3.87298,-3.87298c2.13899,0 3.87298,1.73399 3.87298,3.87298c0,2.13899 -1.73399,3.87298 -3.87298,3.87298c-2.13899,0 -3.87298,-1.73399 -3.87298,-3.87298z" fill="#1f95ff"/><text x="610" y="800" fill="#000000" font-family="Inter" font-weight="800" font-size="16" text-anchor="middle">Orissa</text><text x="610" y="832" fill="#1f95ff" font-family="Inter" font-weight="500" font-size="20" text-anchor="middle">15</text></g><g><path d="M185.20417,291.20417c0,-2.64866 2.14717,-4.79583 4.79583,-4.79583c2.64866,0 4.79583,2.14717 4.79583,4.79583c0,2.64866 -2.14717,4.79583 -4.79583,4.79583c-2.64866,0 -4.79583,-2.14717 -4.79583,-4.79583z" fill="#1f95ff"/><text x="190" y="320" fill="#000000" font-family="Inter" font-weight="800" font-size="16" text-anchor="middle">Punjab</text><text x="190" y="352" fill="#1f95ff" font-family="Inter" font-weight="500" font-size="20" text-anchor="middle">23</text></g><g><path d="M184.34315,450.34315c0,-3.12419 2.53266,-5.65685 5.65685,-5.65685c3.12419,0 5.65685,2.53266 5.65685,5.65685c0,3.12419 -2.53266,5.65685 -5.65685,5.65685c-3.12419,0 -5.65685,-2.53266 -5.65685,-5.65685z" fill="#1f95ff"/><text x="190" y="480" fill="#000000" font-family="Inter" font-weight="800" font-size="16" text-anchor="middle">Rajasthan</text><text x="190" y="512" fill="#1f95ff" font-family="Inter" font-weight="500" font-size="20" text-anchor="middle">32</text></g><g><path d="M441.24239,1067.24239c0,-15.88239 12.87522,-28.75761 28.75761,-28.75761c15.88239,0 28.75761,12.87522 28.75761,28.75761c0,15.88239 -12.87522,28.75761 -28.75761,28.75761c-15.88239,0 -28.75761,-12.87522 -28.75761,-28.75761z" fill="#1f95ff"/><text x="470" y="1120" fill="#000000" font-family="Inter" font-weight="800" font-size="16" text-anchor="middle">Tamil Nadu</text><text x="470" y="1152" fill="#1f95ff" font-family="Inter" font-weight="500" font-size="20" text-anchor="middle">827</text></g><g><path d="M889,775c0,-0.55228 0.44772,-1 1,-1c0.55228,0 1,0.44772 1,1c0,0.55228 -0.44772,1 -1,1c-0.55228,0 -1,-0.44772 -1,-1z" fill="#1f95ff"/><text x="890" y="800" fill="#000000" font-family="Inter" font-weight="800" font-size="16" text-anchor="middle">Tripura</text><text x="890" y="832" fill="#1f95ff" font-family="Inter" font-weight="500" font-size="20" text-anchor="middle">1</text></g><g><path d="M594.22027,440.22027c0,-8.71491 7.06483,-15.77973 15.77973,-15.77973c8.71491,0 15.77973,7.06483 15.77973,15.77973c0,8.71491 -7.06483,15.77973 -15.77973,15.77973c-8.71491,0 -15.77973,-7.06483 -15.77973,-15.77973z" fill="#1f95ff"/><text x="610" y="480" fill="#000000" font-family="Inter" font-weight="800" font-size="16" text-anchor="middle">Uttar Pradesh</text><text x="610" y="512" fill="#1f95ff" font-family="Inter" font-weight="500" font-size="20" text-anchor="middle">249</text></g><g><path d="M608.58579,294.58579c0,-0.78105 0.63316,-1.41421 1.41421,-1.41421c0.78105,0 1.41421,0.63316 1.41421,1.41421c0,0.78105 -0.63316,1.41421 -1.41421,1.41421c-0.78105,0 -1.41421,-0.63316 -1.41421,-1.41421z" fill="#1f95ff"/><text x="610" y="320" fill="#000000" font-family="Inter" font-weight="800" font-size="16" text-anchor="middle">Uttaranchal</text><text x="610" y="352" fill="#1f95ff" font-family="Inter" font-weight="500" font-size="20" text-anchor="middle">2</text></g><g><path d="M742.38423,608.38423c0,-4.20608 3.4097,-7.61577 7.61577,-7.61577c4.20608,0 7.61577,3.4097 7.61577,7.61577c0,4.20608 -3.4097,7.61577 -7.61577,7.61577c-4.20608,0 -7.61577,-3.4097 -7.61577,-7.61577z" fill="#1f95ff"/><text x="750" y="640" fill="#000000" font-family="Inter" font-weight="800" font-size="16" text-anchor="middle">West Bengal</text><text x="750" y="672" fill="#1f95ff" font-family="Inter" font-weight="500" font-size="20" text-anchor="middle">58</text></g><g><path d="M466,452c0,-2.20914 1.79086,-4 4,-4c2.20914,0 4,1.79086 4,4c0,2.20914 -1.79086,4 -4,4c-2.20914,0 -4,-1.79086 -4,-4z" fill="#1f95ff"/><text x="470" y="480" fill="#000000" font-family="Inter" font-weight="800" font-size="16" text-anchor="middle">Delhi</text><text x="470" y="512" fill="#1f95ff" font-family="Inter" font-weight="500" font-size="20" text-anchor="middle">16</text></g></g></svg>