<svg version="1.1" xmlns="http://www.w3.org/2000/svg" xmlns:xlink="http://www.w3.org/1999/xlink" width="1200" height="1399.99219" viewBox="0,0,1200,1399.99219"><g fill="none" fill-rule="nonzero" stroke="none" stroke-width="1" stroke-linecap="butt" stroke-linejoin="miter" stroke-miterlimit="10" stroke-dasharray="" stroke-dashoffset="0" font-family="none" font-weight="none" font-size="none" text-anchor="none" style="mix-blend-mode: normal"><g><path d="M465.75736,931.75736c0,-2.34315 1.89949,-4.24264 4.24264,-4.24264c2.34315,0 4.24264,1.89949 4.24264,4.24264c0,2.34315 -1.89949,4.24264 -4.24264,4.24264c-2.34315,0 -4.24264,-1.89949 -4.24264,-4.24264z" fill="#1f95ff"/><text x="470" y="960" fill="#000000" font-family="Inter" font-weight="800" font-size="16" text-anchor="middle">Andhra Pradesh</text><text x="470" y="992" fill="#1f95ff" font-family="Inter" font-weight="500" font-size="20" text-anchor="middle">18</text></g><g><path d="M884.80385,450.80385c0,-2.86976 2.3264,-5.19615 5.19615,-5.19615c2.86976,0 5.19615,2.3264 5.19615,5.19615c0,2.86976 -2.3264,5.19615 -5.19615,5.19615c-2.86976,0 -5.19615,-2.3264 -5.19615,-5.19615z" fill="#1f95ff"/><text x="890" y="480" fill="#000000" font-family="Inter" font-weight="800" font-size="16" text-anchor="middle">Assam</text><text x="890" y="512" fill="#1f95ff" font-family="Inter" font-weight="500" font-size="20" text-anchor="middle">27</text></g><g><path d="M469,615c0,-0.55228 0.44772,-1 1,-1c0.55228,0 1,0.44772 1,1c0,0.55228 -0.44772,1 -1,1c-0.55228,0 -1,-0.44772 -1,-1z" fill="#1f95ff"/><text x="470" y="640" fill="#000000" font-family="Inter" font-weight="800" font-size="16" text-anchor="middle">Chhattisgarh</text><text x="470" y="672" fill="#1f95ff" font-family="Inter" font-weight="500" font-size="20" text-anchor="middle">1</text></g><g><path d="M170.55778,596.55778c0,-10.73764 8.70458,-19.44222 19.44222,-19.44222c10.73764,0 19.44222,8.70458 19.44222,19.44222c0,10.73764 -8.70458,19.44222 -19.44222,19.44222c-10.73764,0 -19.44222,-8.70458 -19.44222,-19.44222z" fill="#1f95ff"/><text x="190" y="640" fill="#000000" font-family="Inter" font-weight="800" font-size="16" text-anchor="middle">Gujarat</text><text x="190" y="672" fill="#1f95ff" font-family="Inter" font-weight="500" font-size="20" text-anchor="middle">378</text></g><g><path d="M450.79063,116.79063c0,-10.60904 8.60033,-19.20937 19.20937,-19.20937c10.60904,0 19.20937,8.60033 19.20937,19.20937c0,10.60904 -8.60033,19.20937 -19.20937,19.20937c-10.60904,0 -19.20937,-8.60033 -19.20937,-19.20937z" fill="#1f95ff"/><text x="470" y="160" fill="#000000" font-family="Inter" font-weight="800" font-size="16" text-anchor="middle">Jammu &amp; Kashmir</text><text x="470" y="192" fill="#1f95ff" font-family="Inter" font-weight="500" font-size="20" text-anchor="middle">369</text></g><g><path d="M609,615c0,-0.55228 0.44772,-1 1,-1c0.55228,0 1,0.44772 1,1c0,0.55228 -0.44772,1 -1,1c-0.55228,0 -1,-0.44772 -1,-1z" fill="#1f95ff"/><text x="610" y="640" fill="#000000" font-family="Inter" font-weight="800" font-size="16" text-anchor="middle">Jharkhand</text><text x="610" y="672" fill="#1f95ff" font-family="Inter" font-weight="500" font-size="20" text-anchor="middle">1</text></g><g><path d="M316.77124,922.77124c0,-7.30604 5.92272,-13.22876 13.22876,-13.22876c7.30604,0 13.22876,5.92272 13.22876,13.22876c0,7.30604 -5.92272,13.22876 -13.22876,13.22876c-7.30604,0 -13.22876,-5.92272 -13.22876,-13.22876z" fill="#1f95ff"/><text x="330" y="960" fill="#000000" font-family="Inter" font-weight="800" font-size="16" text-anchor="middle">Karnataka</text><text x="330" y="992" fill="#1f95ff" font-family="Inter" font-weight="500" font-size="20" text-anchor="middle">175</text></g><g><path d="M327.76393,1093.76393c0,-1.23495 1.00112,-2.23607 2.23607,-2.23607c1.23495,0 2.23607,1.00112 2.23607,2.23607c0,1.23495 -1.00112,2.23607 -2.23607,2.23607c-1.23495,0 -2.23607,-1.00112 -2.23607,-2.23607z" fill="#1f95ff"/><text x="330" y="1120" fill="#000000" font-family="Inter" font-weight="800" font-size="16" text-anchor="middle">Kerala</text><text x="330" y="1152" fill="#1f95ff" font-family="Inter" font-weight="500" font-size="20" text-anchor="middle">5</text></g><g><path d="M325.41742,611.41742c0,-2.53089 2.05169,-4.58258 4.58258,-4.58258c2.53089,0 4.58258,2.05169 4.58258,4.58258c0,2.53089 -2.05169,4.58258 -4.58258,4.58258c-2.53089,0 -4.58258,-2.05169 -4.58258,-4.58258z" fill="#1f95ff"/><text x="330" y="640" fill="#000000" font-family="Inter" font-weight="800" font-size="16" text-anchor="middle">Madhya Pradesh</text><text x="330" y="672" fill="#1f95ff" font-family="Inter" font-weight="500" font-size="20" text-anchor="middle">21</text></g><g><path d="M313.44705,759.44705c0,-9.14194 7.41101,-16.55295 16.55295,-16.55295c9.14194,0 16.55295,7.41101 16.55295,16.55295c0,9.14194 -7.41101,16.55295 -16.55295,16.55295c-9.14194,0 -16.55295,-7.41101 -16.55295,-16.55295z" fill="#1f95ff"/><text x="330" y="800" fill="#000000" font-family="Inter" font-weight="800" font-size="16" text-anchor="middle">Maharashtra</text><text x="330" y="832" fill="#1f95ff" font-family="Inter" font-weight="500" font-size="20" text-anchor="middle">274</text></g><g><path d="M1023.51926,609.51926c0,-3.57921 2.90153,-6.48074 6.48074,-6.48074c3.57921,0 6.48074,2.90153 6.48074,6.48074c0,3.57921 -2.90153,6.48074 -6.48074,6.48074c-3.57921,0 -6.48074,-2.90153 -6.48074,-6.48074z" fill="#1f95ff"/><text x="1030" y="640" fill="#000000" font-family="Inter" font-weight="800" font-size="16" text-anchor="middle">Manipur</text><text x="1030" y="672" fill="#1f95ff" font-family="Inter" font-weight="500" font-size="20" text-anchor="middle">42</text></g><g><path d="M885.10102,611.10102c0,-2.70563 2.19335,-4.89898 4.89898,-4.89898c2.70563,0 4.89898,2.19335 4.89898,4.89898c0,2.70563 -2.19335,4.89898 -4.89898,4.89898c-2.70563,0 -4.89898,-2.19335 -4.89898,-4.89898z" fill="#1f95ff"/><text x="890" y="640" fill="#000000" font-family="Inter" font-weight="800" font-size="16" text-anchor="middle">Meghalaya</text><text x="890" y="672" fill="#1f95ff" font-family="Inter" font-weight="500" font-size="20" text-anchor="middle">24</text></g><g><path d="M1025.10102,451.10102c0,-2.70563 2.19335,-4.89898 4.89898,-4.89898c2.70563,0 4.89898,2.19335 4.89898,4.89898c0,2.70563 -2.19335,4.89898 -4.89898,4.89898c-2.70563,0 -4.89898,-2.19335 -4.89898,-4.89898z" fill="#1f95ff"/><text x="1030" y="480" fill="#000000" font-family="Inter" font-weight="800" font-size="16" text-anchor="middle">Nagaland</text><text x="1030" y="512" fill="#1f95ff" font-family="Inter" font-weight="500" font-size="20" text-anchor="middle">24</text></g><g><path d="M185.52786,291.52786c0,-2.46989 2.00224,-4.47214 4.47214,-4.47214c2.46989,0 4.47214,2.00224 4.47214,4.47214c0,2.46989 -2.00224,4.47214 -4.47214,4.47214c-2.46989,0 -4.47214,-2.00224 -4.47214,-4.47214z" fill="#1f95ff"/><text x="190" y="320" fill="#000000" font-family="Inter" font-weight="800" font-size="16" text-anchor="middle">Punjab</text><text x="190" y="352" fill="#1f95ff" font-family="Inter" font-weight="500" font-size="20" text-anchor="middle">20</text></g><g><path d="M184.08392,450.08392c0,-3.26736 2.64872,-5.91608 5.91608,-5.91608c3.26736,0 5.91608,2.64872 5.91608,5.91608c0,3.26736 -2.64872,5.91608 -5.91608,5.91608c-3.26736,0 -5.91608,-2.64872 -5.91608,-5.91608z" fill="#1f95ff"/><text x="190" y="480" fill="#000000" font-family="Inter" font-weight="800" font-size="16" text-anchor="middle">Rajasthan</text><text x="190" y="512" fill="#1f95ff" font-family="Inter" font-weight="500" font-size="20" text-anchor="middle">35</text></g><g><path d="M444.4853,1070.4853c0,-14.09138 11.42332,-25.5147 25.5147,-25.5147c14.09138,0 25.5147,11.42332 25.5147,25.5147c0,14.09138 -11.42332,25.5147 -25.5147,25.5147c-14.09138,0 -25.5147,-11.42332 -25.5147,-25.5147z" fill="#1f95ff"/><text x="470" y="1120" fill="#000000" font-family="Inter" font-weight="800" font-size="16" text-anchor="middle">Tamil Nadu</text><text x="470" y="1152" fill="#1f95ff" font-family="Inter" font-weight="500" font-size="20" text-anchor="middle">651</text></g><g><path d="M596.10756,442.10756c0,-7.67258 6.21986,-13.89244 13.89244,-13.89244c7.67258,0 13.89244,6.21986 13.89244,13.89244c0,7.67258 -6.21986,13.89244 -13.89244,13.89244c-7.67258,0 -13.89244,-6.21986 -13.89244,-13.89244z" fill="#1f95ff"/><text x="610" y="480" fill="#000000" font-family="Inter" font-weight="800" font-size="16" text-anchor="middle">Uttar Pradesh</text><text x="610" y="512" fill="#1f95ff" font-family="Inter" font-weight="500" font-size="20" text-anchor="middle">193</text></g><g><path d="M465.87689,451.87689c0,-2.27713 1.84598,-4.12311 4.12311,-4.12311c2.27713,0 4.12311,1.84598 4.12311,4.12311c0,2.27713 -1.84598,4.12311 -4.12311,4.12311c-2.27713,0 -4.12311,-1.84598 -4.12311,-4.12311z" fill="#1f95ff"/><text x="470" y="480" fill="#000000" font-family="Inter" font-weight="800" font-size="16" text-anchor="middle">Delhi</text><text x="470" y="512" fill="#1f95ff" font-family="Inter" font-weight="500" font-size="20" text-anchor="middle">17</text></g></g></svg>