<svg version="1.1" xmlns="http://www.w3.org/2000/svg" xmlns:xlink="http://www.w3.org/1999/xlink" width="1200" height="1399.99219" viewBox="0,0,1200,1399.99219"><g fill="none" fill-rule="nonzero" stroke="none" stroke-width="1" stroke-linecap="butt" stroke-linejoin="miter" stroke-miterlimit="10" stroke-dasharray="" stroke-dashoffset="0" font-family="none" font-weight="none" font-size="none" text-anchor="none" style="mix-blend-mode: normal"><g><path d="M465.41742,931.41742c0,-2.53089 2.05169,-4.58258 4.58258,-4.58258c2.53089,0 4.58258,2.05169 4.58258,4.58258c0,2.53089 -2.05169,4.58258 -4.58258,4.58258c-2.53089,0 -4.58258,-2.05169 -4.58258,-4.58258z" fill="#1f95ff"/><text x="470" y="960" fill="#000000" font-family="Inter" font-weight="800" font-size="16" text-anchor="middle">Andhra Pradesh</text><text x="470" y="992" fill="#1f95ff" font-family="Inter" font-weight="500" font-size="20" text-anchor="middle">21</text></g><g><path d="M884.08392,450.08392c0,-3.26736 2.64872,-5.91608 5.91608,-5.91608c3.26736,0 5.91608,2.64872 5.91608,5.91608c0,3.26736 -2.64872,5.91608 -5.91608,5.91608c-3.26736,0 -5.91608,-2.64872 -5.91608,-5.91608z" fill="#1f95ff"/><text x="890" y="480" fill="#000000" font-family="Inter" font-weight="800" font-size="16" text-anchor="middle">Assam</text><text x="890" y="512" fill="#1f95ff" font-family="Inter" font-weight="500" font-size="20" text-anchor="middle">35</text></g><g><path d="M745.10102,451.10102c0,-2.70563 2.19335,-4.89898 4.89898,-4.89898c2.70563,0 4.89898,2.19335 4.89898,4.89898c0,2.70563 -2.19335,4.89898 -4.89898,4.89898c-2.70563,0 -4.89898,-2.19335 -4.89898,-4.89898z" fill="#1f95ff"/><text x="750" y="480" fill="#000000" font-family="Inter" font-weight="800" font-size="16" text-anchor="middle">Bihar</text><text x="750" y="512" fill="#1f95ff" font-family="Inter" font-weight="500" font-size="20" text-anchor="middle">24</text></g><g><path d="M160.21745,586.21745c0,-16.44845 13.3341,-29.78255 29.78255,-29.78255c16.44845,0 29.78255,13.3341 29.78255,29.78255c0,16.44845 -13.3341,29.78255 -29.78255,29.78255c-16.44845,0 -29.78255,-13.3341 -29.78255,-29.78255z" fill="#1f95ff"/><text x="190" y="640" fill="#000000" font-family="Inter" font-weight="800" font-size="16" text-anchor="middle">Gujarat</text><text x="190" y="672" fill="#1f95ff" font-family="Inter" font-weight="500" font-size="20" text-anchor="middle">887</text></g><g><path d="M453.41688,119.41688c0,-9.15861 7.42452,-16.58312 16.58312,-16.58312c9.15861,0 16.58312,7.42452 16.58312,16.58312c0,9.15861 -7.42452,16.58312 -16.58312,16.58312c-9.15861,0 -16.58312,-7.42452 -16.58312,-16.58312z" fill="#1f95ff"/><text x="470" y="160" fill="#000000" font-family="Inter" font-weight="800" font-size="16" text-anchor="middle">Jammu &amp; Kashmir</text><text x="470" y="192" fill="#1f95ff" font-family="Inter" font-weight="500" font-size="20" text-anchor="middle">275</text></g><g><path d="M607.55051,613.55051c0,-1.35282 1.09667,-2.44949 2.44949,-2.44949c1.35282,0 2.44949,1.09667 2.44949,2.44949c0,1.35282 -1.09667,2.44949 -2.44949,2.44949c-1.35282,0 -2.44949,-1.09667 -2.44949,-2.44949z" fill="#1f95ff"/><text x="610" y="640" fill="#000000" font-family="Inter" font-weight="800" font-size="16" text-anchor="middle">Jharkhand</text><text x="610" y="672" fill="#1f95ff" font-family="Inter" font-weight="500" font-size="20" text-anchor="middle">6</text></g><g><path d="M326.83772,932.83772c0,-1.74648 1.4158,-3.16228 3.16228,-3.16228c1.74648,0 3.16228,1.4158 3.16228,3.16228c0,1.74648 -1.4158,3.16228 -3.16228,3.16228c-1.74648,0 -3.16228,-1.4158 -3.16228,-3.16228z" fill="#1f95ff"/><text x="330" y="960" fill="#000000" font-family="Inter" font-weight="800" font-size="16" text-anchor="middle">Karnataka</text><text x="330" y="992" fill="#1f95ff" font-family="Inter" font-weight="500" font-size="20" text-anchor="middle">10</text></g><g><path d="M324.34315,1090.34315c0,-3.12419 2.53266,-5.65685 5.65685,-5.65685c3.12419,0 5.65685,2.53266 5.65685,5.65685c0,3.12419 -2.53266,5.65685 -5.65685,5.65685c-3.12419,0 -5.65685,-2.53266 -5.65685,-5.65685z" fill="#1f95ff"/><text x="330" y="1120" fill="#000000" font-family="Inter" font-weight="800" font-size="16" text-anchor="middle">Kerala</text><text x="330" y="1152" fill="#1f95ff" font-family="Inter" font-weight="500" font-size="20" text-anchor="middle">32</text></g><g><path d="M324.16905,610.16905c0,-3.22035 2.61061,-5.83095 5.83095,-5.83095c3.22035,0 5.83095,2.61061 5.83095,5.83095c0,3.22035 -2.61061,5.83095 -5.83095,5.83095c-3.22035,0 -5.83095,-2.61061 -5.83095,-5.83095z" fill="#1f95ff"/><text x="330" y="640" fill="#000000" font-family="Inter" font-weight="800" font-size="16" text-anchor="middle">Madhya Pradesh</text><text x="330" y="672" fill="#1f95ff" font-family="Inter" font-weight="500" font-size="20" text-anchor="middle">34</text></g><g><path d="M317.67117,763.67117c0,-6.80902 5.5198,-12.32883 12.32883,-12.32883c6.80902,0 12.32883,5.5198 12.32883,12.32883c0,6.80902 -5.5198,12.32883 -12.32883,12.32883c-6.80902,0 -12.32883,-5.5198 -12.32883,-12.32883z" fill="#1f95ff"/><text x="330" y="800" fill="#000000" font-family="Inter" font-weight="800" font-size="16" text-anchor="middle">Maharashtra</text><text x="330" y="832" fill="#1f95ff" font-family="Inter" font-weight="500" font-size="20" text-anchor="middle">152</text></g><g><path d="M1018.3381,604.3381c0,-6.44069 5.22121,-11.6619 11.6619,-11.6619c6.44069,0 11.6619,5.22121 11.6619,11.6619c0,6.44069 -5.22121,11.6619 -11.6619,11.6619c-6.44069,0 -11.6619,-5.22121 -11.6619,-11.6619z" fill="#1f95ff"/><text x="1030" y="640" fill="#000000" font-family="Inter" font-weight="800" font-size="16" text-anchor="middle">Manipur</text><text x="1030" y="672" fill="#1f95ff" font-family="Inter" font-weight="500" font-size="20" text-anchor="middle">136</text></g><g><path d="M884,610c0,-3.31371 2.68629,-6 6,-6c3.31371,0 6,2.68629 6,6c0,3.31371 -2.68629,6 -6,6c-3.31371,0 -6,-2.68629 -6,-6z" fill="#1f95ff"/><text x="890" y="640" fill="#000000" font-family="Inter" font-weight="800" font-size="16" text-anchor="middle">Meghalaya</text><text x="890" y="672" fill="#1f95ff" font-family="Inter" font-weight="500" font-size="20" text-anchor="middle">36</text></g><g><path d="M1027.55051,453.55051c0,-1.35282 1.09667,-2.44949 2.44949,-2.44949c1.35282,0 2.44949,1.09667 2.44949,2.44949c0,1.35282 -1.09667,2.44949 -2.44949,2.44949c-1.35282,0 -2.44949,-1.09667 -2.44949,-2.44949z" fill="#1f95ff"/><text x="1030" y="480" fill="#000000" font-family="Inter" font-weight="800" font-size="16" text-anchor="middle">Nagaland</text><text x="1030" y="512" fill="#1f95ff" font-family="Inter" font-weight="500" font-size="20" text-anchor="middle">6</text></g><g><path d="M608.26795,774.26795c0,-0.95659 0.77547,-1.73205 1.73205,-1.73205c0.95659,0 1.73205,0.77547 1.73205,1.73205c0,0.95659 -0.77547,1.73205 -1.73205,1.73205c-0.95659,0 -1.73205,-0.77547 -1.73205,-1.73205z" fill="#1f95ff"/><text x="610" y="800" fill="#000000" font-family="Inter" font-weight="800" font-size="16" text-anchor="middle">Orissa</text><text x="610" y="832" fill="#1f95ff" font-family="Inter" font-weight="500" font-size="20" text-anchor="middle">3</text></g><g><path d="M186,292c0,-2.20914 1.79086,-4 4,-4c2.20914,0 4,1.79086 4,4c0,2.20914 -1.79086,4 -4,4c-2.20914,0 -4,-1.79086 -4,-4z" fill="#1f95ff"/><text x="190" y="320" fill="#000000" font-family="Inter" font-weight="800" font-size="16" text-anchor="middle">Punjab</text><text x="190" y="352" fill="#1f95ff" font-family="Inter" font-weight="500" font-size="20" text-anchor="middle">16</text></g><g><path d="M184.90098,450.90098c0,-2.81611 2.28291,-5.09902 5.09902,-5.09902c2.81611,0 5.09902,2.28291 5.09902,5.09902c0,2.81611 -2.28291,5.09902 -5.09902,5.09902c-2.81611,0 -5.09902,-2.28291 -5.09902,-5.09902z" fill="#1f95ff"/><text x="190" y="480" fill="#000000" font-family="Inter" font-weight="800" font-size="16" text-anchor="middle">Rajasthan</text><text x="190" y="512" fill="#1f95ff" font-family="Inter" font-weight="500" font-size="20" text-anchor="middle">26</text></g><g><path d="M444.17366,1070.17366c0,-14.2635 11.56285,-25.82634 25.82634,-25.82634c14.2635,0 25.82634,11.56285 25.82634,25.82634c0,14.2635 -11.56285,25.82634 -25.82634,25.82634c-14.2635,0 -25.82634,-11.56285 -25.82634,-25.82634z" fill="#1f95ff"/><text x="470" y="1120" fill="#000000" font-family="Inter" font-weight="800" font-size="16" text-anchor="middle">Tamil Nadu</text><text x="470" y="1152" fill="#1f95ff" font-family="Inter" font-weight="500" font-size="20" text-anchor="middle">667</text></g><g><path d="M889,775c0,-0.55228 0.44772,-1 1,-1c0.55228,0 1,0.44772 1,1c0,0.55228 -0.44772,1 -1,1c-0.55228,0 -1,-0.44772 -1,-1z" fill="#1f95ff"/><text x="890" y="800" fill="#000000" font-family="Inter" font-weight="800" font-size="16" text-anchor="middle">Tripura</text><text x="890" y="832" fill="#1f95ff" font-family="Inter" font-weight="500" font-size="20" text-anchor="middle">1</text></g><g><path d="M562.07297,408.07297c0,-26.46937 21.45766,-47.92703 47.92703,-47.92703c26.46937,0 47.92703,21.45766 47.92703,47.92703c0,26.46937 -21.45766,47.92703 -47.92703,47.92703c-26.46937,0 -47.92703,-21.45766 -47.92703,-47.92703z" fill="#1f95ff"/><text x="610" y="480" fill="#000000" font-family="Inter" font-weight="800" font-size="16" text-anchor="middle">Uttar Pradesh</text><text x="610" y="512" fill="#1f95ff" font-family="Inter" font-weight="500" font-size="20" text-anchor="middle">2297</text></g><g><path d="M465.20417,451.20417c0,-2.64866 2.14717,-4.79583 4.79583,-4.79583c2.64866,0 4.79583,2.14717 4.79583,4.79583c0,2.64866 -2.14717,4.79583 -4.79583,4.79583c-2.64866,0 -4.79583,-2.14717 -4.79583,-4.79583z" fill="#1f95ff"/><text x="470" y="480" fill="#000000" font-family="Inter" font-weight="800" font-size="16" text-anchor="middle">Delhi</text><text x="470" y="512" fill="#1f95ff" font-family="Inter" font-weight="500" font-size="20" text-anchor="middle">23</text></g></g></svg>