<svg version="1.1" xmlns="http://www.w3.org/2000/svg" xmlns:xlink="http://www.w3.org/1999/xlink" width="1200" height="1399.99219" viewBox="0,0,1200,1399.99219"><g fill="none" fill-rule="nonzero" stroke="none" stroke-width="1" stroke-linecap="butt" stroke-linejoin="miter" stroke-miterlimit="10" stroke-dasharray="" stroke-dashoffset="0" font-family="none" font-weight="none" font-size="none" text-anchor="none" style="mix-blend-mode: normal"><g><path d="M465.41742,931.41742c0,-2.53089 2.05169,-4.58258 4.58258,-4.58258c2.53089,0 4.58258,2.05169 4.58258,4.58258c0,2.53089 -2.05169,4.58258 -4.58258,4.58258c-2.53089,0 -4.58258,-2.05169 -4.58258,-4.58258z" fill="#1f95ff"/><text x="470" y="960" fill="#000000" font-family="Inter" font-weight="800" font-size="16" text-anchor="middle">Andhra Pradesh</text><text x="470" y="992" fill="#1f95ff" font-family="Inter" font-weight="500" font-size="20" text-anchor="middle">21</text></g><g><path d="M886.83772,452.83772c0,-1.74648 1.4158,-3.16228 3.16228,-3.16228c1.74648,0 3.16228,1.4158 3.16228,3.16228c0,1.74648 -1.4158,3.16228 -3.16228,3.16228c-1.74648,0 -3.16228,-1.4158 -3.16228,-3.16228z" fill="#1f95ff"/><text x="890" y="480" fill="#000000" font-family="Inter" font-weight="800" font-size="16" text-anchor="middle">Assam</text><text x="890" y="512" fill="#1f95ff" font-family="Inter" font-weight="500" font-size="20" text-anchor="middle">10</text></g><g><path d="M745.10102,451.10102c0,-2.70563 2.19335,-4.89898 4.89898,-4.89898c2.70563,0 4.89898,2.19335 4.89898,4.89898c0,2.70563 -2.19335,4.89898 -4.89898,4.89898c-2.70563,0 -4.89898,-2.19335 -4.89898,-4.89898z" fill="#1f95ff"/><text x="750" y="480" fill="#000000" font-family="Inter" font-weight="800" font-size="16" text-anchor="middle">Bihar</text><text x="750" y="512" fill="#1f95ff" font-family="Inter" font-weight="500" font-size="20" text-anchor="middle">24</text></g><g><path d="M170.48078,596.48078c0,-10.78017 8.73905,-19.51922 19.51922,-19.51922c10.78017,0 19.51922,8.73905 19.51922,19.51922c0,10.78017 -8.73905,19.51922 -19.51922,19.51922c-10.78017,0 -19.51922,-8.73905 -19.51922,-19.51922z" fill="#1f95ff"/><text x="190" y="640" fill="#000000" font-family="Inter" font-weight="800" font-size="16" text-anchor="middle">Gujarat</text><text x="190" y="672" fill="#1f95ff" font-family="Inter" font-weight="500" font-size="20" text-anchor="middle">381</text></g><g><path d="M453.69049,119.69049c0,-9.00749 7.30201,-16.30951 16.30951,-16.30951c9.00749,0 16.30951,7.30201 16.30951,16.30951c0,9.00749 -7.30201,16.30951 -16.30951,16.30951c-9.00749,0 -16.30951,-7.30201 -16.30951,-16.30951z" fill="#1f95ff"/><text x="470" y="160" fill="#000000" font-family="Inter" font-weight="800" font-size="16" text-anchor="middle">Jammu &amp; Kashmir</text><text x="470" y="192" fill="#1f95ff" font-family="Inter" font-weight="500" font-size="20" text-anchor="middle">266</text></g><g><path d="M607.55051,613.55051c0,-1.35282 1.09667,-2.44949 2.44949,-2.44949c1.35282,0 2.44949,1.09667 2.44949,2.44949c0,1.35282 -1.09667,2.44949 -2.44949,2.44949c-1.35282,0 -2.44949,-1.09667 -2.44949,-2.44949z" fill="#1f95ff"/><text x="610" y="640" fill="#000000" font-family="Inter" font-weight="800" font-size="16" text-anchor="middle">Jharkhand</text><text x="610" y="672" fill="#1f95ff" font-family="Inter" font-weight="500" font-size="20" text-anchor="middle">6</text></g><g><path d="M329,935c0,-0.55228 0.44772,-1 1,-1c0.55228,0 1,0.44772 1,1c0,0.55228 -0.44772,1 -1,1c-0.55228,0 -1,-0.44772 -1,-1z" fill="#1f95ff"/><text x="330" y="960" fill="#000000" font-family="Inter" font-weight="800" font-size="16" text-anchor="middle">Karnataka</text><text x="330" y="992" fill="#1f95ff" font-family="Inter" font-weight="500" font-size="20" text-anchor="middle">1</text></g><g><path d="M323.59688,1089.59688c0,-3.53635 2.86678,-6.40312 6.40312,-6.40312c3.53635,0 6.40312,2.86678 6.40312,6.40312c0,3.53635 -2.86678,6.40312 -6.40312,6.40312c-3.53635,0 -6.40312,-2.86678 -6.40312,-6.40312z" fill="#1f95ff"/><text x="330" y="1120" fill="#000000" font-family="Inter" font-weight="800" font-size="16" text-anchor="middle">Kerala</text><text x="330" y="1152" fill="#1f95ff" font-family="Inter" font-weight="500" font-size="20" text-anchor="middle">41</text></g><g><path d="M319.85111,605.85111c0,-5.60508 4.54381,-10.14889 10.14889,-10.14889c5.60508,0 10.14889,4.54381 10.14889,10.14889c0,5.60508 -4.54381,10.14889 -10.14889,10.14889c-5.60508,0 -10.14889,-4.54381 -10.14889,-10.14889z" fill="#1f95ff"/><text x="330" y="640" fill="#000000" font-family="Inter" font-weight="800" font-size="16" text-anchor="middle">Madhya Pradesh</text><text x="330" y="672" fill="#1f95ff" font-family="Inter" font-weight="500" font-size="20" text-anchor="middle">103</text></g><g><path d="M319.36985,765.36985c0,-5.87087 4.75928,-10.63015 10.63015,-10.63015c5.87087,0 10.63015,4.75928 10.63015,10.63015c0,5.87087 -4.75928,10.63015 -10.63015,10.63015c-5.87087,0 -10.63015,-4.75928 -10.63015,-10.63015z" fill="#1f95ff"/><text x="330" y="800" fill="#000000" font-family="Inter" font-weight="800" font-size="16" text-anchor="middle">Maharashtra</text><text x="330" y="832" fill="#1f95ff" font-family="Inter" font-weight="500" font-size="20" text-anchor="middle">113</text></g><g><path d="M1017.35089,603.35089c0,-6.98591 5.6632,-12.64911 12.64911,-12.64911c6.98591,0 12.64911,5.6632 12.64911,12.64911c0,6.98591 -5.6632,12.64911 -12.64911,12.64911c-6.98591,0 -12.64911,-5.6632 -12.64911,-12.64911z" fill="#1f95ff"/><text x="1030" y="640" fill="#000000" font-family="Inter" font-weight="800" font-size="16" text-anchor="middle">Manipur</text><text x="1030" y="672" fill="#1f95ff" font-family="Inter" font-weight="500" font-size="20" text-anchor="middle">160</text></g><g><path d="M883.14435,609.14435c0,-3.78627 3.06938,-6.85565 6.85565,-6.85565c3.78627,0 6.85565,3.06938 6.85565,6.85565c0,3.78627 -3.06938,6.85565 -6.85565,6.85565c-3.78627,0 -6.85565,-3.06938 -6.85565,-6.85565z" fill="#1f95ff"/><text x="890" y="640" fill="#000000" font-family="Inter" font-weight="800" font-size="16" text-anchor="middle">Meghalaya</text><text x="890" y="672" fill="#1f95ff" font-family="Inter" font-weight="500" font-size="20" text-anchor="middle">47</text></g><g><path d="M1022.06275,448.06275c0,-4.38362 3.55363,-7.93725 7.93725,-7.93725c4.38362,0 7.93725,3.55363 7.93725,7.93725c0,4.38362 -3.55363,7.93725 -7.93725,7.93725c-4.38362,0 -7.93725,-3.55363 -7.93725,-7.93725z" fill="#1f95ff"/><text x="1030" y="480" fill="#000000" font-family="Inter" font-weight="800" font-size="16" text-anchor="middle">Nagaland</text><text x="1030" y="512" fill="#1f95ff" font-family="Inter" font-weight="500" font-size="20" text-anchor="middle">63</text></g><g><path d="M606.5359,772.5359c0,-1.91317 1.55093,-3.4641 3.4641,-3.4641c1.91317,0 3.4641,1.55093 3.4641,3.4641c0,1.91317 -1.55093,3.4641 -3.4641,3.4641c-1.91317,0 -3.4641,-1.55093 -3.4641,-3.4641z" fill="#1f95ff"/><text x="610" y="800" fill="#000000" font-family="Inter" font-weight="800" font-size="16" text-anchor="middle">Orissa</text><text x="610" y="832" fill="#1f95ff" font-family="Inter" font-weight="500" font-size="20" text-anchor="middle">12</text></g><g><path d="M186.39445,292.39445c0,-1.99129 1.61426,-3.60555 3.60555,-3.60555c1.99129,0 3.60555,1.61426 3.60555,3.60555c0,1.99129 -1.61426,3.60555 -3.60555,3.60555c-1.99129,0 -3.60555,-1.61426 -3.60555,-3.60555z" fill="#1f95ff"/><text x="190" y="320" fill="#000000" font-family="Inter" font-weight="800" font-size="16" text-anchor="middle">Punjab</text><text x="190" y="352" fill="#1f95ff" font-family="Inter" font-weight="500" font-size="20" text-anchor="middle">13</text></g><g><path d="M182.5838,448.5838c0,-4.09585 3.32035,-7.4162 7.4162,-7.4162c4.09585,0 7.4162,3.32035 7.4162,7.4162c0,4.09585 -3.32035,7.4162 -7.4162,7.4162c-4.09585,0 -7.4162,-3.32035 -7.4162,-7.4162z" fill="#1f95ff"/><text x="190" y="480" fill="#000000" font-family="Inter" font-weight="800" font-size="16" text-anchor="middle">Rajasthan</text><text x="190" y="512" fill="#1f95ff" font-family="Inter" font-weight="500" font-size="20" text-anchor="middle">55</text></g><g><path d="M437.82858,1063.82858c0,-17.76778 14.40363,-32.17142 32.17142,-32.17142c17.76778,0 32.17142,14.40363 32.17142,32.17142c0,17.76778 -14.40363,32.17142 -32.17142,32.17142c-17.76778,0 -32.17142,-14.40363 -32.17142,-32.17142z" fill="#1f95ff"/><text x="470" y="1120" fill="#000000" font-family="Inter" font-weight="800" font-size="16" text-anchor="middle">Tamil Nadu</text><text x="470" y="1152" fill="#1f95ff" font-family="Inter" font-weight="500" font-size="20" text-anchor="middle">1035</text></g><g><path d="M585.34234,431.34234c0,-13.61805 11.03961,-24.65766 24.65766,-24.65766c13.61805,0 24.65766,11.03961 24.65766,24.65766c0,13.61805 -11.03961,24.65766 -24.65766,24.65766c-13.61805,0 -24.65766,-11.03961 -24.65766,-24.65766z" fill="#1f95ff"/><text x="610" y="480" fill="#000000" font-family="Inter" font-weight="800" font-size="16" text-anchor="middle">Uttar Pradesh</text><text x="610" y="512" fill="#1f95ff" font-family="Inter" font-weight="500" font-size="20" text-anchor="middle">608</text></g><g><path d="M465.6411,451.6411c0,-2.40735 1.95155,-4.3589 4.3589,-4.3589c2.40735,0 4.3589,1.95155 4.3589,4.3589c0,2.40735 -1.95155,4.3589 -4.3589,4.3589c-2.40735,0 -4.3589,-1.95155 -4.3589,-4.3589z" fill="#1f95ff"/><text x="470" y="480" fill="#000000" font-family="Inter" font-weight="800" font-size="16" text-anchor="middle">Delhi</text><text x="470" y="512" fill="#1f95ff" font-family="Inter" font-weight="500" font-size="20" text-anchor="middle">19</text></g></g></svg>