<svg version="1.1" xmlns="http://www.w3.org/2000/svg" xmlns:xlink="http://www.w3.org/1999/xlink" width="1200" height="1399.99219" viewBox="0,0,1200,1399.99219"><g fill="none" fill-rule="nonzero" stroke="none" stroke-width="1" stroke-linecap="butt" stroke-linejoin="miter" stroke-miterlimit="10" stroke-dasharray="" stroke-dashoffset="0" font-family="none" font-weight="none" font-size="none" text-anchor="none" style="mix-blend-mode: normal"><g><path d="M463.67544,929.67544c0,-3.49296 2.8316,-6.32456 6.32456,-6.32456c3.49296,0 6.32456,2.8316 6.32456,6.32456c0,3.49296 -2.8316,6.32456 -6.32456,6.32456c-3.49296,0 -6.32456,-2.8316 -6.32456,-6.32456z" fill="#1f95ff"/><text x="470" y="960" fill="#000000" font-family="Inter" font-weight="800" font-size="16" text-anchor="middle">Andhra Pradesh</text><text x="470" y="992" fill="#1f95ff" font-family="Inter" font-weight="500" font-size="20" text-anchor="middle">40</text></g><g><path d="M887,453c0,-1.65685 1.34315,-3 3,-3c1.65685,0 3,1.34315 3,3c0,1.65685 -1.34315,3 -3,3c-1.65685,0 -3,-1.34315 -3,-3z" fill="#1f95ff"/><text x="890" y="480" fill="#000000" font-family="Inter" font-weight="800" font-size="16" text-anchor="middle">Assam</text><text x="890" y="512" fill="#1f95ff" font-family="Inter" font-weight="500" font-size="20" text-anchor="middle">9</text></g><g><path d="M746.83772,452.83772c0,-1.74648 1.4158,-3.16228 3.16228,-3.16228c1.74648,0 3.16228,1.4158 3.16228,3.16228c0,1.74648 -1.4158,3.16228 -3.16228,3.16228c-1.74648,0 -3.16228,-1.4158 -3.16228,-3.16228z" fill="#1f95ff"/><text x="750" y="480" fill="#000000" font-family="Inter" font-weight="800" font-size="16" text-anchor="middle">Bihar</text><text x="750" y="512" fill="#1f95ff" font-family="Inter" font-weight="500" font-size="20" text-anchor="middle">10</text></g><g><path d="M171.13204,597.13204c0,-10.42049 8.44747,-18.86796 18.86796,-18.86796c10.42049,0 18.86796,8.44747 18.86796,18.86796c0,10.42049 -8.44747,18.86796 -18.86796,18.86796c-10.42049,0 -18.86796,-8.44747 -18.86796,-18.86796z" fill="#1f95ff"/><text x="190" y="640" fill="#000000" font-family="Inter" font-weight="800" font-size="16" text-anchor="middle">Gujarat</text><text x="190" y="672" fill="#1f95ff" font-family="Inter" font-weight="500" font-size="20" text-anchor="middle">356</text></g><g><path d="M456.50926,122.50926c0,-7.45073 6.04001,-13.49074 13.49074,-13.49074c7.45073,0 13.49074,6.04001 13.49074,13.49074c0,7.45073 -6.04001,13.49074 -13.49074,13.49074c-7.45073,0 -13.49074,-6.04001 -13.49074,-13.49074z" fill="#1f95ff"/><text x="470" y="160" fill="#000000" font-family="Inter" font-weight="800" font-size="16" text-anchor="middle">Jammu &amp; Kashmir</text><text x="470" y="192" fill="#1f95ff" font-family="Inter" font-weight="500" font-size="20" text-anchor="middle">182</text></g><g><path d="M607.76393,613.76393c0,-1.23495 1.00112,-2.23607 2.23607,-2.23607c1.23495,0 2.23607,1.00112 2.23607,2.23607c0,1.23495 -1.00112,2.23607 -2.23607,2.23607c-1.23495,0 -2.23607,-1.00112 -2.23607,-2.23607z" fill="#1f95ff"/><text x="610" y="640" fill="#000000" font-family="Inter" font-weight="800" font-size="16" text-anchor="middle">Jharkhand</text><text x="610" y="672" fill="#1f95ff" font-family="Inter" font-weight="500" font-size="20" text-anchor="middle">5</text></g><g><path d="M325.87689,931.87689c0,-2.27713 1.84598,-4.12311 4.12311,-4.12311c2.27713,0 4.12311,1.84598 4.12311,4.12311c0,2.27713 -1.84598,4.12311 -4.12311,4.12311c-2.27713,0 -4.12311,-1.84598 -4.12311,-4.12311z" fill="#1f95ff"/><text x="330" y="960" fill="#000000" font-family="Inter" font-weight="800" font-size="16" text-anchor="middle">Karnataka</text><text x="330" y="992" fill="#1f95ff" font-family="Inter" font-weight="500" font-size="20" text-anchor="middle">17</text></g><g><path d="M321.6334,1087.6334c0,-4.62075 3.74585,-8.3666 8.3666,-8.3666c4.62075,0 8.3666,3.74585 8.3666,8.3666c0,4.62075 -3.74585,8.3666 -8.3666,8.3666c-4.62075,0 -8.3666,-3.74585 -8.3666,-8.3666z" fill="#1f95ff"/><text x="330" y="1120" fill="#000000" font-family="Inter" font-weight="800" font-size="16" text-anchor="middle">Kerala</text><text x="330" y="1152" fill="#1f95ff" font-family="Inter" font-weight="500" font-size="20" text-anchor="middle">70</text></g><g><path d="M322.85857,608.85857c0,-3.9441 3.19733,-7.14143 7.14143,-7.14143c3.9441,0 7.14143,3.19733 7.14143,7.14143c0,3.9441 -3.19733,7.14143 -7.14143,7.14143c-3.9441,0 -7.14143,-3.19733 -7.14143,-7.14143z" fill="#1f95ff"/><text x="330" y="640" fill="#000000" font-family="Inter" font-weight="800" font-size="16" text-anchor="middle">Madhya Pradesh</text><text x="330" y="672" fill="#1f95ff" font-family="Inter" font-weight="500" font-size="20" text-anchor="middle">51</text></g><g><path d="M320.94461,766.94461c0,-5.00115 4.05423,-9.05539 9.05539,-9.05539c5.00115,0 9.05539,4.05423 9.05539,9.05539c0,5.00115 -4.05423,9.05539 -9.05539,9.05539c-5.00115,0 -9.05539,-4.05423 -9.05539,-9.05539z" fill="#1f95ff"/><text x="330" y="800" fill="#000000" font-family="Inter" font-weight="800" font-size="16" text-anchor="middle">Maharashtra</text><text x="330" y="832" fill="#1f95ff" font-family="Inter" font-weight="500" font-size="20" text-anchor="middle">82</text></g><g><path d="M1018.04174,604.04174c0,-6.60437 5.3539,-11.95826 11.95826,-11.95826c6.60437,0 11.95826,5.3539 11.95826,11.95826c0,6.60437 -5.3539,11.95826 -11.95826,11.95826c-6.60437,0 -11.95826,-5.3539 -11.95826,-11.95826z" fill="#1f95ff"/><text x="1030" y="640" fill="#000000" font-family="Inter" font-weight="800" font-size="16" text-anchor="middle">Manipur</text><text x="1030" y="672" fill="#1f95ff" font-family="Inter" font-weight="500" font-size="20" text-anchor="middle">143</text></g><g><path d="M883.83559,609.83559c0,-3.40451 2.7599,-6.16441 6.16441,-6.16441c3.40451,0 6.16441,2.7599 6.16441,6.16441c0,3.40451 -2.7599,6.16441 -6.16441,6.16441c-3.40451,0 -6.16441,-2.7599 -6.16441,-6.16441z" fill="#1f95ff"/><text x="890" y="640" fill="#000000" font-family="Inter" font-weight="800" font-size="16" text-anchor="middle">Meghalaya</text><text x="890" y="672" fill="#1f95ff" font-family="Inter" font-weight="500" font-size="20" text-anchor="middle">38</text></g><g><path d="M1023.51926,449.51926c0,-3.57921 2.90153,-6.48074 6.48074,-6.48074c3.57921,0 6.48074,2.90153 6.48074,6.48074c0,3.57921 -2.90153,6.48074 -6.48074,6.48074c-3.57921,0 -6.48074,-2.90153 -6.48074,-6.48074z" fill="#1f95ff"/><text x="1030" y="480" fill="#000000" font-family="Inter" font-weight="800" font-size="16" text-anchor="middle">Nagaland</text><text x="1030" y="512" fill="#1f95ff" font-family="Inter" font-weight="500" font-size="20" text-anchor="middle">42</text></g><g><path d="M186.39445,292.39445c0,-1.99129 1.61426,-3.60555 3.60555,-3.60555c1.99129,0 3.60555,1.61426 3.60555,3.60555c0,1.99129 -1.61426,3.60555 -3.60555,3.60555c-1.99129,0 -3.60555,-1.61426 -3.60555,-3.60555z" fill="#1f95ff"/><text x="190" y="320" fill="#000000" font-family="Inter" font-weight="800" font-size="16" text-anchor="middle">Punjab</text><text x="190" y="352" fill="#1f95ff" font-family="Inter" font-weight="500" font-size="20" text-anchor="middle">13</text></g><g><path d="M184.80385,450.80385c0,-2.86976 2.3264,-5.19615 5.19615,-5.19615c2.86976,0 5.19615,2.3264 5.19615,5.19615c0,2.86976 -2.3264,5.19615 -5.19615,5.19615c-2.86976,0 -5.19615,-2.3264 -5.19615,-5.19615z" fill="#1f95ff"/><text x="190" y="480" fill="#000000" font-family="Inter" font-weight="800" font-size="16" text-anchor="middle">Rajasthan</text><text x="190" y="512" fill="#1f95ff" font-family="Inter" font-weight="500" font-size="20" text-anchor="middle">27</text></g><g><path d="M441.10363,1067.10363c0,-15.95902 12.93734,-28.89637 28.89637,-28.89637c15.95902,0 28.89637,12.93734 28.89637,28.89637c0,15.95902 -12.93734,28.89637 -28.89637,28.89637c-15.95902,0 -28.89637,-12.93734 -28.89637,-28.89637z" fill="#1f95ff"/><text x="470" y="1120" fill="#000000" font-family="Inter" font-weight="800" font-size="16" text-anchor="middle">Tamil Nadu</text><text x="470" y="1152" fill="#1f95ff" font-family="Inter" font-weight="500" font-size="20" text-anchor="middle">835</text></g><g><path d="M592.85357,438.85357c0,-9.46971 7.67672,-17.14643 17.14643,-17.14643c9.46971,0 17.14643,7.67672 17.14643,17.14643c0,9.46971 -7.67672,17.14643 -17.14643,17.14643c-9.46971,0 -17.14643,-7.67672 -17.14643,-17.14643z" fill="#1f95ff"/><text x="610" y="480" fill="#000000" font-family="Inter" font-weight="800" font-size="16" text-anchor="middle">Uttar Pradesh</text><text x="610" y="512" fill="#1f95ff" font-family="Inter" font-weight="500" font-size="20" text-anchor="middle">294</text></g><g><path d="M748.26795,614.26795c0,-0.95659 0.77547,-1.73205 1.73205,-1.73205c0.95659,0 1.73205,0.77547 1.73205,1.73205c0,0.95659 -0.77547,1.73205 -1.73205,1.73205c-0.95659,0 -1.73205,-0.77547 -1.73205,-1.73205z" fill="#1f95ff"/><text x="750" y="640" fill="#000000" font-family="Inter" font-weight="800" font-size="16" text-anchor="middle">West Bengal</text><text x="750" y="672" fill="#1f95ff" font-family="Inter" font-weight="500" font-size="20" text-anchor="middle">3</text></g><g><path d="M466.12702,452.12702c0,-2.13899 1.73399,-3.87298 3.87298,-3.87298c2.13899,0 3.87298,1.73399 3.87298,3.87298c0,2.13899 -1.73399,3.87298 -3.87298,3.87298c-2.13899,0 -3.87298,-1.73399 -3.87298,-3.87298z" fill="#1f95ff"/><text x="470" y="480" fill="#000000" font-family="Inter" font-weight="800" font-size="16" text-anchor="middle">Delhi</text><text x="470" y="512" fill="#1f95ff" font-family="Inter" font-weight="500" font-size="20" text-anchor="middle">15</text></g></g></svg>