<svg version="1.1" xmlns="http://www.w3.org/2000/svg" xmlns:xlink="http://www.w3.org/1999/xlink" width="1200" height="1399.99219" viewBox="0,0,1200,1399.99219"><g fill="none" fill-rule="nonzero" stroke="none" stroke-width="1" stroke-linecap="butt" stroke-linejoin="miter" stroke-miterlimit="10" stroke-dasharray="" stroke-dashoffset="0" font-family="none" font-weight="none" font-size="none" text-anchor="none" style="mix-blend-mode: normal"><g><path d="M464.52277,930.52277c0,-3.02499 2.45224,-5.47723 5.47723,-5.47723c3.02499,0 5.47723,2.45224 5.47723,5.47723c0,3.02499 -2.45224,5.47723 -5.47723,5.47723c-3.02499,0 -5.47723,-2.45224 -5.47723,-5.47723z" fill="#1f95ff"/><text x="470" y="960" fill="#000000" font-family="Inter" font-weight="800" font-size="16" text-anchor="middle">Andhra Pradesh</text><text x="470" y="992" fill="#1f95ff" font-family="Inter" font-weight="500" font-size="20" text-anchor="middle">30</text></g><g><path d="M888.26795,454.26795c0,-0.95659 0.77547,-1.73205 1.73205,-1.73205c0.95659,0 1.73205,0.77547 1.73205,1.73205c0,0.95659 -0.77547,1.73205 -1.73205,1.73205c-0.95659,0 -1.73205,-0.77547 -1.73205,-1.73205z" fill="#1f95ff"/><text x="890" y="480" fill="#000000" font-family="Inter" font-weight="800" font-size="16" text-anchor="middle">Assam</text><text x="890" y="512" fill="#1f95ff" font-family="Inter" font-weight="500" font-size="20" text-anchor="middle">3</text></g><g><path d="M744.16905,450.16905c0,-3.22035 2.61061,-5.83095 5.83095,-5.83095c3.22035,0 5.83095,2.61061 5.83095,5.83095c0,3.22035 -2.61061,5.83095 -5.83095,5.83095c-3.22035,0 -5.83095,-2.61061 -5.83095,-5.83095z" fill="#1f95ff"/><text x="750" y="480" fill="#000000" font-family="Inter" font-weight="800" font-size="16" text-anchor="middle">Bihar</text><text x="750" y="512" fill="#1f95ff" font-family="Inter" font-weight="500" font-size="20" text-anchor="middle">34</text></g><g><path d="M469,615c0,-0.55228 0.44772,-1 1,-1c0.55228,0 1,0.44772 1,1c0,0.55228 -0.44772,1 -1,1c-0.55228,0 -1,-0.44772 -1,-1z" fill="#1f95ff"/><text x="470" y="640" fill="#000000" font-family="Inter" font-weight="800" font-size="16" text-anchor="middle">Chhattisgarh</text><text x="470" y="672" fill="#1f95ff" font-family="Inter" font-weight="500" font-size="20" text-anchor="middle">1</text></g><g><path d="M174.3795,600.3795c0,-8.62696 6.99354,-15.6205 15.6205,-15.6205c8.62696,0 15.6205,6.99354 15.6205,15.6205c0,8.62696 -6.99354,15.6205 -15.6205,15.6205c-8.62696,0 -15.6205,-6.99354 -15.6205,-15.6205z" fill="#1f95ff"/><text x="190" y="640" fill="#000000" font-family="Inter" font-weight="800" font-size="16" text-anchor="middle">Gujarat</text><text x="190" y="672" fill="#1f95ff" font-family="Inter" font-weight="500" font-size="20" text-anchor="middle">244</text></g><g><path d="M449.77625,115.77625c0,-11.16927 9.05448,-20.22375 20.22375,-20.22375c11.16927,0 20.22375,9.05448 20.22375,20.22375c0,11.16927 -9.05448,20.22375 -20.22375,20.22375c-11.16927,0 -20.22375,-9.05448 -20.22375,-20.22375z" fill="#1f95ff"/><text x="470" y="160" fill="#000000" font-family="Inter" font-weight="800" font-size="16" text-anchor="middle">Jammu &amp; Kashmir</text><text x="470" y="192" fill="#1f95ff" font-family="Inter" font-weight="500" font-size="20" text-anchor="middle">409</text></g><g><path d="M606,612c0,-2.20914 1.79086,-4 4,-4c2.20914,0 4,1.79086 4,4c0,2.20914 -1.79086,4 -4,4c-2.20914,0 -4,-1.79086 -4,-4z" fill="#1f95ff"/><text x="610" y="640" fill="#000000" font-family="Inter" font-weight="800" font-size="16" text-anchor="middle">Jharkhand</text><text x="610" y="672" fill="#1f95ff" font-family="Inter" font-weight="500" font-size="20" text-anchor="middle">16</text></g><g><path d="M326.5359,932.5359c0,-1.91317 1.55093,-3.4641 3.4641,-3.4641c1.91317,0 3.4641,1.55093 3.4641,3.4641c0,1.91317 -1.55093,3.4641 -3.4641,3.4641c-1.91317,0 -3.4641,-1.55093 -3.4641,-3.4641z" fill="#1f95ff"/><text x="330" y="960" fill="#000000" font-family="Inter" font-weight="800" font-size="16" text-anchor="middle">Karnataka</text><text x="330" y="992" fill="#1f95ff" font-family="Inter" font-weight="500" font-size="20" text-anchor="middle">12</text></g><g><path d="M327.55051,1093.55051c0,-1.35282 1.09667,-2.44949 2.44949,-2.44949c1.35282,0 2.44949,1.09667 2.44949,2.44949c0,1.35282 -1.09667,2.44949 -2.44949,2.44949c-1.35282,0 -2.44949,-1.09667 -2.44949,-2.44949z" fill="#1f95ff"/><text x="330" y="1120" fill="#000000" font-family="Inter" font-weight="800" font-size="16" text-anchor="middle">Kerala</text><text x="330" y="1152" fill="#1f95ff" font-family="Inter" font-weight="500" font-size="20" text-anchor="middle">6</text></g><g><path d="M320.72638,606.72638c0,-5.12168 4.15194,-9.27362 9.27362,-9.27362c5.12168,0 9.27362,4.15194 9.27362,9.27362c0,5.12168 -4.15194,9.27362 -9.27362,9.27362c-5.12168,0 -9.27362,-4.15194 -9.27362,-9.27362z" fill="#1f95ff"/><text x="330" y="640" fill="#000000" font-family="Inter" font-weight="800" font-size="16" text-anchor="middle">Madhya Pradesh</text><text x="330" y="672" fill="#1f95ff" font-family="Inter" font-weight="500" font-size="20" text-anchor="middle">86</text></g><g><path d="M321.22504,767.22504c0,-4.84628 3.92869,-8.77496 8.77496,-8.77496c4.84628,0 8.77496,3.92869 8.77496,8.77496c0,4.84628 -3.92869,8.77496 -8.77496,8.77496c-4.84628,0 -8.77496,-3.92869 -8.77496,-8.77496z" fill="#1f95ff"/><text x="330" y="800" fill="#000000" font-family="Inter" font-weight="800" font-size="16" text-anchor="middle">Maharashtra</text><text x="330" y="832" fill="#1f95ff" font-family="Inter" font-weight="500" font-size="20" text-anchor="middle">77</text></g><g><path d="M1015.40548,601.40548c0,-8.06033 6.53419,-14.59452 14.59452,-14.59452c8.06033,0 14.59452,6.53419 14.59452,14.59452c0,8.06033 -6.53419,14.59452 -14.59452,14.59452c-8.06033,0 -14.59452,-6.53419 -14.59452,-14.59452z" fill="#1f95ff"/><text x="1030" y="640" fill="#000000" font-family="Inter" font-weight="800" font-size="16" text-anchor="middle">Manipur</text><text x="1030" y="672" fill="#1f95ff" font-family="Inter" font-weight="500" font-size="20" text-anchor="middle">213</text></g><g><path d="M883.44256,609.44256c0,-3.62157 2.93587,-6.55744 6.55744,-6.55744c3.62157,0 6.55744,2.93587 6.55744,6.55744c0,3.62157 -2.93587,6.55744 -6.55744,6.55744c-3.62157,0 -6.55744,-2.93587 -6.55744,-6.55744z" fill="#1f95ff"/><text x="890" y="640" fill="#000000" font-family="Inter" font-weight="800" font-size="16" text-anchor="middle">Meghalaya</text><text x="890" y="672" fill="#1f95ff" font-family="Inter" font-weight="500" font-size="20" text-anchor="middle">43</text></g><g><path d="M1024.25544,450.25544c0,-3.17263 2.57193,-5.74456 5.74456,-5.74456c3.17263,0 5.74456,2.57193 5.74456,5.74456c0,3.17263 -2.57193,5.74456 -5.74456,5.74456c-3.17263,0 -5.74456,-2.57193 -5.74456,-5.74456z" fill="#1f95ff"/><text x="1030" y="480" fill="#000000" font-family="Inter" font-weight="800" font-size="16" text-anchor="middle">Nagaland</text><text x="1030" y="512" fill="#1f95ff" font-family="Inter" font-weight="500" font-size="20" text-anchor="middle">33</text></g><g><path d="M184.52277,450.52277c0,-3.02499 2.45224,-5.47723 5.47723,-5.47723c3.02499,0 5.47723,2.45224 5.47723,5.47723c0,3.02499 -2.45224,5.47723 -5.47723,5.47723c-3.02499,0 -5.47723,-2.45224 -5.47723,-5.47723z" fill="#1f95ff"/><text x="190" y="480" fill="#000000" font-family="Inter" font-weight="800" font-size="16" text-anchor="middle">Rajasthan</text><text x="190" y="512" fill="#1f95ff" font-family="Inter" font-weight="500" font-size="20" text-anchor="middle">30</text></g><g><path d="M441.13826,1067.13826c0,-15.9399 12.92184,-28.86174 28.86174,-28.86174c15.9399,0 28.86174,12.92184 28.86174,28.86174c0,15.9399 -12.92184,28.86174 -28.86174,28.86174c-15.9399,0 -28.86174,-12.92184 -28.86174,-28.86174z" fill="#1f95ff"/><text x="470" y="1120" fill="#000000" font-family="Inter" font-weight="800" font-size="16" text-anchor="middle">Tamil Nadu</text><text x="470" y="1152" fill="#1f95ff" font-family="Inter" font-weight="500" font-size="20" text-anchor="middle">833</text></g><g><path d="M594.57275,440.57275c0,-8.52023 6.90701,-15.42725 15.42725,-15.42725c8.52023,0 15.42725,6.90701 15.42725,15.42725c0,8.52023 -6.90701,15.42725 -15.42725,15.42725c-8.52023,0 -15.42725,-6.90701 -15.42725,-15.42725z" fill="#1f95ff"/><text x="610" y="480" fill="#000000" font-family="Inter" font-weight="800" font-size="16" text-anchor="middle">Uttar Pradesh</text><text x="610" y="512" fill="#1f95ff" font-family="Inter" font-weight="500" font-size="20" text-anchor="middle">238</text></g><g><path d="M749,615c0,-0.55228 0.44772,-1 1,-1c0.55228,0 1,0.44772 1,1c0,0.55228 -0.44772,1 -1,1c-0.55228,0 -1,-0.44772 -1,-1z" fill="#1f95ff"/><text x="750" y="640" fill="#000000" font-family="Inter" font-weight="800" font-size="16" text-anchor="middle">West Bengal</text><text x="750" y="672" fill="#1f95ff" font-family="Inter" font-weight="500" font-size="20" text-anchor="middle">1</text></g><g><path d="M466.39445,452.39445c0,-1.99129 1.61426,-3.60555 3.60555,-3.60555c1.99129,0 3.60555,1.61426 3.60555,3.60555c0,1.99129 -1.61426,3.60555 -3.60555,3.60555c-1.99129,0 -3.60555,-1.61426 -3.60555,-3.60555z" fill="#1f95ff"/><text x="470" y="480" fill="#000000" font-family="Inter" font-weight="800" font-size="16" text-anchor="middle">Delhi</text><text x="470" y="512" fill="#1f95ff" font-family="Inter" font-weight="500" font-size="20" text-anchor="middle">13</text></g><g><path d="M608.26795,934.26795c0,-0.95659 0.77547,-1.73205 1.73205,-1.73205c0.95659,0 1.73205,0.77547 1.73205,1.73205c0,0.95659 -0.77547,1.73205 -1.73205,1.73205c-0.95659,0 -1.73205,-0.77547 -1.73205,-1.73205z" fill="#1f95ff"/><text x="610" y="960" fill="#000000" font-family="Inter" font-weight="800" font-size="16" text-anchor="middle">Puducherry</text><text x="610" y="992" fill="#1f95ff" font-family="Inter" font-weight="500" font-size="20" text-anchor="middle">3</text></g></g></svg>