<svg version="1.1" xmlns="http://www.w3.org/2000/svg" xmlns:xlink="http://www.w3.org/1999/xlink" width="1200" height="1399.99219" viewBox="0,0,1200,1399.99219"><g fill="none" fill-rule="nonzero" stroke="none" stroke-width="1" stroke-linecap="butt" stroke-linejoin="miter" stroke-miterlimit="10" stroke-dasharray="" stroke-dashoffset="0" font-family="none" font-weight="none" font-size="none" text-anchor="none" style="mix-blend-mode: normal"><g><path d="M466.25834,932.25834c0,-2.06646 1.6752,-3.74166 3.74166,-3.74166c2.06646,0 3.74166,1.6752 3.74166,3.74166c0,2.06646 -1.6752,3.74166 -3.74166,3.74166c-2.06646,0 -3.74166,-1.6752 -3.74166,-3.74166z" fill="#1f95ff"/><text x="470" y="960" fill="#000000" font-family="Inter" font-weight="800" font-size="16" text-anchor="middle">Andhra Pradesh</text><text x="470" y="992" fill="#1f95ff" font-family="Inter" font-weight="500" font-size="20" text-anchor="middle">14</text></g><g><path d="M747.17157,453.17157c0,-1.5621 1.26633,-2.82843 2.82843,-2.82843c1.5621,0 2.82843,1.26633 2.82843,2.82843c0,1.5621 -1.26633,2.82843 -2.82843,2.82843c-1.5621,0 -2.82843,-1.26633 -2.82843,-2.82843z" fill="#1f95ff"/><text x="750" y="480" fill="#000000" font-family="Inter" font-weight="800" font-size="16" text-anchor="middle">Bihar</text><text x="750" y="512" fill="#1f95ff" font-family="Inter" font-weight="500" font-size="20" text-anchor="middle">8</text></g><g><path d="M169.97502,595.97502c0,-11.05949 8.96549,-20.02498 20.02498,-20.02498c11.05949,0 20.02498,8.96549 20.02498,20.02498c0,11.05949 -8.96549,20.02498 -20.02498,20.02498c-11.05949,0 -20.02498,-8.96549 -20.02498,-20.02498z" fill="#1f95ff"/><text x="190" y="640" fill="#000000" font-family="Inter" font-weight="800" font-size="16" text-anchor="middle">Gujarat</text><text x="190" y="672" fill="#1f95ff" font-family="Inter" font-weight="500" font-size="20" text-anchor="middle">401</text></g><g><path d="M454.54038,120.54038c0,-8.53812 6.92151,-15.45962 15.45962,-15.45962c8.53812,0 15.45962,6.92151 15.45962,15.45962c0,8.53812 -6.92151,15.45962 -15.45962,15.45962c-8.53812,0 -15.45962,-6.92151 -15.45962,-15.45962z" fill="#1f95ff"/><text x="470" y="160" fill="#000000" font-family="Inter" font-weight="800" font-size="16" text-anchor="middle">Jammu &amp; Kashmir</text><text x="470" y="192" fill="#1f95ff" font-family="Inter" font-weight="500" font-size="20" text-anchor="middle">239</text></g><g><path d="M605.75736,611.75736c0,-2.34315 1.89949,-4.24264 4.24264,-4.24264c2.34315,0 4.24264,1.89949 4.24264,4.24264c0,2.34315 -1.89949,4.24264 -4.24264,4.24264c-2.34315,0 -4.24264,-1.89949 -4.24264,-4.24264z" fill="#1f95ff"/><text x="610" y="640" fill="#000000" font-family="Inter" font-weight="800" font-size="16" text-anchor="middle">Jharkhand</text><text x="610" y="672" fill="#1f95ff" font-family="Inter" font-weight="500" font-size="20" text-anchor="middle">18</text></g><g><path d="M327.55051,933.55051c0,-1.35282 1.09667,-2.44949 2.44949,-2.44949c1.35282,0 2.44949,1.09667 2.44949,2.44949c0,1.35282 -1.09667,2.44949 -2.44949,2.44949c-1.35282,0 -2.44949,-1.09667 -2.44949,-2.44949z" fill="#1f95ff"/><text x="330" y="960" fill="#000000" font-family="Inter" font-weight="800" font-size="16" text-anchor="middle">Karnataka</text><text x="330" y="992" fill="#1f95ff" font-family="Inter" font-weight="500" font-size="20" text-anchor="middle">6</text></g><g><path d="M327.17157,1093.17157c0,-1.5621 1.26633,-2.82843 2.82843,-2.82843c1.5621,0 2.82843,1.26633 2.82843,2.82843c0,1.5621 -1.26633,2.82843 -2.82843,2.82843c-1.5621,0 -2.82843,-1.26633 -2.82843,-2.82843z" fill="#1f95ff"/><text x="330" y="1120" fill="#000000" font-family="Inter" font-weight="800" font-size="16" text-anchor="middle">Kerala</text><text x="330" y="1152" fill="#1f95ff" font-family="Inter" font-weight="500" font-size="20" text-anchor="middle">8</text></g><g><path d="M318.51087,604.51087c0,-6.34527 5.14386,-11.48913 11.48913,-11.48913c6.34527,0 11.48913,5.14386 11.48913,11.48913c0,6.34527 -5.14386,11.48913 -11.48913,11.48913c-6.34527,0 -11.48913,-5.14386 -11.48913,-11.48913z" fill="#1f95ff"/><text x="330" y="640" fill="#000000" font-family="Inter" font-weight="800" font-size="16" text-anchor="middle">Madhya Pradesh</text><text x="330" y="672" fill="#1f95ff" font-family="Inter" font-weight="500" font-size="20" text-anchor="middle">132</text></g><g><path d="M321.87596,767.87596c0,-4.48678 3.63726,-8.12404 8.12404,-8.12404c4.48678,0 8.12404,3.63726 8.12404,8.12404c0,4.48678 -3.63726,8.12404 -8.12404,8.12404c-4.48678,0 -8.12404,-3.63726 -8.12404,-8.12404z" fill="#1f95ff"/><text x="330" y="800" fill="#000000" font-family="Inter" font-weight="800" font-size="16" text-anchor="middle">Maharashtra</text><text x="330" y="832" fill="#1f95ff" font-family="Inter" font-weight="500" font-size="20" text-anchor="middle">66</text></g><g><path d="M1017.31142,603.31142c0,-7.00771 5.68087,-12.68858 12.68858,-12.68858c7.00771,0 12.68858,5.68087 12.68858,12.68858c0,7.00771 -5.68087,12.68858 -12.68858,12.68858c-7.00771,0 -12.68858,-5.68087 -12.68858,-12.68858z" fill="#1f95ff"/><text x="1030" y="640" fill="#000000" font-family="Inter" font-weight="800" font-size="16" text-anchor="middle">Manipur</text><text x="1030" y="672" fill="#1f95ff" font-family="Inter" font-weight="500" font-size="20" text-anchor="middle">161</text></g><g><path d="M884.80385,610.80385c0,-2.86976 2.3264,-5.19615 5.19615,-5.19615c2.86976,0 5.19615,2.3264 5.19615,5.19615c0,2.86976 -2.3264,5.19615 -5.19615,5.19615c-2.86976,0 -5.19615,-2.3264 -5.19615,-5.19615z" fill="#1f95ff"/><text x="890" y="640" fill="#000000" font-family="Inter" font-weight="800" font-size="16" text-anchor="middle">Meghalaya</text><text x="890" y="672" fill="#1f95ff" font-family="Inter" font-weight="500" font-size="20" text-anchor="middle">27</text></g><g><path d="M1021.456,447.456c0,-4.71872 3.82528,-8.544 8.544,-8.544c4.71872,0 8.544,3.82528 8.544,8.544c0,4.71872 -3.82528,8.544 -8.544,8.544c-4.71872,0 -8.544,-3.82528 -8.544,-8.544z" fill="#1f95ff"/><text x="1030" y="480" fill="#000000" font-family="Inter" font-weight="800" font-size="16" text-anchor="middle">Nagaland</text><text x="1030" y="512" fill="#1f95ff" font-family="Inter" font-weight="500" font-size="20" text-anchor="middle">73</text></g><g><path d="M183.67544,449.67544c0,-3.49296 2.8316,-6.32456 6.32456,-6.32456c3.49296,0 6.32456,2.8316 6.32456,6.32456c0,3.49296 -2.8316,6.32456 -6.32456,6.32456c-3.49296,0 -6.32456,-2.8316 -6.32456,-6.32456z" fill="#1f95ff"/><text x="190" y="480" fill="#000000" font-family="Inter" font-weight="800" font-size="16" text-anchor="middle">Rajasthan</text><text x="190" y="512" fill="#1f95ff" font-family="Inter" font-weight="500" font-size="20" text-anchor="middle">40</text></g><g><path d="M438.64717,1064.64717c0,-17.31569 14.03714,-31.35283 31.35283,-31.35283c17.31569,0 31.35283,14.03714 31.35283,31.35283c0,17.31569 -14.03714,31.35283 -31.35283,31.35283c-17.31569,0 -31.35283,-14.03714 -31.35283,-31.35283z" fill="#1f95ff"/><text x="470" y="1120" fill="#000000" font-family="Inter" font-weight="800" font-size="16" text-anchor="middle">Tamil Nadu</text><text x="470" y="1152" fill="#1f95ff" font-family="Inter" font-weight="500" font-size="20" text-anchor="middle">983</text></g><g><path d="M595.40548,441.40548c0,-8.06033 6.53419,-14.59452 14.59452,-14.59452c8.06033,0 14.59452,6.53419 14.59452,14.59452c0,8.06033 -6.53419,14.59452 -14.59452,14.59452c-8.06033,0 -14.59452,-6.53419 -14.59452,-14.59452z" fill="#1f95ff"/><text x="610" y="480" fill="#000000" font-family="Inter" font-weight="800" font-size="16" text-anchor="middle">Uttar Pradesh</text><text x="610" y="512" fill="#1f95ff" font-family="Inter" font-weight="500" font-size="20" text-anchor="middle">213</text></g><g><path d="M747.76393,613.76393c0,-1.23495 1.00112,-2.23607 2.23607,-2.23607c1.23495,0 2.23607,1.00112 2.23607,2.23607c0,1.23495 -1.00112,2.23607 -2.23607,2.23607c-1.23495,0 -2.23607,-1.00112 -2.23607,-2.23607z" fill="#1f95ff"/><text x="750" y="640" fill="#000000" font-family="Inter" font-weight="800" font-size="16" text-anchor="middle">West Bengal</text><text x="750" y="672" fill="#1f95ff" font-family="Inter" font-weight="500" font-size="20" text-anchor="middle">5</text></g><g><path d="M467.55051,453.55051c0,-1.35282 1.09667,-2.44949 2.44949,-2.44949c1.35282,0 2.44949,1.09667 2.44949,2.44949c0,1.35282 -1.09667,2.44949 -2.44949,2.44949c-1.35282,0 -2.44949,-1.09667 -2.44949,-2.44949z" fill="#1f95ff"/><text x="470" y="480" fill="#000000" font-family="Inter" font-weight="800" font-size="16" text-anchor="middle">Delhi</text><text x="470" y="512" fill="#1f95ff" font-family="Inter" font-weight="500" font-size="20" text-anchor="middle">6</text></g><g><path d="M182.92893,1088.92893c0,-3.90524 3.16582,-7.07107 7.07107,-7.07107c3.90524,0 7.07107,3.16582 7.07107,7.07107c0,3.90524 -3.16582,7.07107 -7.07107,7.07107c-3.90524,0 -7.07107,-3.16582 -7.07107,-7.07107z" fill="#1f95ff"/><text x="190" y="1120" fill="#000000" font-family="Inter" font-weight="800" font-size="16" text-anchor="middle">Lakshadweep</text><text x="190" y="1152" fill="#1f95ff" font-family="Inter" font-weight="500" font-size="20" text-anchor="middle">50</text></g></g></svg>