<svg version="1.1" xmlns="http://www.w3.org/2000/svg" xmlns:xlink="http://www.w3.org/1999/xlink" width="1200" height="1399.99219" viewBox="0,0,1200,1399.99219"><g fill="none" fill-rule="nonzero" stroke="none" stroke-width="1" stroke-linecap="butt" stroke-linejoin="miter" stroke-miterlimit="10" stroke-dasharray="" stroke-dashoffset="0" font-family="none" font-weight="none" font-size="none" text-anchor="none" style="mix-blend-mode: normal"><g><path d="M468,934c0,-1.10457 0.89543,-2 2,-2c1.10457,0 2,0.89543 2,2c0,1.10457 -0.89543,2 -2,2c-1.10457,0 -2,-0.89543 -2,-2z" fill="#1f95ff"/><text x="470" y="960" fill="#000000" font-family="Inter" font-weight="800" font-size="16" text-anchor="middle">Andhra Pradesh</text><text x="470" y="992" fill="#1f95ff" font-family="Inter" font-weight="500" font-size="20" text-anchor="middle">4</text></g><g><path d="M888.26795,454.26795c0,-0.95659 0.77547,-1.73205 1.73205,-1.73205c0.95659,0 1.73205,0.77547 1.73205,1.73205c0,0.95659 -0.77547,1.73205 -1.73205,1.73205c-0.95659,0 -1.73205,-0.77547 -1.73205,-1.73205z" fill="#1f95ff"/><text x="890" y="480" fill="#000000" font-family="Inter" font-weight="800" font-size="16" text-anchor="middle">Assam</text><text x="890" y="512" fill="#1f95ff" font-family="Inter" font-weight="500" font-size="20" text-anchor="middle">3</text></g><g><path d="M743.67544,449.67544c0,-3.49296 2.8316,-6.32456 6.32456,-6.32456c3.49296,0 6.32456,2.8316 6.32456,6.32456c0,3.49296 -2.8316,6.32456 -6.32456,6.32456c-3.49296,0 -6.32456,-2.8316 -6.32456,-6.32456z" fill="#1f95ff"/><text x="750" y="480" fill="#000000" font-family="Inter" font-weight="800" font-size="16" text-anchor="middle">Bihar</text><text x="750" y="512" fill="#1f95ff" font-family="Inter" font-weight="500" font-size="20" text-anchor="middle">40</text></g><g><path d="M167.21843,593.21843c0,-12.58191 10.19966,-22.78157 22.78157,-22.78157c12.58191,0 22.78157,10.19966 22.78157,22.78157c0,12.58191 -10.19966,22.78157 -22.78157,22.78157c-12.58191,0 -22.78157,-10.19966 -22.78157,-22.78157z" fill="#1f95ff"/><text x="190" y="640" fill="#000000" font-family="Inter" font-weight="800" font-size="16" text-anchor="middle">Gujarat</text><text x="190" y="672" fill="#1f95ff" font-family="Inter" font-weight="500" font-size="20" text-anchor="middle">519</text></g><g><path d="M458,124c0,-6.62742 5.37258,-12 12,-12c6.62742,0 12,5.37258 12,12c0,6.62742 -5.37258,12 -12,12c-6.62742,0 -12,-5.37258 -12,-12z" fill="#1f95ff"/><text x="470" y="160" fill="#000000" font-family="Inter" font-weight="800" font-size="16" text-anchor="middle">Jammu &amp; Kashmir</text><text x="470" y="192" fill="#1f95ff" font-family="Inter" font-weight="500" font-size="20" text-anchor="middle">144</text></g><g><path d="M606,612c0,-2.20914 1.79086,-4 4,-4c2.20914,0 4,1.79086 4,4c0,2.20914 -1.79086,4 -4,4c-2.20914,0 -4,-1.79086 -4,-4z" fill="#1f95ff"/><text x="610" y="640" fill="#000000" font-family="Inter" font-weight="800" font-size="16" text-anchor="middle">Jharkhand</text><text x="610" y="672" fill="#1f95ff" font-family="Inter" font-weight="500" font-size="20" text-anchor="middle">16</text></g><g><path d="M320.15114,926.15114c0,-5.43937 4.40948,-9.84886 9.84886,-9.84886c5.43937,0 9.84886,4.40948 9.84886,9.84886c0,5.43937 -4.40948,9.84886 -9.84886,9.84886c-5.43937,0 -9.84886,-4.40948 -9.84886,-9.84886z" fill="#1f95ff"/><text x="330" y="960" fill="#000000" font-family="Inter" font-weight="800" font-size="16" text-anchor="middle">Karnataka</text><text x="330" y="992" fill="#1f95ff" font-family="Inter" font-weight="500" font-size="20" text-anchor="middle">97</text></g><g><path d="M327,1093c0,-1.65685 1.34315,-3 3,-3c1.65685,0 3,1.34315 3,3c0,1.65685 -1.34315,3 -3,3c-1.65685,0 -3,-1.34315 -3,-3z" fill="#1f95ff"/><text x="330" y="1120" fill="#000000" font-family="Inter" font-weight="800" font-size="16" text-anchor="middle">Kerala</text><text x="330" y="1152" fill="#1f95ff" font-family="Inter" font-weight="500" font-size="20" text-anchor="middle">9</text></g><g><path d="M318.21017,604.21017c0,-6.51134 5.27848,-11.78983 11.78983,-11.78983c6.51134,0 11.78983,5.27848 11.78983,11.78983c0,6.51134 -5.27848,11.78983 -11.78983,11.78983c-6.51134,0 -11.78983,-5.27848 -11.78983,-11.78983z" fill="#1f95ff"/><text x="330" y="640" fill="#000000" font-family="Inter" font-weight="800" font-size="16" text-anchor="middle">Madhya Pradesh</text><text x="330" y="672" fill="#1f95ff" font-family="Inter" font-weight="500" font-size="20" text-anchor="middle">139</text></g><g><path d="M323.51926,769.51926c0,-3.57921 2.90153,-6.48074 6.48074,-6.48074c3.57921,0 6.48074,2.90153 6.48074,6.48074c0,3.57921 -2.90153,6.48074 -6.48074,6.48074c-3.57921,0 -6.48074,-2.90153 -6.48074,-6.48074z" fill="#1f95ff"/><text x="330" y="800" fill="#000000" font-family="Inter" font-weight="800" font-size="16" text-anchor="middle">Maharashtra</text><text x="330" y="832" fill="#1f95ff" font-family="Inter" font-weight="500" font-size="20" text-anchor="middle">42</text></g><g><path d="M1018.51087,604.51087c0,-6.34527 5.14386,-11.48913 11.48913,-11.48913c6.34527,0 11.48913,5.14386 11.48913,11.48913c0,6.34527 -5.14386,11.48913 -11.48913,11.48913c-6.34527,0 -11.48913,-5.14386 -11.48913,-11.48913z" fill="#1f95ff"/><text x="1030" y="640" fill="#000000" font-family="Inter" font-weight="800" font-size="16" text-anchor="middle">Manipur</text><text x="1030" y="672" fill="#1f95ff" font-family="Inter" font-weight="500" font-size="20" text-anchor="middle">132</text></g><g><path d="M885.41742,611.41742c0,-2.53089 2.05169,-4.58258 4.58258,-4.58258c2.53089,0 4.58258,2.05169 4.58258,4.58258c0,2.53089 -2.05169,4.58258 -4.58258,4.58258c-2.53089,0 -4.58258,-2.05169 -4.58258,-4.58258z" fill="#1f95ff"/><text x="890" y="640" fill="#000000" font-family="Inter" font-weight="800" font-size="16" text-anchor="middle">Meghalaya</text><text x="890" y="672" fill="#1f95ff" font-family="Inter" font-weight="500" font-size="20" text-anchor="middle">21</text></g><g><path d="M1025.6411,451.6411c0,-2.40735 1.95155,-4.3589 4.3589,-4.3589c2.40735,0 4.3589,1.95155 4.3589,4.3589c0,2.40735 -1.95155,4.3589 -4.3589,4.3589c-2.40735,0 -4.3589,-1.95155 -4.3589,-4.3589z" fill="#1f95ff"/><text x="1030" y="480" fill="#000000" font-family="Inter" font-weight="800" font-size="16" text-anchor="middle">Nagaland</text><text x="1030" y="512" fill="#1f95ff" font-family="Inter" font-weight="500" font-size="20" text-anchor="middle">19</text></g><g><path d="M187.17157,293.17157c0,-1.5621 1.26633,-2.82843 2.82843,-2.82843c1.5621,0 2.82843,1.26633 2.82843,2.82843c0,1.5621 -1.26633,2.82843 -2.82843,2.82843c-1.5621,0 -2.82843,-1.26633 -2.82843,-2.82843z" fill="#1f95ff"/><text x="190" y="320" fill="#000000" font-family="Inter" font-weight="800" font-size="16" text-anchor="middle">Punjab</text><text x="190" y="352" fill="#1f95ff" font-family="Inter" font-weight="500" font-size="20" text-anchor="middle">8</text></g><g><path d="M189,455c0,-0.55228 0.44772,-1 1,-1c0.55228,0 1,0.44772 1,1c0,0.55228 -0.44772,1 -1,1c-0.55228,0 -1,-0.44772 -1,-1z" fill="#1f95ff"/><text x="190" y="480" fill="#000000" font-family="Inter" font-weight="800" font-size="16" text-anchor="middle">Rajasthan</text><text x="190" y="512" fill="#1f95ff" font-family="Inter" font-weight="500" font-size="20" text-anchor="middle">1</text></g><g><path d="M447.13081,1073.13081c0,-12.63031 10.23889,-22.86919 22.86919,-22.86919c12.63031,0 22.86919,10.23889 22.86919,22.86919c0,12.63031 -10.23889,22.86919 -22.86919,22.86919c-12.63031,0 -22.86919,-10.23889 -22.86919,-22.86919z" fill="#1f95ff"/><text x="470" y="1120" fill="#000000" font-family="Inter" font-weight="800" font-size="16" text-anchor="middle">Tamil Nadu</text><text x="470" y="1152" fill="#1f95ff" font-family="Inter" font-weight="500" font-size="20" text-anchor="middle">523</text></g><g><path d="M595.96433,441.96433c0,-7.75169 6.28398,-14.03567 14.03567,-14.03567c7.75169,0 14.03567,6.28398 14.03567,14.03567c0,7.75169 -6.28398,14.03567 -14.03567,14.03567c-7.75169,0 -14.03567,-6.28398 -14.03567,-14.03567z" fill="#1f95ff"/><text x="610" y="480" fill="#000000" font-family="Inter" font-weight="800" font-size="16" text-anchor="middle">Uttar Pradesh</text><text x="610" y="512" fill="#1f95ff" font-family="Inter" font-weight="500" font-size="20" text-anchor="middle">197</text></g><g><path d="M748.26795,614.26795c0,-0.95659 0.77547,-1.73205 1.73205,-1.73205c0.95659,0 1.73205,0.77547 1.73205,1.73205c0,0.95659 -0.77547,1.73205 -1.73205,1.73205c-0.95659,0 -1.73205,-0.77547 -1.73205,-1.73205z" fill="#1f95ff"/><text x="750" y="640" fill="#000000" font-family="Inter" font-weight="800" font-size="16" text-anchor="middle">West Bengal</text><text x="750" y="672" fill="#1f95ff" font-family="Inter" font-weight="500" font-size="20" text-anchor="middle">3</text></g><g><path d="M467.76393,453.76393c0,-1.23495 1.00112,-2.23607 2.23607,-2.23607c1.23495,0 2.23607,1.00112 2.23607,2.23607c0,1.23495 -1.00112,2.23607 -2.23607,2.23607c-1.23495,0 -2.23607,-1.00112 -2.23607,-2.23607z" fill="#1f95ff"/><text x="470" y="480" fill="#000000" font-family="Inter" font-weight="800" font-size="16" text-anchor="middle">Delhi</text><text x="470" y="512" fill="#1f95ff" font-family="Inter" font-weight="500" font-size="20" text-anchor="middle">5</text></g></g></svg>