<svg version="1.1" xmlns="http://www.w3.org/2000/svg" xmlns:xlink="http://www.w3.org/1999/xlink" width="1200" height="1399.99219" viewBox="0,0,1200,1399.99219"><g fill="none" fill-rule="nonzero" stroke="none" stroke-width="1" stroke-linecap="butt" stroke-linejoin="miter" stroke-miterlimit="10" stroke-dasharray="" stroke-dashoffset="0" font-family="none" font-weight="none" font-size="none" text-anchor="none" style="mix-blend-mode: normal"><g><path d="M467.35425,933.35425c0,-1.46121 1.18454,-2.64575 2.64575,-2.64575c1.46121,0 2.64575,1.18454 2.64575,2.64575c0,1.46121 -1.18454,2.64575 -2.64575,2.64575c-1.46121,0 -2.64575,-1.18454 -2.64575,-2.64575z" fill="#1f95ff"/><text x="470" y="960" fill="#000000" font-family="Inter" font-weight="800" font-size="16" text-anchor="middle">Andhra Pradesh</text><text x="470" y="992" fill="#1f95ff" font-family="Inter" font-weight="500" font-size="20" text-anchor="middle">7</text></g><g><path d="M887.76393,453.76393c0,-1.23495 1.00112,-2.23607 2.23607,-2.23607c1.23495,0 2.23607,1.00112 2.23607,2.23607c0,1.23495 -1.00112,2.23607 -2.23607,2.23607c-1.23495,0 -2.23607,-1.00112 -2.23607,-2.23607z" fill="#1f95ff"/><text x="890" y="480" fill="#000000" font-family="Inter" font-weight="800" font-size="16" text-anchor="middle">Assam</text><text x="890" y="512" fill="#1f95ff" font-family="Inter" font-weight="500" font-size="20" text-anchor="middle">5</text></g><g><path d="M744.90098,450.90098c0,-2.81611 2.28291,-5.09902 5.09902,-5.09902c2.81611,0 5.09902,2.28291 5.09902,5.09902c0,2.81611 -2.28291,5.09902 -5.09902,5.09902c-2.81611,0 -5.09902,-2.28291 -5.09902,-5.09902z" fill="#1f95ff"/><text x="750" y="480" fill="#000000" font-family="Inter" font-weight="800" font-size="16" text-anchor="middle">Bihar</text><text x="750" y="512" fill="#1f95ff" font-family="Inter" font-weight="500" font-size="20" text-anchor="middle">26</text></g><g><path d="M469,615c0,-0.55228 0.44772,-1 1,-1c0.55228,0 1,0.44772 1,1c0,0.55228 -0.44772,1 -1,1c-0.55228,0 -1,-0.44772 -1,-1z" fill="#1f95ff"/><text x="470" y="640" fill="#000000" font-family="Inter" font-weight="800" font-size="16" text-anchor="middle">Chhattisgarh</text><text x="470" y="672" fill="#1f95ff" font-family="Inter" font-weight="500" font-size="20" text-anchor="middle">1</text></g><g><path d="M164.58347,590.58347c0,-14.03716 11.37937,-25.41653 25.41653,-25.41653c14.03716,0 25.41653,11.37937 25.41653,25.41653c0,14.03716 -11.37937,25.41653 -25.41653,25.41653c-14.03716,0 -25.41653,-11.37937 -25.41653,-25.41653z" fill="#1f95ff"/><text x="190" y="640" fill="#000000" font-family="Inter" font-weight="800" font-size="16" text-anchor="middle">Gujarat</text><text x="190" y="672" fill="#1f95ff" font-family="Inter" font-weight="500" font-size="20" text-anchor="middle">646</text></g><g><path d="M461.51472,127.51472c0,-4.68629 3.79899,-8.48528 8.48528,-8.48528c4.68629,0 8.48528,3.79899 8.48528,8.48528c0,4.68629 -3.79899,8.48528 -8.48528,8.48528c-4.68629,0 -8.48528,-3.79899 -8.48528,-8.48528z" fill="#1f95ff"/><text x="470" y="160" fill="#000000" font-family="Inter" font-weight="800" font-size="16" text-anchor="middle">Jammu &amp; Kashmir</text><text x="470" y="192" fill="#1f95ff" font-family="Inter" font-weight="500" font-size="20" text-anchor="middle">72</text></g><g><path d="M606.83772,612.83772c0,-1.74648 1.4158,-3.16228 3.16228,-3.16228c1.74648,0 3.16228,1.4158 3.16228,3.16228c0,1.74648 -1.4158,3.16228 -3.16228,3.16228c-1.74648,0 -3.16228,-1.4158 -3.16228,-3.16228z" fill="#1f95ff"/><text x="610" y="640" fill="#000000" font-family="Inter" font-weight="800" font-size="16" text-anchor="middle">Jharkhand</text><text x="610" y="672" fill="#1f95ff" font-family="Inter" font-weight="500" font-size="20" text-anchor="middle">10</text></g><g><path d="M316.32521,922.32521c0,-7.55238 6.12241,-13.67479 13.67479,-13.67479c7.55238,0 13.67479,6.12241 13.67479,13.67479c0,7.55238 -6.12241,13.67479 -13.67479,13.67479c-7.55238,0 -13.67479,-6.12241 -13.67479,-13.67479z" fill="#1f95ff"/><text x="330" y="960" fill="#000000" font-family="Inter" font-weight="800" font-size="16" text-anchor="middle">Karnataka</text><text x="330" y="992" fill="#1f95ff" font-family="Inter" font-weight="500" font-size="20" text-anchor="middle">187</text></g><g><path d="M318.86447,604.86447c0,-6.14998 4.98555,-11.13553 11.13553,-11.13553c6.14998,0 11.13553,4.98555 11.13553,11.13553c0,6.14998 -4.98555,11.13553 -11.13553,11.13553c-6.14998,0 -11.13553,-4.98555 -11.13553,-11.13553z" fill="#1f95ff"/><text x="330" y="640" fill="#000000" font-family="Inter" font-weight="800" font-size="16" text-anchor="middle">Madhya Pradesh</text><text x="330" y="672" fill="#1f95ff" font-family="Inter" font-weight="500" font-size="20" text-anchor="middle">124</text></g><g><path d="M324.7085,770.7085c0,-2.92242 2.36909,-5.2915 5.2915,-5.2915c2.92242,0 5.2915,2.36909 5.2915,5.2915c0,2.92242 -2.36909,5.2915 -5.2915,5.2915c-2.92242,0 -5.2915,-2.36909 -5.2915,-5.2915z" fill="#1f95ff"/><text x="330" y="800" fill="#000000" font-family="Inter" font-weight="800" font-size="16" text-anchor="middle">Maharashtra</text><text x="330" y="832" fill="#1f95ff" font-family="Inter" font-weight="500" font-size="20" text-anchor="middle">28</text></g><g><path d="M1023.44256,609.44256c0,-3.62157 2.93587,-6.55744 6.55744,-6.55744c3.62157,0 6.55744,2.93587 6.55744,6.55744c0,3.62157 -2.93587,6.55744 -6.55744,6.55744c-3.62157,0 -6.55744,-2.93587 -6.55744,-6.55744z" fill="#1f95ff"/><text x="1030" y="640" fill="#000000" font-family="Inter" font-weight="800" font-size="16" text-anchor="middle">Manipur</text><text x="1030" y="672" fill="#1f95ff" font-family="Inter" font-weight="500" font-size="20" text-anchor="middle">43</text></g><g><path d="M884.25544,610.25544c0,-3.17263 2.57193,-5.74456 5.74456,-5.74456c3.17263,0 5.74456,2.57193 5.74456,5.74456c0,3.17263 -2.57193,5.74456 -5.74456,5.74456c-3.17263,0 -5.74456,-2.57193 -5.74456,-5.74456z" fill="#1f95ff"/><text x="890" y="640" fill="#000000" font-family="Inter" font-weight="800" font-size="16" text-anchor="middle">Meghalaya</text><text x="890" y="672" fill="#1f95ff" font-family="Inter" font-weight="500" font-size="20" text-anchor="middle">33</text></g><g><path d="M1022.92893,448.92893c0,-3.90524 3.16582,-7.07107 7.07107,-7.07107c3.90524,0 7.07107,3.16582 7.07107,7.07107c0,3.90524 -3.16582,7.07107 -7.07107,7.07107c-3.90524,0 -7.07107,-3.16582 -7.07107,-7.07107z" fill="#1f95ff"/><text x="1030" y="480" fill="#000000" font-family="Inter" font-weight="800" font-size="16" text-anchor="middle">Nagaland</text><text x="1030" y="512" fill="#1f95ff" font-family="Inter" font-weight="500" font-size="20" text-anchor="middle">50</text></g><g><path d="M188,294c0,-1.10457 0.89543,-2 2,-2c1.10457,0 2,0.89543 2,2c0,1.10457 -0.89543,2 -2,2c-1.10457,0 -2,-0.89543 -2,-2z" fill="#1f95ff"/><text x="190" y="320" fill="#000000" font-family="Inter" font-weight="800" font-size="16" text-anchor="middle">Punjab</text><text x="190" y="352" fill="#1f95ff" font-family="Inter" font-weight="500" font-size="20" text-anchor="middle">4</text></g><g><path d="M427.7981,1053.7981c0,-23.30746 18.89443,-42.2019 42.2019,-42.2019c23.30746,0 42.2019,18.89443 42.2019,42.2019c0,23.30746 -18.89443,42.2019 -42.2019,42.2019c-23.30746,0 -42.2019,-18.89443 -42.2019,-42.2019z" fill="#1f95ff"/><text x="470" y="1120" fill="#000000" font-family="Inter" font-weight="800" font-size="16" text-anchor="middle">Tamil Nadu</text><text x="470" y="1152" fill="#1f95ff" font-family="Inter" font-weight="500" font-size="20" text-anchor="middle">1781</text></g><g><path d="M600.51317,446.51317c0,-5.23943 4.2474,-9.48683 9.48683,-9.48683c5.23943,0 9.48683,4.2474 9.48683,9.48683c0,5.23943 -4.2474,9.48683 -9.48683,9.48683c-5.23943,0 -9.48683,-4.2474 -9.48683,-9.48683z" fill="#1f95ff"/><text x="610" y="480" fill="#000000" font-family="Inter" font-weight="800" font-size="16" text-anchor="middle">Uttar Pradesh</text><text x="610" y="512" fill="#1f95ff" font-family="Inter" font-weight="500" font-size="20" text-anchor="middle">90</text></g><g><path d="M467.55051,453.55051c0,-1.35282 1.09667,-2.44949 2.44949,-2.44949c1.35282,0 2.44949,1.09667 2.44949,2.44949c0,1.35282 -1.09667,2.44949 -2.44949,2.44949c-1.35282,0 -2.44949,-1.09667 -2.44949,-2.44949z" fill="#1f95ff"/><text x="470" y="480" fill="#000000" font-family="Inter" font-weight="800" font-size="16" text-anchor="middle">Delhi</text><text x="470" y="512" fill="#1f95ff" font-family="Inter" font-weight="500" font-size="20" text-anchor="middle">6</text></g></g></svg>