<svg version="1.1" xmlns="http://www.w3.org/2000/svg" xmlns:xlink="http://www.w3.org/1999/xlink" width="1200" height="1399.99219" viewBox="0,0,1200,1399.99219"><g fill="none" fill-rule="nonzero" stroke="none" stroke-width="1" stroke-linecap="butt" stroke-linejoin="miter" stroke-miterlimit="10" stroke-dasharray="" stroke-dashoffset="0" font-family="none" font-weight="none" font-size="none" text-anchor="none" style="mix-blend-mode: normal"><g><path d="M464.80385,930.80385c0,-2.86976 2.3264,-5.19615 5.19615,-5.19615c2.86976,0 5.19615,2.3264 5.19615,5.19615c0,2.86976 -2.3264,5.19615 -5.19615,5.19615c-2.86976,0 -5.19615,-2.3264 -5.19615,-5.19615z" fill="#1f95ff"/><text x="470" y="960" fill="#000000" font-family="Inter" font-weight="800" font-size="16" text-anchor="middle">Andhra Pradesh</text><text x="470" y="992" fill="#1f95ff" font-family="Inter" font-weight="500" font-size="20" text-anchor="middle">27</text></g><g><path d="M886.68338,452.68338c0,-1.83172 1.4849,-3.31662 3.31662,-3.31662c1.83172,0 3.31662,1.4849 3.31662,3.31662c0,1.83172 -1.4849,3.31662 -3.31662,3.31662c-1.83172,0 -3.31662,-1.4849 -3.31662,-3.31662z" fill="#1f95ff"/><text x="890" y="480" fill="#000000" font-family="Inter" font-weight="800" font-size="16" text-anchor="middle">Assam</text><text x="890" y="512" fill="#1f95ff" font-family="Inter" font-weight="500" font-size="20" text-anchor="middle">11</text></g><g><path d="M744.90098,450.90098c0,-2.81611 2.28291,-5.09902 5.09902,-5.09902c2.81611,0 5.09902,2.28291 5.09902,5.09902c0,2.81611 -2.28291,5.09902 -5.09902,5.09902c-2.81611,0 -5.09902,-2.28291 -5.09902,-5.09902z" fill="#1f95ff"/><text x="750" y="480" fill="#000000" font-family="Inter" font-weight="800" font-size="16" text-anchor="middle">Bihar</text><text x="750" y="512" fill="#1f95ff" font-family="Inter" font-weight="500" font-size="20" text-anchor="middle">26</text></g><g><path d="M469,615c0,-0.55228 0.44772,-1 1,-1c0.55228,0 1,0.44772 1,1c0,0.55228 -0.44772,1 -1,1c-0.55228,0 -1,-0.44772 -1,-1z" fill="#1f95ff"/><text x="470" y="640" fill="#000000" font-family="Inter" font-weight="800" font-size="16" text-anchor="middle">Chhattisgarh</text><text x="470" y="672" fill="#1f95ff" font-family="Inter" font-weight="500" font-size="20" text-anchor="middle">1</text></g><g><path d="M165.62788,591.62788c0,-13.46035 10.91177,-24.37212 24.37212,-24.37212c13.46035,0 24.37212,10.91177 24.37212,24.37212c0,13.46035 -10.91177,24.37212 -24.37212,24.37212c-13.46035,0 -24.37212,-10.91177 -24.37212,-24.37212z" fill="#1f95ff"/><text x="190" y="640" fill="#000000" font-family="Inter" font-weight="800" font-size="16" text-anchor="middle">Gujarat</text><text x="190" y="672" fill="#1f95ff" font-family="Inter" font-weight="500" font-size="20" text-anchor="middle">594</text></g><g><path d="M464.08392,130.08392c0,-3.26736 2.64872,-5.91608 5.91608,-5.91608c3.26736,0 5.91608,2.64872 5.91608,5.91608c0,3.26736 -2.64872,5.91608 -5.91608,5.91608c-3.26736,0 -5.91608,-2.64872 -5.91608,-5.91608z" fill="#1f95ff"/><text x="470" y="160" fill="#000000" font-family="Inter" font-weight="800" font-size="16" text-anchor="middle">Jammu &amp; Kashmir</text><text x="470" y="192" fill="#1f95ff" font-family="Inter" font-weight="500" font-size="20" text-anchor="middle">35</text></g><g><path d="M604.80385,610.80385c0,-2.86976 2.3264,-5.19615 5.19615,-5.19615c2.86976,0 5.19615,2.3264 5.19615,5.19615c0,2.86976 -2.3264,5.19615 -5.19615,5.19615c-2.86976,0 -5.19615,-2.3264 -5.19615,-5.19615z" fill="#1f95ff"/><text x="610" y="640" fill="#000000" font-family="Inter" font-weight="800" font-size="16" text-anchor="middle">Jharkhand</text><text x="610" y="672" fill="#1f95ff" font-family="Inter" font-weight="500" font-size="20" text-anchor="middle">27</text></g><g><path d="M315.71714,921.71714c0,-7.8882 6.39465,-14.28286 14.28286,-14.28286c7.8882,0 14.28286,6.39465 14.28286,14.28286c0,7.8882 -6.39465,14.28286 -14.28286,14.28286c-7.8882,0 -14.28286,-6.39465 -14.28286,-14.28286z" fill="#1f95ff"/><text x="330" y="960" fill="#000000" font-family="Inter" font-weight="800" font-size="16" text-anchor="middle">Karnataka</text><text x="330" y="992" fill="#1f95ff" font-family="Inter" font-weight="500" font-size="20" text-anchor="middle">204</text></g><g><path d="M322.18975,608.18975c0,-4.31348 3.49677,-7.81025 7.81025,-7.81025c4.31348,0 7.81025,3.49677 7.81025,7.81025c0,4.31348 -3.49677,7.81025 -7.81025,7.81025c-4.31348,0 -7.81025,-3.49677 -7.81025,-7.81025z" fill="#1f95ff"/><text x="330" y="640" fill="#000000" font-family="Inter" font-weight="800" font-size="16" text-anchor="middle">Madhya Pradesh</text><text x="330" y="672" fill="#1f95ff" font-family="Inter" font-weight="500" font-size="20" text-anchor="middle">61</text></g><g><path d="M324.34315,770.34315c0,-3.12419 2.53266,-5.65685 5.65685,-5.65685c3.12419,0 5.65685,2.53266 5.65685,5.65685c0,3.12419 -2.53266,5.65685 -5.65685,5.65685c-3.12419,0 -5.65685,-2.53266 -5.65685,-5.65685z" fill="#1f95ff"/><text x="330" y="800" fill="#000000" font-family="Inter" font-weight="800" font-size="16" text-anchor="middle">Maharashtra</text><text x="330" y="832" fill="#1f95ff" font-family="Inter" font-weight="500" font-size="20" text-anchor="middle">32</text></g><g><path d="M1023.59688,609.59688c0,-3.53635 2.86678,-6.40312 6.40312,-6.40312c3.53635,0 6.40312,2.86678 6.40312,6.40312c0,3.53635 -2.86678,6.40312 -6.40312,6.40312c-3.53635,0 -6.40312,-2.86678 -6.40312,-6.40312z" fill="#1f95ff"/><text x="1030" y="640" fill="#000000" font-family="Inter" font-weight="800" font-size="16" text-anchor="middle">Manipur</text><text x="1030" y="672" fill="#1f95ff" font-family="Inter" font-weight="500" font-size="20" text-anchor="middle">41</text></g><g><path d="M884.43224,610.43224c0,-3.07499 2.49277,-5.56776 5.56776,-5.56776c3.07499,0 5.56776,2.49277 5.56776,5.56776c0,3.07499 -2.49277,5.56776 -5.56776,5.56776c-3.07499,0 -5.56776,-2.49277 -5.56776,-5.56776z" fill="#1f95ff"/><text x="890" y="640" fill="#000000" font-family="Inter" font-weight="800" font-size="16" text-anchor="middle">Meghalaya</text><text x="890" y="672" fill="#1f95ff" font-family="Inter" font-weight="500" font-size="20" text-anchor="middle">31</text></g><g><path d="M1023.91724,449.91724c0,-3.35942 2.72335,-6.08276 6.08276,-6.08276c3.35942,0 6.08276,2.72335 6.08276,6.08276c0,3.35942 -2.72335,6.08276 -6.08276,6.08276c-3.35942,0 -6.08276,-2.72335 -6.08276,-6.08276z" fill="#1f95ff"/><text x="1030" y="480" fill="#000000" font-family="Inter" font-weight="800" font-size="16" text-anchor="middle">Nagaland</text><text x="1030" y="512" fill="#1f95ff" font-family="Inter" font-weight="500" font-size="20" text-anchor="middle">37</text></g><g><path d="M182.65153,448.65153c0,-4.05845 3.29002,-7.34847 7.34847,-7.34847c4.05845,0 7.34847,3.29002 7.34847,7.34847c0,4.05845 -3.29002,7.34847 -7.34847,7.34847c-4.05845,0 -7.34847,-3.29002 -7.34847,-7.34847z" fill="#1f95ff"/><text x="190" y="480" fill="#000000" font-family="Inter" font-weight="800" font-size="16" text-anchor="middle">Rajasthan</text><text x="190" y="512" fill="#1f95ff" font-family="Inter" font-weight="500" font-size="20" text-anchor="middle">54</text></g><g><path d="M426.50287,1052.50287c0,-24.0228 19.47433,-43.49713 43.49713,-43.49713c24.0228,0 43.49713,19.47433 43.49713,43.49713c0,24.0228 -19.47433,43.49713 -43.49713,43.49713c-24.0228,0 -43.49713,-19.47433 -43.49713,-43.49713z" fill="#1f95ff"/><text x="470" y="1120" fill="#000000" font-family="Inter" font-weight="800" font-size="16" text-anchor="middle">Tamil Nadu</text><text x="470" y="1152" fill="#1f95ff" font-family="Inter" font-weight="500" font-size="20" text-anchor="middle">1892</text></g><g><path d="M464.90098,770.90098c0,-2.81611 2.28291,-5.09902 5.09902,-5.09902c2.81611,0 5.09902,2.28291 5.09902,5.09902c0,2.81611 -2.28291,5.09902 -5.09902,5.09902c-2.81611,0 -5.09902,-2.28291 -5.09902,-5.09902z" fill="#1f95ff"/><text x="470" y="800" fill="#000000" font-family="Inter" font-weight="800" font-size="16" text-anchor="middle">Telangana</text><text x="470" y="832" fill="#1f95ff" font-family="Inter" font-weight="500" font-size="20" text-anchor="middle">26</text></g><g><path d="M598.51087,444.51087c0,-6.34527 5.14386,-11.48913 11.48913,-11.48913c6.34527,0 11.48913,5.14386 11.48913,11.48913c0,6.34527 -5.14386,11.48913 -11.48913,11.48913c-6.34527,0 -11.48913,-5.14386 -11.48913,-11.48913z" fill="#1f95ff"/><text x="610" y="480" fill="#000000" font-family="Inter" font-weight="800" font-size="16" text-anchor="middle">Uttar Pradesh</text><text x="610" y="512" fill="#1f95ff" font-family="Inter" font-weight="500" font-size="20" text-anchor="middle">132</text></g><g><path d="M747.76393,613.76393c0,-1.23495 1.00112,-2.23607 2.23607,-2.23607c1.23495,0 2.23607,1.00112 2.23607,2.23607c0,1.23495 -1.00112,2.23607 -2.23607,2.23607c-1.23495,0 -2.23607,-1.00112 -2.23607,-2.23607z" fill="#1f95ff"/><text x="750" y="640" fill="#000000" font-family="Inter" font-weight="800" font-size="16" text-anchor="middle">West Bengal</text><text x="750" y="672" fill="#1f95ff" font-family="Inter" font-weight="500" font-size="20" text-anchor="middle">5</text></g><g><path d="M469,455c0,-0.55228 0.44772,-1 1,-1c0.55228,0 1,0.44772 1,1c0,0.55228 -0.44772,1 -1,1c-0.55228,0 -1,-0.44772 -1,-1z" fill="#1f95ff"/><text x="470" y="480" fill="#000000" font-family="Inter" font-weight="800" font-size="16" text-anchor="middle">Delhi</text><text x="470" y="512" fill="#1f95ff" font-family="Inter" font-weight="500" font-size="20" text-anchor="middle">1</text></g></g></svg>