<svg version="1.1" xmlns="http://www.w3.org/2000/svg" xmlns:xlink="http://www.w3.org/1999/xlink" width="1200" height="1399.99219" viewBox="0,0,1200,1399.99219"><g fill="none" fill-rule="nonzero" stroke="none" stroke-width="1" stroke-linecap="butt" stroke-linejoin="miter" stroke-miterlimit="10" stroke-dasharray="" stroke-dashoffset="0" font-family="none" font-weight="none" font-size="none" text-anchor="none" style="mix-blend-mode: normal"><g><path d="M465.41742,931.41742c0,-2.53089 2.05169,-4.58258 4.58258,-4.58258c2.53089,0 4.58258,2.05169 4.58258,4.58258c0,2.53089 -2.05169,4.58258 -4.58258,4.58258c-2.53089,0 -4.58258,-2.05169 -4.58258,-4.58258z" fill="#1f95ff"/><text x="470" y="960" fill="#000000" font-family="Inter" font-weight="800" font-size="16" text-anchor="middle">Andhra Pradesh</text><text x="470" y="992" fill="#1f95ff" font-family="Inter" font-weight="500" font-size="20" text-anchor="middle">21</text></g><g><path d="M886.68338,452.68338c0,-1.83172 1.4849,-3.31662 3.31662,-3.31662c1.83172,0 3.31662,1.4849 3.31662,3.31662c0,1.83172 -1.4849,3.31662 -3.31662,3.31662c-1.83172,0 -3.31662,-1.4849 -3.31662,-3.31662z" fill="#1f95ff"/><text x="890" y="480" fill="#000000" font-family="Inter" font-weight="800" font-size="16" text-anchor="middle">Assam</text><text x="890" y="512" fill="#1f95ff" font-family="Inter" font-weight="500" font-size="20" text-anchor="middle">11</text></g><g><path d="M747,453c0,-1.65685 1.34315,-3 3,-3c1.65685,0 3,1.34315 3,3c0,1.65685 -1.34315,3 -3,3c-1.65685,0 -3,-1.34315 -3,-3z" fill="#1f95ff"/><text x="750" y="480" fill="#000000" font-family="Inter" font-weight="800" font-size="16" text-anchor="middle">Bihar</text><text x="750" y="512" fill="#1f95ff" font-family="Inter" font-weight="500" font-size="20" text-anchor="middle">9</text></g><g><path d="M469,615c0,-0.55228 0.44772,-1 1,-1c0.55228,0 1,0.44772 1,1c0,0.55228 -0.44772,1 -1,1c-0.55228,0 -1,-0.44772 -1,-1z" fill="#1f95ff"/><text x="470" y="640" fill="#000000" font-family="Inter" font-weight="800" font-size="16" text-anchor="middle">Chhattisgarh</text><text x="470" y="672" fill="#1f95ff" font-family="Inter" font-weight="500" font-size="20" text-anchor="middle">1</text></g><g><path d="M187.17157,933.17157c0,-1.5621 1.26633,-2.82843 2.82843,-2.82843c1.5621,0 2.82843,1.26633 2.82843,2.82843c0,1.5621 -1.26633,2.82843 -2.82843,2.82843c-1.5621,0 -2.82843,-1.26633 -2.82843,-2.82843z" fill="#1f95ff"/><text x="190" y="960" fill="#000000" font-family="Inter" font-weight="800" font-size="16" text-anchor="middle">Goa</text><text x="190" y="992" fill="#1f95ff" font-family="Inter" font-weight="500" font-size="20" text-anchor="middle">8</text></g><g><path d="M175.20135,601.20135c0,-8.17307 6.62558,-14.79865 14.79865,-14.79865c8.17307,0 14.79865,6.62558 14.79865,14.79865c0,8.17307 -6.62558,14.79865 -14.79865,14.79865c-8.17307,0 -14.79865,-6.62558 -14.79865,-14.79865z" fill="#1f95ff"/><text x="190" y="640" fill="#000000" font-family="Inter" font-weight="800" font-size="16" text-anchor="middle">Gujarat</text><text x="190" y="672" fill="#1f95ff" font-family="Inter" font-weight="500" font-size="20" text-anchor="middle">219</text></g><g><path d="M460.51317,126.51317c0,-5.23943 4.2474,-9.48683 9.48683,-9.48683c5.23943,0 9.48683,4.2474 9.48683,9.48683c0,5.23943 -4.2474,9.48683 -9.48683,9.48683c-5.23943,0 -9.48683,-4.2474 -9.48683,-9.48683z" fill="#1f95ff"/><text x="470" y="160" fill="#000000" font-family="Inter" font-weight="800" font-size="16" text-anchor="middle">Jammu &amp; Kashmir</text><text x="470" y="192" fill="#1f95ff" font-family="Inter" font-weight="500" font-size="20" text-anchor="middle">90</text></g><g><path d="M607.17157,613.17157c0,-1.5621 1.26633,-2.82843 2.82843,-2.82843c1.5621,0 2.82843,1.26633 2.82843,2.82843c0,1.5621 -1.26633,2.82843 -2.82843,2.82843c-1.5621,0 -2.82843,-1.26633 -2.82843,-2.82843z" fill="#1f95ff"/><text x="610" y="640" fill="#000000" font-family="Inter" font-weight="800" font-size="16" text-anchor="middle">Jharkhand</text><text x="610" y="672" fill="#1f95ff" font-family="Inter" font-weight="500" font-size="20" text-anchor="middle">8</text></g><g><path d="M314.76845,920.76845c0,-8.41215 6.8194,-15.23155 15.23155,-15.23155c8.41215,0 15.23155,6.8194 15.23155,15.23155c0,8.41215 -6.8194,15.23155 -15.23155,15.23155c-8.41215,0 -15.23155,-6.8194 -15.23155,-15.23155z" fill="#1f95ff"/><text x="330" y="960" fill="#000000" font-family="Inter" font-weight="800" font-size="16" text-anchor="middle">Karnataka</text><text x="330" y="992" fill="#1f95ff" font-family="Inter" font-weight="500" font-size="20" text-anchor="middle">232</text></g><g><path d="M324.34315,610.34315c0,-3.12419 2.53266,-5.65685 5.65685,-5.65685c3.12419,0 5.65685,2.53266 5.65685,5.65685c0,3.12419 -2.53266,5.65685 -5.65685,5.65685c-3.12419,0 -5.65685,-2.53266 -5.65685,-5.65685z" fill="#1f95ff"/><text x="330" y="640" fill="#000000" font-family="Inter" font-weight="800" font-size="16" text-anchor="middle">Madhya Pradesh</text><text x="330" y="672" fill="#1f95ff" font-family="Inter" font-weight="500" font-size="20" text-anchor="middle">32</text></g><g><path d="M321.39767,767.39767c0,-4.75093 3.85139,-8.60233 8.60233,-8.60233c4.75093,0 8.60233,3.85139 8.60233,8.60233c0,4.75093 -3.85139,8.60233 -8.60233,8.60233c-4.75093,0 -8.60233,-3.85139 -8.60233,-8.60233z" fill="#1f95ff"/><text x="330" y="800" fill="#000000" font-family="Inter" font-weight="800" font-size="16" text-anchor="middle">Maharashtra</text><text x="330" y="832" fill="#1f95ff" font-family="Inter" font-weight="500" font-size="20" text-anchor="middle">74</text></g><g><path d="M1024.25544,610.25544c0,-3.17263 2.57193,-5.74456 5.74456,-5.74456c3.17263,0 5.74456,2.57193 5.74456,5.74456c0,3.17263 -2.57193,5.74456 -5.74456,5.74456c-3.17263,0 -5.74456,-2.57193 -5.74456,-5.74456z" fill="#1f95ff"/><text x="1030" y="640" fill="#000000" font-family="Inter" font-weight="800" font-size="16" text-anchor="middle">Manipur</text><text x="1030" y="672" fill="#1f95ff" font-family="Inter" font-weight="500" font-size="20" text-anchor="middle">33</text></g><g><path d="M887.17157,613.17157c0,-1.5621 1.26633,-2.82843 2.82843,-2.82843c1.5621,0 2.82843,1.26633 2.82843,2.82843c0,1.5621 -1.26633,2.82843 -2.82843,2.82843c-1.5621,0 -2.82843,-1.26633 -2.82843,-2.82843z" fill="#1f95ff"/><text x="890" y="640" fill="#000000" font-family="Inter" font-weight="800" font-size="16" text-anchor="middle">Meghalaya</text><text x="890" y="672" fill="#1f95ff" font-family="Inter" font-weight="500" font-size="20" text-anchor="middle">8</text></g><g><path d="M1023.44256,449.44256c0,-3.62157 2.93587,-6.55744 6.55744,-6.55744c3.62157,0 6.55744,2.93587 6.55744,6.55744c0,3.62157 -2.93587,6.55744 -6.55744,6.55744c-3.62157,0 -6.55744,-2.93587 -6.55744,-6.55744z" fill="#1f95ff"/><text x="1030" y="480" fill="#000000" font-family="Inter" font-weight="800" font-size="16" text-anchor="middle">Nagaland</text><text x="1030" y="512" fill="#1f95ff" font-family="Inter" font-weight="500" font-size="20" text-anchor="middle">43</text></g><g><path d="M187.76393,453.76393c0,-1.23495 1.00112,-2.23607 2.23607,-2.23607c1.23495,0 2.23607,1.00112 2.23607,2.23607c0,1.23495 -1.00112,2.23607 -2.23607,2.23607c-1.23495,0 -2.23607,-1.00112 -2.23607,-2.23607z" fill="#1f95ff"/><text x="190" y="480" fill="#000000" font-family="Inter" font-weight="800" font-size="16" text-anchor="middle">Rajasthan</text><text x="190" y="512" fill="#1f95ff" font-family="Inter" font-weight="500" font-size="20" text-anchor="middle">5</text></g><g><path d="M434.39101,1060.39101c0,-19.6663 15.94269,-35.60899 35.60899,-35.60899c19.6663,0 35.60899,15.94269 35.60899,35.60899c0,19.6663 -15.94269,35.60899 -35.60899,35.60899c-19.6663,0 -35.60899,-15.94269 -35.60899,-35.60899z" fill="#1f95ff"/><text x="470" y="1120" fill="#000000" font-family="Inter" font-weight="800" font-size="16" text-anchor="middle">Tamil Nadu</text><text x="470" y="1152" fill="#1f95ff" font-family="Inter" font-weight="500" font-size="20" text-anchor="middle">1268</text></g><g><path d="M451.58805,757.58805c0,-10.16864 8.24331,-18.41195 18.41195,-18.41195c10.16864,0 18.41195,8.24331 18.41195,18.41195c0,10.16864 -8.24331,18.41195 -18.41195,18.41195c-10.16864,0 -18.41195,-8.24331 -18.41195,-18.41195z" fill="#1f95ff"/><text x="470" y="800" fill="#000000" font-family="Inter" font-weight="800" font-size="16" text-anchor="middle">Telangana</text><text x="470" y="832" fill="#1f95ff" font-family="Inter" font-weight="500" font-size="20" text-anchor="middle">339</text></g><g><path d="M597.63068,443.63068c0,-6.83139 5.53793,-12.36932 12.36932,-12.36932c6.83139,0 12.36932,5.53793 12.36932,12.36932c0,6.83139 -5.53793,12.36932 -12.36932,12.36932c-6.83139,0 -12.36932,-5.53793 -12.36932,-12.36932z" fill="#1f95ff"/><text x="610" y="480" fill="#000000" font-family="Inter" font-weight="800" font-size="16" text-anchor="middle">Uttar Pradesh</text><text x="610" y="512" fill="#1f95ff" font-family="Inter" font-weight="500" font-size="20" text-anchor="middle">153</text></g><g><path d="M748.58579,614.58579c0,-0.78105 0.63316,-1.41421 1.41421,-1.41421c0.78105,0 1.41421,0.63316 1.41421,1.41421c0,0.78105 -0.63316,1.41421 -1.41421,1.41421c-0.78105,0 -1.41421,-0.63316 -1.41421,-1.41421z" fill="#1f95ff"/><text x="750" y="640" fill="#000000" font-family="Inter" font-weight="800" font-size="16" text-anchor="middle">West Bengal</text><text x="750" y="672" fill="#1f95ff" font-family="Inter" font-weight="500" font-size="20" text-anchor="middle">2</text></g><g><path d="M468.26795,454.26795c0,-0.95659 0.77547,-1.73205 1.73205,-1.73205c0.95659,0 1.73205,0.77547 1.73205,1.73205c0,0.95659 -0.77547,1.73205 -1.73205,1.73205c-0.95659,0 -1.73205,-0.77547 -1.73205,-1.73205z" fill="#1f95ff"/><text x="470" y="480" fill="#000000" font-family="Inter" font-weight="800" font-size="16" text-anchor="middle">Delhi</text><text x="470" y="512" fill="#1f95ff" font-family="Inter" font-weight="500" font-size="20" text-anchor="middle">3</text></g><g><path d="M608.26795,934.26795c0,-0.95659 0.77547,-1.73205 1.73205,-1.73205c0.95659,0 1.73205,0.77547 1.73205,1.73205c0,0.95659 -0.77547,1.73205 -1.73205,1.73205c-0.95659,0 -1.73205,-0.77547 -1.73205,-1.73205z" fill="#1f95ff"/><text x="610" y="960" fill="#000000" font-family="Inter" font-weight="800" font-size="16" text-anchor="middle">Puducherry</text><text x="610" y="992" fill="#1f95ff" font-family="Inter" font-weight="500" font-size="20" text-anchor="middle">3</text></g></g></svg>