<svg version="1.1" xmlns="http://www.w3.org/2000/svg" xmlns:xlink="http://www.w3.org/1999/xlink" width="1200" height="1399.99219" viewBox="0,0,1200,1399.99219"><g fill="none" fill-rule="nonzero" stroke="none" stroke-width="1" stroke-linecap="butt" stroke-linejoin="miter" stroke-miterlimit="10" stroke-dasharray="" stroke-dashoffset="0" font-family="none" font-weight="none" font-size="none" text-anchor="none" style="mix-blend-mode: normal"><g><path d="M464,930c0,-3.31371 2.68629,-6 6,-6c3.31371,0 6,2.68629 6,6c0,3.31371 -2.68629,6 -6,6c-3.31371,0 -6,-2.68629 -6,-6z" fill="#1f95ff"/><text x="470" y="960" fill="#000000" font-family="Inter" font-weight="800" font-size="16" text-anchor="middle">Andhra Pradesh</text><text x="470" y="992" fill="#1f95ff" font-family="Inter" font-weight="500" font-size="20" text-anchor="middle">36</text></g><g><path d="M887.76393,453.76393c0,-1.23495 1.00112,-2.23607 2.23607,-2.23607c1.23495,0 2.23607,1.00112 2.23607,2.23607c0,1.23495 -1.00112,2.23607 -2.23607,2.23607c-1.23495,0 -2.23607,-1.00112 -2.23607,-2.23607z" fill="#1f95ff"/><text x="890" y="480" fill="#000000" font-family="Inter" font-weight="800" font-size="16" text-anchor="middle">Assam</text><text x="890" y="512" fill="#1f95ff" font-family="Inter" font-weight="500" font-size="20" text-anchor="middle">5</text></g><g><path d="M747.35425,453.35425c0,-1.46121 1.18454,-2.64575 2.64575,-2.64575c1.46121,0 2.64575,1.18454 2.64575,2.64575c0,1.46121 -1.18454,2.64575 -2.64575,2.64575c-1.46121,0 -2.64575,-1.18454 -2.64575,-2.64575z" fill="#1f95ff"/><text x="750" y="480" fill="#000000" font-family="Inter" font-weight="800" font-size="16" text-anchor="middle">Bihar</text><text x="750" y="512" fill="#1f95ff" font-family="Inter" font-weight="500" font-size="20" text-anchor="middle">7</text></g><g><path d="M174.03128,600.03128c0,-8.81928 7.14944,-15.96872 15.96872,-15.96872c8.81928,0 15.96872,7.14944 15.96872,15.96872c0,8.81928 -7.14944,15.96872 -15.96872,15.96872c-8.81928,0 -15.96872,-7.14944 -15.96872,-15.96872z" fill="#1f95ff"/><text x="190" y="640" fill="#000000" font-family="Inter" font-weight="800" font-size="16" text-anchor="middle">Gujarat</text><text x="190" y="672" fill="#1f95ff" font-family="Inter" font-weight="500" font-size="20" text-anchor="middle">255</text></g><g><path d="M450.12539,116.12539c0,-10.97644 8.89816,-19.87461 19.87461,-19.87461c10.97644,0 19.87461,8.89816 19.87461,19.87461c0,10.97644 -8.89816,19.87461 -19.87461,19.87461c-10.97644,0 -19.87461,-8.89816 -19.87461,-19.87461z" fill="#1f95ff"/><text x="470" y="160" fill="#000000" font-family="Inter" font-weight="800" font-size="16" text-anchor="middle">Jammu &amp; Kashmir</text><text x="470" y="192" fill="#1f95ff" font-family="Inter" font-weight="500" font-size="20" text-anchor="middle">395</text></g><g><path d="M604.61484,610.61484c0,-2.97414 2.41102,-5.38516 5.38516,-5.38516c2.97414,0 5.38516,2.41102 5.38516,5.38516c0,2.97414 -2.41102,5.38516 -5.38516,5.38516c-2.97414,0 -5.38516,-2.41102 -5.38516,-5.38516z" fill="#1f95ff"/><text x="610" y="640" fill="#000000" font-family="Inter" font-weight="800" font-size="16" text-anchor="middle">Jharkhand</text><text x="610" y="672" fill="#1f95ff" font-family="Inter" font-weight="500" font-size="20" text-anchor="middle">29</text></g><g><path d="M315.47416,921.47416c0,-8.0224 6.50344,-14.52584 14.52584,-14.52584c8.0224,0 14.52584,6.50344 14.52584,14.52584c0,8.0224 -6.50344,14.52584 -14.52584,14.52584c-8.0224,0 -14.52584,-6.50344 -14.52584,-14.52584z" fill="#1f95ff"/><text x="330" y="960" fill="#000000" font-family="Inter" font-weight="800" font-size="16" text-anchor="middle">Karnataka</text><text x="330" y="992" fill="#1f95ff" font-family="Inter" font-weight="500" font-size="20" text-anchor="middle">211</text></g><g><path d="M323.51926,609.51926c0,-3.57921 2.90153,-6.48074 6.48074,-6.48074c3.57921,0 6.48074,2.90153 6.48074,6.48074c0,3.57921 -2.90153,6.48074 -6.48074,6.48074c-3.57921,0 -6.48074,-2.90153 -6.48074,-6.48074z" fill="#1f95ff"/><text x="330" y="640" fill="#000000" font-family="Inter" font-weight="800" font-size="16" text-anchor="middle">Madhya Pradesh</text><text x="330" y="672" fill="#1f95ff" font-family="Inter" font-weight="500" font-size="20" text-anchor="middle">42</text></g><g><path d="M320.83485,766.83485c0,-5.06177 4.10338,-9.16515 9.16515,-9.16515c5.06177,0 9.16515,4.10338 9.16515,9.16515c0,5.06177 -4.10338,9.16515 -9.16515,9.16515c-5.06177,0 -9.16515,-4.10338 -9.16515,-9.16515z" fill="#1f95ff"/><text x="330" y="800" fill="#000000" font-family="Inter" font-weight="800" font-size="16" text-anchor="middle">Maharashtra</text><text x="330" y="832" fill="#1f95ff" font-family="Inter" font-weight="500" font-size="20" text-anchor="middle">84</text></g><g><path d="M1023.59688,609.59688c0,-3.53635 2.86678,-6.40312 6.40312,-6.40312c3.53635,0 6.40312,2.86678 6.40312,6.40312c0,3.53635 -2.86678,6.40312 -6.40312,6.40312c-3.53635,0 -6.40312,-2.86678 -6.40312,-6.40312z" fill="#1f95ff"/><text x="1030" y="640" fill="#000000" font-family="Inter" font-weight="800" font-size="16" text-anchor="middle">Manipur</text><text x="1030" y="672" fill="#1f95ff" font-family="Inter" font-weight="500" font-size="20" text-anchor="middle">41</text></g><g><path d="M887.35425,613.35425c0,-1.46121 1.18454,-2.64575 2.64575,-2.64575c1.46121,0 2.64575,1.18454 2.64575,2.64575c0,1.46121 -1.18454,2.64575 -2.64575,2.64575c-1.46121,0 -2.64575,-1.18454 -2.64575,-2.64575z" fill="#1f95ff"/><text x="890" y="640" fill="#000000" font-family="Inter" font-weight="800" font-size="16" text-anchor="middle">Meghalaya</text><text x="890" y="672" fill="#1f95ff" font-family="Inter" font-weight="500" font-size="20" text-anchor="middle">7</text></g><g><path d="M1024.34315,450.34315c0,-3.12419 2.53266,-5.65685 5.65685,-5.65685c3.12419,0 5.65685,2.53266 5.65685,5.65685c0,3.12419 -2.53266,5.65685 -5.65685,5.65685c-3.12419,0 -5.65685,-2.53266 -5.65685,-5.65685z" fill="#1f95ff"/><text x="1030" y="480" fill="#000000" font-family="Inter" font-weight="800" font-size="16" text-anchor="middle">Nagaland</text><text x="1030" y="512" fill="#1f95ff" font-family="Inter" font-weight="500" font-size="20" text-anchor="middle">32</text></g><g><path d="M186.68338,452.68338c0,-1.83172 1.4849,-3.31662 3.31662,-3.31662c1.83172,0 3.31662,1.4849 3.31662,3.31662c0,1.83172 -1.4849,3.31662 -3.31662,3.31662c-1.83172,0 -3.31662,-1.4849 -3.31662,-3.31662z" fill="#1f95ff"/><text x="190" y="480" fill="#000000" font-family="Inter" font-weight="800" font-size="16" text-anchor="middle">Rajasthan</text><text x="190" y="512" fill="#1f95ff" font-family="Inter" font-weight="500" font-size="20" text-anchor="middle">11</text></g><g><path d="M431.51624,1057.51624c0,-21.254 17.22977,-38.48376 38.48376,-38.48376c21.254,0 38.48376,17.22977 38.48376,38.48376c0,21.254 -17.22977,38.48376 -38.48376,38.48376c-21.254,0 -38.48376,-17.22977 -38.48376,-38.48376z" fill="#1f95ff"/><text x="470" y="1120" fill="#000000" font-family="Inter" font-weight="800" font-size="16" text-anchor="middle">Tamil Nadu</text><text x="470" y="1152" fill="#1f95ff" font-family="Inter" font-weight="500" font-size="20" text-anchor="middle">1481</text></g><g><path d="M452.91199,758.91199c0,-9.43745 7.65056,-17.08801 17.08801,-17.08801c9.43745,0 17.08801,7.65056 17.08801,17.08801c0,9.43745 -7.65056,17.08801 -17.08801,17.08801c-9.43745,0 -17.08801,-7.65056 -17.08801,-17.08801z" fill="#1f95ff"/><text x="470" y="800" fill="#000000" font-family="Inter" font-weight="800" font-size="16" text-anchor="middle">Telangana</text><text x="470" y="832" fill="#1f95ff" font-family="Inter" font-weight="500" font-size="20" text-anchor="middle">292</text></g><g><path d="M599.22967,445.22967c0,-5.94829 4.82204,-10.77033 10.77033,-10.77033c5.94829,0 10.77033,4.82204 10.77033,10.77033c0,5.94829 -4.82204,10.77033 -10.77033,10.77033c-5.94829,0 -10.77033,-4.82204 -10.77033,-10.77033z" fill="#1f95ff"/><text x="610" y="480" fill="#000000" font-family="Inter" font-weight="800" font-size="16" text-anchor="middle">Uttar Pradesh</text><text x="610" y="512" fill="#1f95ff" font-family="Inter" font-weight="500" font-size="20" text-anchor="middle">116</text></g><g><path d="M748.58579,614.58579c0,-0.78105 0.63316,-1.41421 1.41421,-1.41421c0.78105,0 1.41421,0.63316 1.41421,1.41421c0,0.78105 -0.63316,1.41421 -1.41421,1.41421c-0.78105,0 -1.41421,-0.63316 -1.41421,-1.41421z" fill="#1f95ff"/><text x="750" y="640" fill="#000000" font-family="Inter" font-weight="800" font-size="16" text-anchor="middle">West Bengal</text><text x="750" y="672" fill="#1f95ff" font-family="Inter" font-weight="500" font-size="20" text-anchor="middle">2</text></g><g><path d="M468.58579,454.58579c0,-0.78105 0.63316,-1.41421 1.41421,-1.41421c0.78105,0 1.41421,0.63316 1.41421,1.41421c0,0.78105 -0.63316,1.41421 -1.41421,1.41421c-0.78105,0 -1.41421,-0.63316 -1.41421,-1.41421z" fill="#1f95ff"/><text x="470" y="480" fill="#000000" font-family="Inter" font-weight="800" font-size="16" text-anchor="middle">Delhi</text><text x="470" y="512" fill="#1f95ff" font-family="Inter" font-weight="500" font-size="20" text-anchor="middle">2</text></g></g></svg>