<svg version="1.1" xmlns="http://www.w3.org/2000/svg" xmlns:xlink="http://www.w3.org/1999/xlink" width="1200" height="1399.99219" viewBox="0,0,1200,1399.99219"><g fill="none" fill-rule="nonzero" stroke="none" stroke-width="1" stroke-linecap="butt" stroke-linejoin="miter" stroke-miterlimit="10" stroke-dasharray="" stroke-dashoffset="0" font-family="none" font-weight="none" font-size="none" text-anchor="none" style="mix-blend-mode: normal"><g><path d="M464.08392,930.08392c0,-3.26736 2.64872,-5.91608 5.91608,-5.91608c3.26736,0 5.91608,2.64872 5.91608,5.91608c0,3.26736 -2.64872,5.91608 -5.91608,5.91608c-3.26736,0 -5.91608,-2.64872 -5.91608,-5.91608z" fill="#1f95ff"/><text x="470" y="960" fill="#000000" font-family="Inter" font-weight="800" font-size="16" text-anchor="middle">Andhra Pradesh</text><text x="470" y="992" fill="#1f95ff" font-family="Inter" font-weight="500" font-size="20" text-anchor="middle">35</text></g><g><path d="M888.26795,454.26795c0,-0.95659 0.77547,-1.73205 1.73205,-1.73205c0.95659,0 1.73205,0.77547 1.73205,1.73205c0,0.95659 -0.77547,1.73205 -1.73205,1.73205c-0.95659,0 -1.73205,-0.77547 -1.73205,-1.73205z" fill="#1f95ff"/><text x="890" y="480" fill="#000000" font-family="Inter" font-weight="800" font-size="16" text-anchor="middle">Assam</text><text x="890" y="512" fill="#1f95ff" font-family="Inter" font-weight="500" font-size="20" text-anchor="middle">3</text></g><g><path d="M748.58579,454.58579c0,-0.78105 0.63316,-1.41421 1.41421,-1.41421c0.78105,0 1.41421,0.63316 1.41421,1.41421c0,0.78105 -0.63316,1.41421 -1.41421,1.41421c-0.78105,0 -1.41421,-0.63316 -1.41421,-1.41421z" fill="#1f95ff"/><text x="750" y="480" fill="#000000" font-family="Inter" font-weight="800" font-size="16" text-anchor="middle">Bihar</text><text x="750" y="512" fill="#1f95ff" font-family="Inter" font-weight="500" font-size="20" text-anchor="middle">2</text></g><g><path d="M171.42582,597.42582c0,-10.25823 8.31594,-18.57418 18.57418,-18.57418c10.25823,0 18.57418,8.31594 18.57418,18.57418c0,10.25823 -8.31594,18.57418 -18.57418,18.57418c-10.25823,0 -18.57418,-8.31594 -18.57418,-18.57418z" fill="#1f95ff"/><text x="190" y="640" fill="#000000" font-family="Inter" font-weight="800" font-size="16" text-anchor="middle">Gujarat</text><text x="190" y="672" fill="#1f95ff" font-family="Inter" font-weight="500" font-size="20" text-anchor="middle">345</text></g><g><path d="M456.88512,122.88512c0,-7.24315 5.87173,-13.11488 13.11488,-13.11488c7.24315,0 13.11488,5.87173 13.11488,13.11488c0,7.24315 -5.87173,13.11488 -13.11488,13.11488c-7.24315,0 -13.11488,-5.87173 -13.11488,-13.11488z" fill="#1f95ff"/><text x="470" y="160" fill="#000000" font-family="Inter" font-weight="800" font-size="16" text-anchor="middle">Jammu &amp; Kashmir</text><text x="470" y="192" fill="#1f95ff" font-family="Inter" font-weight="500" font-size="20" text-anchor="middle">172</text></g><g><path d="M605.10102,611.10102c0,-2.70563 2.19335,-4.89898 4.89898,-4.89898c2.70563,0 4.89898,2.19335 4.89898,4.89898c0,2.70563 -2.19335,4.89898 -4.89898,4.89898c-2.70563,0 -4.89898,-2.19335 -4.89898,-4.89898z" fill="#1f95ff"/><text x="610" y="640" fill="#000000" font-family="Inter" font-weight="800" font-size="16" text-anchor="middle">Jharkhand</text><text x="610" y="672" fill="#1f95ff" font-family="Inter" font-weight="500" font-size="20" text-anchor="middle">24</text></g><g><path d="M315.47416,921.47416c0,-8.0224 6.50344,-14.52584 14.52584,-14.52584c8.0224,0 14.52584,6.50344 14.52584,14.52584c0,8.0224 -6.50344,14.52584 -14.52584,14.52584c-8.0224,0 -14.52584,-6.50344 -14.52584,-14.52584z" fill="#1f95ff"/><text x="330" y="960" fill="#000000" font-family="Inter" font-weight="800" font-size="16" text-anchor="middle">Karnataka</text><text x="330" y="992" fill="#1f95ff" font-family="Inter" font-weight="500" font-size="20" text-anchor="middle">211</text></g><g><path d="M324.25544,1090.25544c0,-3.17263 2.57193,-5.74456 5.74456,-5.74456c3.17263,0 5.74456,2.57193 5.74456,5.74456c0,3.17263 -2.57193,5.74456 -5.74456,5.74456c-3.17263,0 -5.74456,-2.57193 -5.74456,-5.74456z" fill="#1f95ff"/><text x="330" y="1120" fill="#000000" font-family="Inter" font-weight="800" font-size="16" text-anchor="middle">Kerala</text><text x="330" y="1152" fill="#1f95ff" font-family="Inter" font-weight="500" font-size="20" text-anchor="middle">33</text></g><g><path d="M323.36675,609.36675c0,-3.66344 2.96981,-6.63325 6.63325,-6.63325c3.66344,0 6.63325,2.96981 6.63325,6.63325c0,3.66344 -2.96981,6.63325 -6.63325,6.63325c-3.66344,0 -6.63325,-2.96981 -6.63325,-6.63325z" fill="#1f95ff"/><text x="330" y="640" fill="#000000" font-family="Inter" font-weight="800" font-size="16" text-anchor="middle">Madhya Pradesh</text><text x="330" y="672" fill="#1f95ff" font-family="Inter" font-weight="500" font-size="20" text-anchor="middle">44</text></g><g><path d="M319.75305,765.75305c0,-5.65923 4.58772,-10.24695 10.24695,-10.24695c5.65923,0 10.24695,4.58772 10.24695,10.24695c0,5.65923 -4.58772,10.24695 -10.24695,10.24695c-5.65923,0 -10.24695,-4.58772 -10.24695,-10.24695z" fill="#1f95ff"/><text x="330" y="800" fill="#000000" font-family="Inter" font-weight="800" font-size="16" text-anchor="middle">Maharashtra</text><text x="330" y="832" fill="#1f95ff" font-family="Inter" font-weight="500" font-size="20" text-anchor="middle">105</text></g><g><path d="M1023.2918,609.2918c0,-3.70484 3.00337,-6.7082 6.7082,-6.7082c3.70484,0 6.7082,3.00337 6.7082,6.7082c0,3.70484 -3.00337,6.7082 -6.7082,6.7082c-3.70484,0 -6.7082,-3.00337 -6.7082,-6.7082z" fill="#1f95ff"/><text x="1030" y="640" fill="#000000" font-family="Inter" font-weight="800" font-size="16" text-anchor="middle">Manipur</text><text x="1030" y="672" fill="#1f95ff" font-family="Inter" font-weight="500" font-size="20" text-anchor="middle">45</text></g><g><path d="M889,615c0,-0.55228 0.44772,-1 1,-1c0.55228,0 1,0.44772 1,1c0,0.55228 -0.44772,1 -1,1c-0.55228,0 -1,-0.44772 -1,-1z" fill="#1f95ff"/><text x="890" y="640" fill="#000000" font-family="Inter" font-weight="800" font-size="16" text-anchor="middle">Meghalaya</text><text x="890" y="672" fill="#1f95ff" font-family="Inter" font-weight="500" font-size="20" text-anchor="middle">1</text></g><g><path d="M1026,452c0,-2.20914 1.79086,-4 4,-4c2.20914,0 4,1.79086 4,4c0,2.20914 -1.79086,4 -4,4c-2.20914,0 -4,-1.79086 -4,-4z" fill="#1f95ff"/><text x="1030" y="480" fill="#000000" font-family="Inter" font-weight="800" font-size="16" text-anchor="middle">Nagaland</text><text x="1030" y="512" fill="#1f95ff" font-family="Inter" font-weight="500" font-size="20" text-anchor="middle">16</text></g><g><path d="M187.35425,453.35425c0,-1.46121 1.18454,-2.64575 2.64575,-2.64575c1.46121,0 2.64575,1.18454 2.64575,2.64575c0,1.46121 -1.18454,2.64575 -2.64575,2.64575c-1.46121,0 -2.64575,-1.18454 -2.64575,-2.64575z" fill="#1f95ff"/><text x="190" y="480" fill="#000000" font-family="Inter" font-weight="800" font-size="16" text-anchor="middle">Rajasthan</text><text x="190" y="512" fill="#1f95ff" font-family="Inter" font-weight="500" font-size="20" text-anchor="middle">7</text></g><g><path d="M441.5395,1067.5395c0,-15.7183 12.7422,-28.4605 28.4605,-28.4605c15.7183,0 28.4605,12.7422 28.4605,28.4605c0,15.7183 -12.7422,28.4605 -28.4605,28.4605c-15.7183,0 -28.4605,-12.7422 -28.4605,-28.4605z" fill="#1f95ff"/><text x="470" y="1120" fill="#000000" font-family="Inter" font-weight="800" font-size="16" text-anchor="middle">Tamil Nadu</text><text x="470" y="1152" fill="#1f95ff" font-family="Inter" font-weight="500" font-size="20" text-anchor="middle">810</text></g><g><path d="M458.64218,764.64218c0,-6.27275 5.08507,-11.35782 11.35782,-11.35782c6.27275,0 11.35782,5.08507 11.35782,11.35782c0,6.27275 -5.08507,11.35782 -11.35782,11.35782c-6.27275,0 -11.35782,-5.08507 -11.35782,-11.35782z" fill="#1f95ff"/><text x="470" y="800" fill="#000000" font-family="Inter" font-weight="800" font-size="16" text-anchor="middle">Telangana</text><text x="470" y="832" fill="#1f95ff" font-family="Inter" font-weight="500" font-size="20" text-anchor="middle">129</text></g><g><path d="M888.58579,774.58579c0,-0.78105 0.63316,-1.41421 1.41421,-1.41421c0.78105,0 1.41421,0.63316 1.41421,1.41421c0,0.78105 -0.63316,1.41421 -1.41421,1.41421c-0.78105,0 -1.41421,-0.63316 -1.41421,-1.41421z" fill="#1f95ff"/><text x="890" y="800" fill="#000000" font-family="Inter" font-weight="800" font-size="16" text-anchor="middle">Tripura</text><text x="890" y="832" fill="#1f95ff" font-family="Inter" font-weight="500" font-size="20" text-anchor="middle">2</text></g><g><path d="M599.55969,445.55969c0,-5.76602 4.67428,-10.44031 10.44031,-10.44031c5.76602,0 10.44031,4.67428 10.44031,10.44031c0,5.76602 -4.67428,10.44031 -10.44031,10.44031c-5.76602,0 -10.44031,-4.67428 -10.44031,-10.44031z" fill="#1f95ff"/><text x="610" y="480" fill="#000000" font-family="Inter" font-weight="800" font-size="16" text-anchor="middle">Uttar Pradesh</text><text x="610" y="512" fill="#1f95ff" font-family="Inter" font-weight="500" font-size="20" text-anchor="middle">109</text></g><g><path d="M468.58579,454.58579c0,-0.78105 0.63316,-1.41421 1.41421,-1.41421c0.78105,0 1.41421,0.63316 1.41421,1.41421c0,0.78105 -0.63316,1.41421 -1.41421,1.41421c-0.78105,0 -1.41421,-0.63316 -1.41421,-1.41421z" fill="#1f95ff"/><text x="470" y="480" fill="#000000" font-family="Inter" font-weight="800" font-size="16" text-anchor="middle">Delhi</text><text x="470" y="512" fill="#1f95ff" font-family="Inter" font-weight="500" font-size="20" text-anchor="middle">2</text></g><g><path d="M609,935c0,-0.55228 0.44772,-1 1,-1c0.55228,0 1,0.44772 1,1c0,0.55228 -0.44772,1 -1,1c-0.55228,0 -1,-0.44772 -1,-1z" fill="#1f95ff"/><text x="610" y="960" fill="#000000" font-family="Inter" font-weight="800" font-size="16" text-anchor="middle">Puducherry</text><text x="610" y="992" fill="#1f95ff" font-family="Inter" font-weight="500" font-size="20" text-anchor="middle">1</text></g></g></svg>