<svg version="1.1" xmlns="http://www.w3.org/2000/svg" xmlns:xlink="http://www.w3.org/1999/xlink" width="1200" height="1399.99219" viewBox="0,0,1200,1399.99219"><g fill="none" fill-rule="nonzero" stroke="none" stroke-width="1" stroke-linecap="butt" stroke-linejoin="miter" stroke-miterlimit="10" stroke-dasharray="" stroke-dashoffset="0" font-family="none" font-weight="none" font-size="none" text-anchor="none" style="mix-blend-mode: normal"><g><path d="M464.61484,930.61484c0,-2.97414 2.41102,-5.38516 5.38516,-5.38516c2.97414,0 5.38516,2.41102 5.38516,5.38516c0,2.97414 -2.41102,5.38516 -5.38516,5.38516c-2.97414,0 -5.38516,-2.41102 -5.38516,-5.38516z" fill="#1f95ff"/><text x="470" y="960" fill="#000000" font-family="Inter" font-weight="800" font-size="16" text-anchor="middle">Andhra Pradesh</text><text x="470" y="992" fill="#1f95ff" font-family="Inter" font-weight="500" font-size="20" text-anchor="middle">29</text></g><g><path d="M888,454c0,-1.10457 0.89543,-2 2,-2c1.10457,0 2,0.89543 2,2c0,1.10457 -0.89543,2 -2,2c-1.10457,0 -2,-0.89543 -2,-2z" fill="#1f95ff"/><text x="890" y="480" fill="#000000" font-family="Inter" font-weight="800" font-size="16" text-anchor="middle">Assam</text><text x="890" y="512" fill="#1f95ff" font-family="Inter" font-weight="500" font-size="20" text-anchor="middle">4</text></g><g><path d="M748.26795,454.26795c0,-0.95659 0.77547,-1.73205 1.73205,-1.73205c0.95659,0 1.73205,0.77547 1.73205,1.73205c0,0.95659 -0.77547,1.73205 -1.73205,1.73205c-0.95659,0 -1.73205,-0.77547 -1.73205,-1.73205z" fill="#1f95ff"/><text x="750" y="480" fill="#000000" font-family="Inter" font-weight="800" font-size="16" text-anchor="middle">Bihar</text><text x="750" y="512" fill="#1f95ff" font-family="Inter" font-weight="500" font-size="20" text-anchor="middle">3</text></g><g><path d="M168.73971,594.73971c0,-11.74173 9.51856,-21.26029 21.26029,-21.26029c11.74173,0 21.26029,9.51856 21.26029,21.26029c0,11.74173 -9.51856,21.26029 -21.26029,21.26029c-11.74173,0 -21.26029,-9.51856 -21.26029,-21.26029z" fill="#1f95ff"/><text x="190" y="640" fill="#000000" font-family="Inter" font-weight="800" font-size="16" text-anchor="middle">Gujarat</text><text x="190" y="672" fill="#1f95ff" font-family="Inter" font-weight="500" font-size="20" text-anchor="middle">452</text></g><g><path d="M324.80385,450.80385c0,-2.86976 2.3264,-5.19615 5.19615,-5.19615c2.86976,0 5.19615,2.3264 5.19615,5.19615c0,2.86976 -2.3264,5.19615 -5.19615,5.19615c-2.86976,0 -5.19615,-2.3264 -5.19615,-5.19615z" fill="#1f95ff"/><text x="330" y="480" fill="#000000" font-family="Inter" font-weight="800" font-size="16" text-anchor="middle">Haryana</text><text x="330" y="512" fill="#1f95ff" font-family="Inter" font-weight="500" font-size="20" text-anchor="middle">27</text></g><g><path d="M454.09403,120.09403c0,-8.78463 7.12135,-15.90597 15.90597,-15.90597c8.78463,0 15.90597,7.12135 15.90597,15.90597c0,8.78463 -7.12135,15.90597 -15.90597,15.90597c-8.78463,0 -15.90597,-7.12135 -15.90597,-15.90597z" fill="#1f95ff"/><text x="470" y="160" fill="#000000" font-family="Inter" font-weight="800" font-size="16" text-anchor="middle">Jammu &amp; Kashmir</text><text x="470" y="192" fill="#1f95ff" font-family="Inter" font-weight="500" font-size="20" text-anchor="middle">253</text></g><g><path d="M604.80385,610.80385c0,-2.86976 2.3264,-5.19615 5.19615,-5.19615c2.86976,0 5.19615,2.3264 5.19615,5.19615c0,2.86976 -2.3264,5.19615 -5.19615,5.19615c-2.86976,0 -5.19615,-2.3264 -5.19615,-5.19615z" fill="#1f95ff"/><text x="610" y="640" fill="#000000" font-family="Inter" font-weight="800" font-size="16" text-anchor="middle">Jharkhand</text><text x="610" y="672" fill="#1f95ff" font-family="Inter" font-weight="500" font-size="20" text-anchor="middle">27</text></g><g><path d="M326.5359,932.5359c0,-1.91317 1.55093,-3.4641 3.4641,-3.4641c1.91317,0 3.4641,1.55093 3.4641,3.4641c0,1.91317 -1.55093,3.4641 -3.4641,3.4641c-1.91317,0 -3.4641,-1.55093 -3.4641,-3.4641z" fill="#1f95ff"/><text x="330" y="960" fill="#000000" font-family="Inter" font-weight="800" font-size="16" text-anchor="middle">Karnataka</text><text x="330" y="992" fill="#1f95ff" font-family="Inter" font-weight="500" font-size="20" text-anchor="middle">12</text></g><g><path d="M323.36675,1089.36675c0,-3.66344 2.96981,-6.63325 6.63325,-6.63325c3.66344,0 6.63325,2.96981 6.63325,6.63325c0,3.66344 -2.96981,6.63325 -6.63325,6.63325c-3.66344,0 -6.63325,-2.96981 -6.63325,-6.63325z" fill="#1f95ff"/><text x="330" y="1120" fill="#000000" font-family="Inter" font-weight="800" font-size="16" text-anchor="middle">Kerala</text><text x="330" y="1152" fill="#1f95ff" font-family="Inter" font-weight="500" font-size="20" text-anchor="middle">44</text></g><g><path d="M316.69587,602.69587c0,-7.34767 5.95646,-13.30413 13.30413,-13.30413c7.34767,0 13.30413,5.95646 13.30413,13.30413c0,7.34767 -5.95646,13.30413 -13.30413,13.30413c-7.34767,0 -13.30413,-5.95646 -13.30413,-13.30413z" fill="#1f95ff"/><text x="330" y="640" fill="#000000" font-family="Inter" font-weight="800" font-size="16" text-anchor="middle">Madhya Pradesh</text><text x="330" y="672" fill="#1f95ff" font-family="Inter" font-weight="500" font-size="20" text-anchor="middle">177</text></g><g><path d="M321.16824,767.16824c0,-4.87765 3.95411,-8.83176 8.83176,-8.83176c4.87765,0 8.83176,3.95411 8.83176,8.83176c0,4.87765 -3.95411,8.83176 -8.83176,8.83176c-4.87765,0 -8.83176,-3.95411 -8.83176,-8.83176z" fill="#1f95ff"/><text x="330" y="800" fill="#000000" font-family="Inter" font-weight="800" font-size="16" text-anchor="middle">Maharashtra</text><text x="330" y="832" fill="#1f95ff" font-family="Inter" font-weight="500" font-size="20" text-anchor="middle">78</text></g><g><path d="M1027.17157,613.17157c0,-1.5621 1.26633,-2.82843 2.82843,-2.82843c1.5621,0 2.82843,1.26633 2.82843,2.82843c0,1.5621 -1.26633,2.82843 -2.82843,2.82843c-1.5621,0 -2.82843,-1.26633 -2.82843,-2.82843z" fill="#1f95ff"/><text x="1030" y="640" fill="#000000" font-family="Inter" font-weight="800" font-size="16" text-anchor="middle">Manipur</text><text x="1030" y="672" fill="#1f95ff" font-family="Inter" font-weight="500" font-size="20" text-anchor="middle">8</text></g><g><path d="M1025.20417,451.20417c0,-2.64866 2.14717,-4.79583 4.79583,-4.79583c2.64866,0 4.79583,2.14717 4.79583,4.79583c0,2.64866 -2.14717,4.79583 -4.79583,4.79583c-2.64866,0 -4.79583,-2.14717 -4.79583,-4.79583z" fill="#1f95ff"/><text x="1030" y="480" fill="#000000" font-family="Inter" font-weight="800" font-size="16" text-anchor="middle">Nagaland</text><text x="1030" y="512" fill="#1f95ff" font-family="Inter" font-weight="500" font-size="20" text-anchor="middle">23</text></g><g><path d="M606.25834,772.25834c0,-2.06646 1.6752,-3.74166 3.74166,-3.74166c2.06646,0 3.74166,1.6752 3.74166,3.74166c0,2.06646 -1.6752,3.74166 -3.74166,3.74166c-2.06646,0 -3.74166,-1.6752 -3.74166,-3.74166z" fill="#1f95ff"/><text x="610" y="800" fill="#000000" font-family="Inter" font-weight="800" font-size="16" text-anchor="middle">Orissa</text><text x="610" y="832" fill="#1f95ff" font-family="Inter" font-weight="500" font-size="20" text-anchor="middle">14</text></g><g><path d="M187.55051,453.55051c0,-1.35282 1.09667,-2.44949 2.44949,-2.44949c1.35282,0 2.44949,1.09667 2.44949,2.44949c0,1.35282 -1.09667,2.44949 -2.44949,2.44949c-1.35282,0 -2.44949,-1.09667 -2.44949,-2.44949z" fill="#1f95ff"/><text x="190" y="480" fill="#000000" font-family="Inter" font-weight="800" font-size="16" text-anchor="middle">Rajasthan</text><text x="190" y="512" fill="#1f95ff" font-family="Inter" font-weight="500" font-size="20" text-anchor="middle">6</text></g><g><path d="M442.77868,1068.77868c0,-15.03392 12.1874,-27.22132 27.22132,-27.22132c15.03392,0 27.22132,12.1874 27.22132,27.22132c0,15.03392 -12.1874,27.22132 -27.22132,27.22132c-15.03392,0 -27.22132,-12.1874 -27.22132,-27.22132z" fill="#1f95ff"/><text x="470" y="1120" fill="#000000" font-family="Inter" font-weight="800" font-size="16" text-anchor="middle">Tamil Nadu</text><text x="470" y="1152" fill="#1f95ff" font-family="Inter" font-weight="500" font-size="20" text-anchor="middle">741</text></g><g><path d="M452.91199,758.91199c0,-9.43745 7.65056,-17.08801 17.08801,-17.08801c9.43745,0 17.08801,7.65056 17.08801,17.08801c0,9.43745 -7.65056,17.08801 -17.08801,17.08801c-9.43745,0 -17.08801,-7.65056 -17.08801,-17.08801z" fill="#1f95ff"/><text x="470" y="800" fill="#000000" font-family="Inter" font-weight="800" font-size="16" text-anchor="middle">Telangana</text><text x="470" y="832" fill="#1f95ff" font-family="Inter" font-weight="500" font-size="20" text-anchor="middle">292</text></g><g><path d="M889,775c0,-0.55228 0.44772,-1 1,-1c0.55228,0 1,0.44772 1,1c0,0.55228 -0.44772,1 -1,1c-0.55228,0 -1,-0.44772 -1,-1z" fill="#1f95ff"/><text x="890" y="800" fill="#000000" font-family="Inter" font-weight="800" font-size="16" text-anchor="middle">Tripura</text><text x="890" y="832" fill="#1f95ff" font-family="Inter" font-weight="500" font-size="20" text-anchor="middle">1</text></g><g><path d="M598.12566,444.12566c0,-6.55802 5.31632,-11.87434 11.87434,-11.87434c6.55802,0 11.87434,5.31632 11.87434,11.87434c0,6.55802 -5.31632,11.87434 -11.87434,11.87434c-6.55802,0 -11.87434,-5.31632 -11.87434,-11.87434z" fill="#1f95ff"/><text x="610" y="480" fill="#000000" font-family="Inter" font-weight="800" font-size="16" text-anchor="middle">Uttar Pradesh</text><text x="610" y="512" fill="#1f95ff" font-family="Inter" font-weight="500" font-size="20" text-anchor="middle">141</text></g><g><path d="M607,933c0,-1.65685 1.34315,-3 3,-3c1.65685,0 3,1.34315 3,3c0,1.65685 -1.34315,3 -3,3c-1.65685,0 -3,-1.34315 -3,-3z" fill="#1f95ff"/><text x="610" y="960" fill="#000000" font-family="Inter" font-weight="800" font-size="16" text-anchor="middle">Puducherry</text><text x="610" y="992" fill="#1f95ff" font-family="Inter" font-weight="500" font-size="20" text-anchor="middle">9</text></g></g></svg>